<svg width="30" height="20" viewBox="0 0 30 20" fill="none" xmlns="http://www.w3.org/2000/svg">
<path d="M6.84 9.99997C9.08508 12.435 11.9631 14.1978 15.1523 15.0914C18.3416 15.985 21.7165 15.9741 24.9 15.06C27.52 12.99 29.63 10.78 29.63 9.05997C29.63 4.58997 23.14 0.959975 15.14 0.959975C12.2479 0.93304 9.37705 1.45563 6.67999 2.49997C6.08473 3.66594 5.78778 4.96128 5.81571 6.27011C5.84363 7.57894 6.19555 8.86045 6.84 9.99997Z" fill="#443744"/>
<path d="M6.84 10C6.19728 8.86172 5.84631 7.58204 5.81839 6.27513C5.79047 4.96822 6.08647 3.67471 6.67999 2.51001C3.02999 3.98001 0.679993 6.37002 0.679993 9.07002C0.679993 11.55 5.13001 15.07 9.10001 17.73C10.8975 18.9334 13.0119 19.5758 15.175 19.5758C17.3381 19.5758 19.4525 18.9334 21.25 17.73C22.49 16.91 23.77 16 24.94 15.06C21.7509 15.9821 18.3678 15.9971 15.1706 15.1033C11.9734 14.2095 9.0886 12.4423 6.84 10Z" fill="#010001"/>
<path d="M25.93 9.31999C26.3663 9.31999 26.72 8.96629 26.72 8.52998C26.72 8.09368 26.3663 7.73999 25.93 7.73999C25.4937 7.73999 25.14 8.09368 25.14 8.52998C25.14 8.96629 25.4937 9.31999 25.93 9.31999Z" fill="#9D859E"/>
<path d="M23.04 6.60002C23.4763 6.60002 23.83 6.24632 23.83 5.81001C23.83 5.37371 23.4763 5.02002 23.04 5.02002C22.6037 5.02002 22.25 5.37371 22.25 5.81001C22.25 6.24632 22.6037 6.60002 23.04 6.60002Z" fill="#9D859E"/>
<path d="M19.52 5.20988C19.9563 5.20988 20.31 4.85618 20.31 4.41988C20.31 3.98357 19.9563 3.62988 19.52 3.62988C19.0837 3.62988 18.73 3.98357 18.73 4.41988C18.73 4.85618 19.0837 5.20988 19.52 5.20988Z" fill="#9D859E"/>
<path d="M19.93 11.9301C20.3663 11.9301 20.72 11.5764 20.72 11.1401C20.72 10.7038 20.3663 10.3501 19.93 10.3501C19.4937 10.3501 19.14 10.7038 19.14 11.1401C19.14 11.5764 19.4937 11.9301 19.93 11.9301Z" fill="#9D859E"/>
</svg>
