<svg width="79" height="33" viewBox="0 0 79 33" fill="none" xmlns="http://www.w3.org/2000/svg">
<path d="M7.88998 31.9099C24.1 22.7999 44.07 23.2399 62.22 27.2699C64.7785 27.984 67.4236 28.3407 70.08 28.3299C71.4111 28.316 72.7211 27.9947 73.9076 27.391C75.0941 26.7874 76.125 25.9177 76.92 24.8499C79.14 21.4399 77.64 16.9199 76.02 13.1799C75.0447 10.6028 73.6677 8.19639 71.94 6.0499C67.45 1.0499 60.01 0.149893 53.28 0.139893C43.28 0.139893 33.06 1.3599 23.71 5.0499C14.36 8.7399 5.82997 14.9999 0.589966 23.5799C2.23399 26.7883 4.11943 29.8672 6.22998 32.7899" fill="#BA1111"/>
</svg>
