<svg width="69" height="57" viewBox="0 0 69 57" fill="none" xmlns="http://www.w3.org/2000/svg">
<path d="M58.37 2.38008C48.28 18.0001 30.37 26.9101 12.47 31.8201C9.87222 32.3756 7.36466 33.2911 5.02002 34.5401C3.85099 35.1739 2.84343 36.0681 2.07526 37.1536C1.30709 38.2391 0.798909 39.4868 0.590031 40.8001C0.210031 44.8601 3.65002 48.1501 6.83002 50.7101C8.88969 52.5407 11.2294 54.0296 13.76 55.1201C20.07 57.4601 27.07 54.7801 33.02 51.6501C41.92 46.9701 50.34 41.1401 56.9 33.5201C63.46 25.9001 68.07 16.3801 68.72 6.35008C65.7652 4.2812 62.6599 2.43605 59.43 0.830078" fill="#E23834"/>
</svg>
