<svg width="38" height="14" viewBox="0 0 38 14" fill="none" xmlns="http://www.w3.org/2000/svg">
<path d="M1.09999 2.35995C4.35999 7.77995 8.78998 12.66 15.58 10.29C18.58 9.23997 20.15 9.58997 22.74 11.29C23.8768 12.1833 25.1832 12.8365 26.58 13.21C30.58 13.95 34.18 10.66 37.18 8.62996C38.62 7.62996 37.26 5.28996 35.8 6.27996C32.27 8.66996 28.36 11.28 24.11 8.93996C22.36 7.93996 21.11 6.63996 18.96 6.55996C17.16 6.48996 15.52 7.44995 13.8 7.85995C8.62998 9.07995 5.79998 4.85996 3.45998 0.969961C3.26233 0.690921 2.96748 0.495887 2.63335 0.423177C2.29922 0.350468 1.94996 0.405341 1.65422 0.577017C1.35849 0.748692 1.13767 1.02476 1.03511 1.35097C0.932559 1.67718 0.955698 2.02994 1.09999 2.33996V2.35995Z" fill="#B19789"/>
</svg>
