<svg width="50" height="50" viewBox="0 0 50 50" fill="none" xmlns="http://www.w3.org/2000/svg">
<path d="M35.45 17.21C35.2 16.56 34.88 16.08 34.4 15.6C33.91 15.11 33.43 14.8 32.79 14.55C32.31 14.36 31.59 14.14 30.26 14.08C28.91 14.01 28.5 14 25 14C21.5 14 21.09 14.01 19.73 14.08C18.41 14.14 17.69 14.36 17.21 14.55C16.56 14.8 16.08 15.12 15.59 15.6C15.1 16.09 14.79 16.57 14.54 17.21C14.35 17.69 14.13 18.41 14.07 19.73C14.01 21.08 14 21.49 14 25C14 28.51 14.01 28.92 14.08 30.27C14.14 31.59 14.36 32.31 14.55 32.8C14.8 33.44 15.11 33.92 15.6 34.41C16.08 34.89 16.56 35.21 17.21 35.46C17.69 35.65 18.42 35.87 19.73 35.93C21.09 35.99 21.5 36 25 36C28.5 36 28.91 35.99 30.27 35.92C31.59 35.86 32.31 35.64 32.79 35.45C33.44 35.2 33.92 34.88 34.41 34.4C34.89 33.92 35.21 33.43 35.46 32.79C35.65 32.31 35.87 31.58 35.93 30.27C35.99 28.9 36 28.45 36 25C36 21.55 35.99 21.1 35.92 19.73C35.87 18.42 35.64 17.69 35.45 17.21ZM25 31.5C21.41 31.5 18.5 28.59 18.5 25C18.5 21.41 21.41 18.5 25 18.5C28.59 18.5 31.5 21.41 31.5 25C31.5 28.59 28.59 31.5 25 31.5ZM32.5 20C31.67 20 31 19.33 31 18.5C31 17.67 31.67 17 32.5 17C33.33 17 34 17.67 34 18.5C34 19.33 33.33 20 32.5 20Z" fill="white"/>
<path d="M25 29.5C27.4853 29.5 29.5 27.4853 29.5 25C29.5 22.5147 27.4853 20.5 25 20.5C22.5147 20.5 20.5 22.5147 20.5 25C20.5 27.4853 22.5147 29.5 25 29.5Z" fill="white"/>
<path d="M25 0C11.19 0 0 11.19 0 25C0 38.81 11.19 50 25 50C38.81 50 50 38.81 50 25C50 11.19 38.81 0 25 0ZM37.92 30.36C37.86 31.74 37.64 32.69 37.31 33.52C36.98 34.37 36.53 35.1 35.81 35.82C35.09 36.54 34.36 36.99 33.51 37.32C32.69 37.64 31.74 37.86 30.36 37.92C28.97 37.99 28.53 38 25 38C21.47 38 21.03 37.99 19.64 37.92C18.26 37.86 17.31 37.64 16.48 37.32C15.62 36.99 14.9 36.54 14.18 35.82C13.46 35.1 13.01 34.37 12.68 33.52C12.36 32.69 12.14 31.75 12.08 30.36C12.01 28.97 12 28.53 12 25C12 21.47 12.01 21.03 12.08 19.64C12.14 18.26 12.36 17.31 12.68 16.48C13.01 15.63 13.46 14.9 14.18 14.18C14.9 13.46 15.63 13.01 16.48 12.68C17.31 12.36 18.25 12.14 19.64 12.07C21.03 12.01 21.47 11.99 25 11.99C28.53 11.99 28.97 12 30.36 12.07C31.74 12.13 32.69 12.35 33.51 12.68C34.37 13.01 35.09 13.46 35.81 14.18C36.53 14.9 36.98 15.63 37.31 16.48C37.63 17.31 37.85 18.25 37.92 19.64C37.98 21.03 38 21.47 38 25C38 28.53 37.98 28.97 37.92 30.36Z" fill="white"/>
</svg>
