<svg width="288" height="310" viewBox="0 0 288 310" fill="none" xmlns="http://www.w3.org/2000/svg">
<path d="M129.878 98.5349L143.716 12.0305H144.022L156.513 98.5349H129.878Z" fill="#18A284"/>
<path d="M129.878 99.1471L143.716 12.6427H144.022L156.513 99.1471H129.878Z" fill="#18A284"/>
<path d="M136.001 94.9228C136.001 94.9228 135.94 94.9228 136.001 94.9228C135.634 94.8616 135.389 94.6167 135.389 94.2494V93.9433C135.45 93.6372 135.695 93.3923 136.062 93.3923C136.369 93.4536 136.675 93.6984 136.613 94.0658V94.3719C136.552 94.678 136.307 94.9228 136.001 94.9228Z" fill="#E23834"/>
<path d="M136.246 92.168C135.879 92.1067 135.634 91.8618 135.634 91.4945L135.695 90.8823C135.756 90.5762 136.001 90.2701 136.369 90.3313C136.675 90.3926 136.981 90.6375 136.92 91.0048L136.858 91.617C136.858 91.9231 136.552 92.168 136.246 92.168ZM136.552 89.1069C136.552 89.1069 136.491 89.1069 136.552 89.1069C136.185 89.0457 135.94 88.8008 135.94 88.4335L136.001 87.8213C136.062 87.5152 136.307 87.2091 136.675 87.2703C136.981 87.3316 137.287 87.5764 137.226 87.9438L137.165 88.556C137.103 88.8621 136.858 89.1069 136.552 89.1069Z" fill="#E23834"/>
<path d="M136.858 86.046C136.797 86.046 136.797 86.046 136.858 86.046C136.491 85.9847 136.246 85.7399 136.246 85.3725L136.307 84.7603C136.369 84.4542 136.613 84.1481 136.981 84.2094C137.287 84.2706 137.593 84.5154 137.532 84.8828L137.471 85.495C137.409 85.8011 137.165 86.046 136.858 86.046ZM137.103 83.0462C137.103 83.0462 137.103 82.9849 137.103 83.0462C136.736 82.9849 136.491 82.7401 136.491 82.3727L136.552 81.7605C136.613 81.4544 136.858 81.1483 137.226 81.2096C137.532 81.2708 137.838 81.5157 137.777 81.883L137.716 82.4952C137.716 82.8013 137.409 83.0462 137.103 83.0462ZM137.409 79.9851C137.409 79.9851 137.348 79.9851 137.409 79.9851C137.042 79.9239 136.797 79.679 136.797 79.3117L136.858 78.6995C136.92 78.3934 137.165 78.0873 137.532 78.1485C137.838 78.2098 138.144 78.4546 138.083 78.822L138.022 79.4342C137.961 79.7403 137.716 79.9851 137.409 79.9851ZM137.716 76.9241C137.654 76.9241 137.654 76.9241 137.716 76.9241C137.348 76.8629 137.103 76.618 137.103 76.2507L137.165 75.6385C137.226 75.2712 137.471 75.0263 137.838 75.0875C138.144 75.1487 138.45 75.3936 138.389 75.7609L138.328 76.3731C138.267 76.6792 138.022 76.9241 137.716 76.9241ZM137.961 73.8631C137.593 73.8019 137.348 73.557 137.348 73.1897L137.409 72.5775C137.471 72.2714 137.716 71.9653 138.083 72.0265C138.389 72.0877 138.695 72.3326 138.634 72.6999L138.573 73.3121C138.573 73.6182 138.267 73.8631 137.961 73.8631ZM138.267 70.8021C138.267 70.8021 138.205 70.8021 138.267 70.8021C137.899 70.7409 137.654 70.496 137.654 70.1287L137.716 69.5165C137.777 69.2104 138.022 68.9043 138.389 68.9655C138.695 69.0267 139.001 69.2716 138.94 69.6389L138.879 70.2511C138.818 70.5572 138.573 70.8021 138.267 70.8021ZM138.573 67.8023C138.512 67.8023 138.512 67.8023 138.573 67.8023C138.205 67.7411 137.961 67.4962 137.961 67.1289L138.022 66.5167C138.083 66.2106 138.328 65.9045 138.695 65.9657C139.001 66.0269 139.308 66.2718 139.246 66.6391L139.185 67.2513C139.124 67.5574 138.879 67.8023 138.573 67.8023ZM138.818 64.7413C138.45 64.6801 138.205 64.4352 138.205 64.0679L138.267 63.4557C138.328 63.1495 138.573 62.8434 138.94 62.9047C139.246 62.9659 139.552 63.2108 139.491 63.5781L139.43 64.1903C139.43 64.4964 139.124 64.7413 138.818 64.7413ZM139.124 61.6803C139.124 61.6803 139.063 61.6803 139.124 61.6803C138.757 61.619 138.512 61.3742 138.512 61.0068L138.573 60.3946C138.634 60.0273 138.879 59.7824 139.246 59.8437C139.552 59.9049 139.859 60.1497 139.797 60.5171L139.736 61.1293C139.675 61.4354 139.43 61.6803 139.124 61.6803ZM139.43 58.6192C139.369 58.6192 139.369 58.6192 139.43 58.6192C139.063 58.558 138.818 58.3131 138.818 57.9458L138.879 57.3336C138.94 57.0275 139.185 56.7826 139.552 56.7826C139.859 56.8439 140.165 57.0887 140.104 57.456L140.042 58.0682C139.981 58.3743 139.736 58.6192 139.43 58.6192ZM139.675 55.5582C139.308 55.497 139.063 55.2521 139.063 54.8848L139.124 54.2726C139.185 53.9665 139.43 53.7216 139.797 53.7216C140.104 53.7828 140.41 54.0277 140.348 54.395L140.287 55.0072C140.287 55.3745 139.981 55.5582 139.675 55.5582ZM139.981 52.5584C139.981 52.5584 139.92 52.5584 139.981 52.5584C139.614 52.4972 139.369 52.2523 139.369 51.885L139.43 51.2728C139.491 50.9667 139.736 50.7218 140.104 50.7218C140.41 50.783 140.716 51.0279 140.655 51.3952L140.593 52.0074C140.532 52.3135 140.287 52.5584 139.981 52.5584ZM140.287 49.4974C140.226 49.4974 140.226 49.4974 140.287 49.4974C139.92 49.4362 139.675 49.1913 139.675 48.824L139.736 48.2118C139.797 47.9057 140.042 47.5996 140.41 47.6608C140.716 47.722 141.022 47.9669 140.961 48.3342L140.9 48.9464C140.838 49.2525 140.593 49.4974 140.287 49.4974ZM140.532 46.4364C140.165 46.3752 139.92 46.1303 139.92 45.763L139.981 45.1508C140.042 44.7834 140.287 44.5385 140.655 44.5998C140.961 44.661 141.267 44.9059 141.206 45.2732L141.144 45.8854C141.144 46.1915 140.838 46.4364 140.532 46.4364ZM140.838 43.3754C140.838 43.3754 140.777 43.3754 140.838 43.3754C140.471 43.3141 140.226 43.0693 140.226 42.702L140.287 42.0898C140.348 41.7836 140.593 41.4775 140.961 41.5388C141.267 41.6 141.573 41.8449 141.512 42.2122L141.451 42.8244C141.451 43.1305 141.144 43.3754 140.838 43.3754ZM141.144 40.3756C141.083 40.3756 141.083 40.3756 141.144 40.3756C140.777 40.3143 140.532 40.0695 140.532 39.7021L140.593 39.0899C140.655 38.7838 140.9 38.4777 141.267 38.539C141.573 38.6002 141.879 38.8451 141.818 39.2124L141.757 39.8246C141.696 40.1307 141.451 40.3756 141.144 40.3756ZM141.389 37.3146C141.022 37.2533 140.777 37.0084 140.777 36.6411L140.838 36.0289C140.9 35.7228 141.144 35.4167 141.512 35.4779C141.818 35.5392 142.124 35.784 142.063 36.1514L142.002 36.7636C142.002 37.0697 141.696 37.3146 141.389 37.3146ZM141.696 34.2535C141.696 34.2535 141.634 34.2535 141.696 34.2535C141.328 34.1923 141.083 33.9474 141.083 33.5801L141.144 32.9679C141.206 32.6618 141.451 32.3557 141.818 32.4169C142.124 32.4781 142.43 32.723 142.369 33.0903L142.308 33.7026C142.308 34.0087 142.002 34.2535 141.696 34.2535ZM142.002 31.1925C141.94 31.1925 141.94 31.1925 142.002 31.1925C141.634 31.1313 141.389 30.8864 141.389 30.5191L141.451 29.9069C141.512 29.5396 141.757 29.2947 142.124 29.3559C142.43 29.4171 142.736 29.662 142.675 30.0293L142.614 30.6415C142.553 30.9476 142.308 31.1925 142.002 31.1925ZM142.247 28.1315C141.879 28.0703 141.634 27.8254 141.634 27.4581L141.696 26.8459C141.757 26.5398 142.002 26.2337 142.369 26.2949C142.675 26.3561 142.981 26.601 142.92 26.9683L142.859 27.5805C142.859 27.9478 142.614 28.1315 142.247 28.1315ZM142.553 25.1317C142.553 25.1317 142.492 25.1317 142.553 25.1317C142.185 25.0705 141.94 24.8256 141.94 24.4583L142.002 23.8461C142.063 23.54 142.308 23.2951 142.675 23.2951C142.981 23.3563 143.287 23.6012 143.226 23.9685L143.165 24.5807C143.165 24.8868 142.859 25.1317 142.553 25.1317ZM142.859 22.0707C142.798 22.0707 142.798 22.0707 142.859 22.0707C142.492 22.0095 142.247 21.7646 142.247 21.3973L142.308 20.7851C142.369 20.479 142.614 20.2341 142.981 20.2341C143.288 20.2953 143.594 20.5402 143.532 20.9075L143.471 21.5197C143.41 21.8258 143.165 22.0707 142.859 22.0707ZM143.104 19.0097C142.736 18.9484 142.492 18.7036 142.492 18.3362L142.553 17.724C142.614 17.4179 142.859 17.1731 143.226 17.1731C143.532 17.2343 143.839 17.4792 143.777 17.8465L143.716 18.4587C143.716 18.7648 143.471 19.0097 143.104 19.0097ZM143.41 15.9486C143.043 15.8874 142.798 15.6425 142.798 15.2752L142.859 14.663C142.92 14.2957 143.165 14.0508 143.532 14.112C143.839 14.1733 144.145 14.4181 144.083 14.7855L144.022 15.3977C144.022 15.7038 143.716 15.9486 143.41 15.9486Z" fill="#E23834"/>
<path d="M143.777 12.8875C143.716 12.8875 143.716 12.8875 143.777 12.8875C143.716 12.8875 143.716 12.8875 143.655 12.8875C143.349 12.8263 143.043 12.5814 143.104 12.2141V11.908C143.104 11.6019 143.41 11.3571 143.716 11.3571C144.022 11.3571 144.267 11.6019 144.328 11.908V12.2141C144.39 12.5814 144.145 12.8875 143.777 12.8875Z" fill="#E23834"/>
<path d="M144.206 18.7647C143.9 18.7647 143.594 18.5198 143.594 18.2137L143.532 17.6015C143.532 17.2342 143.777 16.9893 144.083 16.9281C144.451 16.9281 144.696 17.173 144.757 17.4791L144.818 18.0913C144.818 18.4586 144.573 18.7647 144.206 18.7647C144.267 18.7647 144.206 18.7647 144.206 18.7647ZM143.961 15.8261C143.655 15.8261 143.349 15.5812 143.349 15.2751L143.287 14.6629C143.287 14.2956 143.532 14.0507 143.839 13.9895C144.206 13.9895 144.451 14.2344 144.512 14.5405L144.573 15.1527C144.634 15.52 144.39 15.8261 143.961 15.8261C144.022 15.8261 144.022 15.8261 143.961 15.8261Z" fill="#E23834"/>
<path d="M150.329 98.0451C150.023 98.0451 149.717 97.8003 149.717 97.4942L149.655 96.882C149.655 96.5146 149.9 96.2697 150.206 96.2085C150.574 96.2085 150.819 96.4534 150.88 96.7595L150.941 97.3717C151.002 97.739 150.696 98.0451 150.329 98.0451C150.39 98.0451 150.329 98.0451 150.329 98.0451ZM150.084 95.1065C149.778 95.1065 149.472 94.8617 149.472 94.5556L149.41 93.9434C149.41 93.576 149.655 93.3312 149.962 93.2699C150.329 93.2699 150.574 93.5148 150.635 93.8209L150.696 94.4331C150.757 94.8005 150.513 95.1065 150.084 95.1065C150.145 95.1065 150.145 95.1065 150.084 95.1065ZM149.9 92.168C149.594 92.168 149.288 91.9231 149.288 91.617L149.227 91.0048C149.227 90.6375 149.472 90.3926 149.778 90.3314C150.145 90.3314 150.39 90.5762 150.451 90.8823L150.513 91.4945C150.513 91.8619 150.268 92.168 149.9 92.168ZM149.655 89.2294C149.349 89.2294 149.043 88.9845 149.043 88.6784L148.982 88.0662C148.982 87.6989 149.227 87.454 149.533 87.3928C149.9 87.3928 150.145 87.6377 150.206 87.9438L150.268 88.556C150.268 88.9233 150.023 89.2294 149.655 89.2294C149.717 89.2294 149.655 89.2294 149.655 89.2294ZM149.41 86.2908C149.104 86.2908 148.798 86.0459 148.798 85.7398L148.737 85.1276C148.737 84.7603 148.982 84.5154 149.288 84.4542C149.655 84.4542 149.9 84.6991 149.962 85.0052L150.023 85.6174C150.084 85.9847 149.839 86.2908 149.41 86.2908C149.472 86.2908 149.472 86.2908 149.41 86.2908ZM149.227 83.3522C148.921 83.3522 148.614 83.1074 148.614 82.8013L148.553 82.1891C148.553 81.8217 148.798 81.5769 149.104 81.5156C149.472 81.5156 149.717 81.7605 149.778 82.0666L149.839 82.6788C149.839 83.0461 149.594 83.3522 149.227 83.3522ZM148.982 80.4137C148.676 80.4137 148.37 80.1688 148.37 79.8627L148.308 79.2505C148.308 78.8831 148.553 78.6383 148.859 78.577C149.227 78.577 149.472 78.8219 149.533 79.128L149.594 79.7402C149.594 80.1076 149.349 80.4137 148.982 80.4137ZM148.737 77.4751C148.431 77.4751 148.125 77.2302 148.125 76.9241L148.063 76.3119C148.063 75.9446 148.308 75.6997 148.614 75.6385C148.982 75.6385 149.227 75.8834 149.288 76.1895L149.349 76.8017C149.41 77.169 149.104 77.4751 148.737 77.4751C148.798 77.4751 148.737 77.4751 148.737 77.4751ZM148.492 74.5365C148.186 74.5365 147.88 74.2916 147.88 73.9855L147.818 73.3733C147.818 73.006 148.063 72.7611 148.37 72.6999C148.737 72.6999 148.982 72.9448 149.043 73.2509L149.104 73.8631C149.166 74.2304 148.921 74.5365 148.492 74.5365C148.553 74.5365 148.553 74.5365 148.492 74.5365ZM148.308 71.6591C148.002 71.6591 147.696 71.4143 147.696 71.1082L147.635 70.496C147.635 70.1286 147.88 69.8838 148.186 69.8225C148.553 69.8225 148.798 70.0674 148.859 70.3735L148.921 70.9857C148.921 71.2918 148.676 71.5979 148.308 71.6591ZM148.063 68.7206C147.757 68.7206 147.451 68.4757 147.451 68.1696L147.39 67.5574C147.39 67.1901 147.635 66.9452 147.941 66.884C148.308 66.884 148.553 67.1288 148.614 67.4349L148.676 68.0471C148.676 68.3533 148.431 68.6594 148.063 68.7206C148.125 68.7206 148.063 68.7206 148.063 68.7206ZM147.818 65.782C147.512 65.782 147.206 65.5371 147.206 65.231L147.145 64.6188C147.145 64.2515 147.39 64.0066 147.696 63.9454C148.063 63.9454 148.308 64.1903 148.37 64.4964L148.431 65.1086C148.492 65.4147 148.247 65.7208 147.818 65.782C147.88 65.782 147.88 65.782 147.818 65.782ZM147.635 62.8434C147.329 62.8434 147.022 62.5985 147.022 62.2924L146.961 61.6802C146.961 61.3129 147.206 61.068 147.512 61.0068C147.88 61.0068 148.125 61.2517 148.186 61.5578L148.247 62.17C148.247 62.4761 148.002 62.7822 147.635 62.8434ZM147.39 59.9048C147.084 59.9048 146.778 59.66 146.778 59.3538L146.716 58.7416C146.716 58.3743 146.961 58.1294 147.267 58.0682C147.635 58.0682 147.88 58.3131 147.941 58.6192L148.002 59.2314C148.002 59.5375 147.757 59.8436 147.39 59.9048ZM147.145 56.9663C146.839 56.9663 146.533 56.7214 146.533 56.4153L146.471 55.8031C146.471 55.4357 146.716 55.1909 147.022 55.1296C147.39 55.1296 147.635 55.3745 147.696 55.6806L147.757 56.2928C147.818 56.6601 147.574 56.905 147.145 56.9663C147.206 56.9663 147.145 56.9663 147.145 56.9663ZM146.961 54.0277C146.655 54.0277 146.349 53.7828 146.349 53.4767L146.288 52.8645C146.288 52.4972 146.533 52.2523 146.839 52.1911C147.206 52.1911 147.451 52.436 147.512 52.7421L147.574 53.3543C147.574 53.7216 147.329 53.9665 146.961 54.0277ZM146.716 51.0891C146.41 51.0891 146.104 50.8442 146.104 50.5381L146.043 49.9259C146.043 49.5586 146.288 49.3137 146.594 49.2525C146.961 49.2525 147.206 49.4974 147.267 49.8035L147.329 50.4157C147.329 50.783 147.084 51.0279 146.716 51.0891ZM146.471 48.1505C146.165 48.1505 145.859 47.9056 145.859 47.5995L145.798 46.9873C145.798 46.62 146.043 46.3751 146.349 46.3139C146.716 46.3139 146.961 46.5588 147.022 46.8649L147.084 47.4771C147.145 47.8444 146.839 48.0893 146.471 48.1505C146.533 48.1505 146.471 48.1505 146.471 48.1505ZM146.227 45.2119C145.92 45.2119 145.614 44.9671 145.614 44.661L145.553 44.0487C145.553 43.6814 145.798 43.4365 146.104 43.3753C146.471 43.3753 146.716 43.6202 146.778 43.9263L146.839 44.5385C146.9 44.9058 146.655 45.2119 146.227 45.2119C146.288 45.2119 146.288 45.2119 146.227 45.2119ZM146.043 42.2734C145.737 42.2734 145.431 42.0285 145.431 41.7224L145.369 41.1102C145.369 40.7429 145.614 40.498 145.92 40.4368C146.288 40.4368 146.533 40.6816 146.594 40.9877L146.655 41.5999C146.655 41.9673 146.41 42.2734 146.043 42.2734ZM145.798 39.3348C145.492 39.3348 145.186 39.0899 145.186 38.7838L145.124 38.1716C145.124 37.8043 145.369 37.5594 145.675 37.4982C146.043 37.4982 146.288 37.7431 146.349 38.0492L146.41 38.6614C146.41 39.0287 146.165 39.3348 145.798 39.3348C145.859 39.3348 145.798 39.3348 145.798 39.3348ZM145.553 36.3962C145.247 36.3962 144.941 36.1513 144.941 35.8452L144.879 35.233C144.879 34.8657 145.124 34.6208 145.431 34.5596C145.798 34.5596 146.043 34.8045 146.104 35.1106L146.165 35.7228C146.227 36.0901 145.982 36.3962 145.553 36.3962C145.614 36.3962 145.614 36.3962 145.553 36.3962ZM145.369 33.4576C145.063 33.4576 144.757 33.2128 144.757 32.9067L144.696 32.2944C144.696 31.9271 144.941 31.6822 145.247 31.621C145.614 31.621 145.859 31.8659 145.92 32.172L145.982 32.7842C145.982 33.1515 145.737 33.4576 145.369 33.4576ZM145.124 30.519C144.818 30.519 144.512 30.2742 144.512 29.9681L144.451 29.3559C144.451 28.9885 144.696 28.7437 145.002 28.6824C145.369 28.6824 145.614 28.9273 145.675 29.2334L145.737 29.8456C145.737 30.213 145.492 30.519 145.124 30.519ZM144.879 27.5805C144.573 27.5805 144.267 27.3356 144.267 27.0295L144.206 26.4173C144.206 26.05 144.451 25.8051 144.757 25.7439C145.124 25.7439 145.369 25.9887 145.431 26.2948L145.492 26.907C145.553 27.2744 145.247 27.5805 144.879 27.5805C144.941 27.5805 144.879 27.5805 144.879 27.5805ZM144.635 24.6419C144.328 24.6419 144.022 24.397 144.022 24.0909L143.961 23.4787C143.961 23.1114 144.206 22.8665 144.512 22.8053C144.879 22.8053 145.124 23.0502 145.186 23.3563L145.247 23.9685C145.308 24.3358 145.063 24.6419 144.635 24.6419C144.696 24.6419 144.696 24.6419 144.635 24.6419ZM144.451 21.7033C144.145 21.7033 143.839 21.4584 143.839 21.1523L143.777 20.5401C143.777 20.1728 144.022 19.9279 144.328 19.8667C144.696 19.8667 144.941 20.1116 145.002 20.4177L145.063 21.0299C145.063 21.3972 144.818 21.7033 144.451 21.7033Z" fill="#E23834"/>
<path d="M150.513 100.678C150.206 100.678 149.9 100.433 149.9 100.127V99.8205C149.9 99.4531 150.145 99.2083 150.451 99.147C150.757 99.0858 151.064 99.3919 151.125 99.698V100.004C151.186 100.371 150.941 100.678 150.513 100.678C150.574 100.678 150.574 100.678 150.513 100.678Z" fill="#E23834"/>
<path d="M264.583 221.955L274.992 184.794H275.237L284.666 221.955H264.583Z" fill="#18A284"/>
<path d="M268.563 194.161L275.053 179.223H275.176L281.054 194.161H268.563Z" fill="#18A284"/>
<path d="M283.503 220.486L285.585 208.242L287.667 220.486" fill="white"/>
<path d="M261.889 220.486L263.971 208.242L266.114 220.486" fill="white"/>
<path d="M269.42 247.851V251.708H267.155V247.851H264.828V251.708V252.321V290.583H271.747V252.321V251.708V247.851H269.42Z" fill="#E23834"/>
<path d="M282.523 247.851V251.708H280.258V247.851H277.931V251.708V252.321V290.583H284.85V252.321V251.708V247.851H282.523Z" fill="#E23834"/>
<path d="M284.85 261.075H140.471V309.439H284.85V261.075Z" fill="#E23834"/>
<path d="M187.74 251.157L187.25 252.749L186.822 251.219C186.454 249.872 185.23 248.953 183.883 248.953V252.81V253.361V291.685H190.802V253.484V252.871V249.015H190.74C189.332 249.015 188.169 249.872 187.74 251.157Z" fill="#E23834"/>
<path d="M201.945 251.157L201.456 252.749L201.027 251.219C200.66 249.872 199.435 248.953 198.088 248.953V252.81V253.361V291.685H205.007V253.484V252.871V249.015H204.946C203.537 249.015 202.313 249.872 201.945 251.157Z" fill="#E23834"/>
<path d="M216.089 251.157L215.6 252.749L215.171 251.219C214.804 249.872 213.579 248.953 212.232 248.953V252.81V253.361V291.685H219.09V253.484V252.871V249.015H219.028C217.681 249.015 216.518 249.872 216.089 251.157Z" fill="#E23834"/>
<path d="M230.233 251.157L229.744 252.749L229.315 251.219C228.948 249.872 227.723 248.953 226.376 248.953V252.81V253.361V291.685H233.295V253.484V252.871V249.015H233.234C231.825 249.015 230.662 249.872 230.233 251.157Z" fill="#E23834"/>
<path d="M244.439 251.157L243.949 252.749L243.52 251.219C243.153 249.872 241.928 248.953 240.581 248.953V252.81V253.361V291.685H247.5V253.484V252.871V249.015H247.439C246.031 249.015 244.806 249.872 244.439 251.157Z" fill="#E23834"/>
<path d="M258.583 251.157L258.093 252.749L257.664 251.219C257.297 249.872 256.072 248.953 254.725 248.953V252.81V253.361V291.685H261.644V253.484V252.871V249.015H261.583C260.175 249.015 259.011 249.872 258.583 251.157Z" fill="#E23834"/>
<path d="M284.789 231.077H264.828V309.439H284.789V231.077Z" fill="#E23834"/>
<path d="M284.789 245.77H264.828V247.852H284.789V245.77Z" fill="white"/>
<path d="M287.789 220.486H261.889V246.382H287.789V220.486Z" fill="#E23834"/>
<path d="M280.993 194.161H268.563V207.017H280.993V194.161Z" fill="#E23834"/>
<path d="M278.911 231.016V238.179H271.563V231.077C271.563 229.057 273.155 227.404 275.237 227.404C276.217 227.404 277.196 227.832 277.809 228.506C278.482 229.118 278.911 230.036 278.911 231.016Z" fill="#4E1719"/>
<path d="M273.645 198.814V201.508H270.89V198.814C270.89 198.079 271.502 197.406 272.298 197.406C272.666 197.406 273.033 197.59 273.278 197.834C273.462 198.079 273.645 198.447 273.645 198.814Z" fill="#4E1719"/>
<path d="M278.605 198.814V201.508H275.849V198.814C275.849 198.079 276.462 197.406 277.258 197.406C277.625 197.406 277.993 197.59 278.237 197.834C278.482 198.079 278.605 198.447 278.605 198.814Z" fill="#4E1719"/>
<path d="M23.2776 221.955L12.8073 184.794H12.5624L3.13306 221.955H23.2776Z" fill="#18A284"/>
<path d="M19.2977 194.161L12.7461 179.223H12.6236L6.74561 194.161H19.2977Z" fill="#18A284"/>
<path d="M4.3576 220.486L2.21458 208.242L0.132812 220.486" fill="white"/>
<path d="M25.9104 220.486L23.8286 208.242L21.7468 220.486" fill="white"/>
<path d="M18.3792 247.851V251.708H20.6447V247.851H22.9714V251.708V252.321V290.583H16.0525V252.321V251.708V247.851H18.3792Z" fill="#E23834"/>
<path d="M5.27606 247.851V251.708H7.54157V247.851H9.86829V251.708V252.321V290.583H2.94934V252.321V251.708V247.851H5.27606Z" fill="#E23834"/>
<path d="M147.329 261.075H2.94934V309.439H147.329V261.075Z" fill="#E23834"/>
<path d="M100.059 251.157L100.549 252.749L100.978 251.219C101.345 249.872 102.57 248.953 103.917 248.953V252.81V253.361V291.685H96.9979V253.484V252.871V249.015H97.0592C98.4675 249.015 99.6308 249.872 100.059 251.157Z" fill="#E23834"/>
<path d="M85.9154 251.157L86.4052 252.749L86.8338 251.219C87.2012 249.872 88.4258 248.953 89.7728 248.953V252.81V253.361V291.685H82.8539V253.484V252.871V249.015H82.9151C84.3234 249.015 85.4868 249.872 85.9154 251.157Z" fill="#E23834"/>
<path d="M71.7102 251.157L72.2 252.749L72.6286 251.219C72.996 249.872 74.2206 248.953 75.5676 248.953V252.81V253.361V291.685H68.6487V253.484V252.871V249.015H68.7099C70.1182 249.015 71.3428 249.872 71.7102 251.157Z" fill="#E23834"/>
<path d="M57.5661 251.157L58.0559 252.749L58.4845 251.219C58.8519 249.872 60.0765 248.953 61.4236 248.953V252.81V253.361V291.685H54.5046V253.484V252.871V249.015H54.5659C55.9741 249.015 57.1375 249.872 57.5661 251.157Z" fill="#E23834"/>
<path d="M43.4221 251.157L43.9119 252.749L44.3405 251.219C44.7079 249.872 45.9325 248.953 47.2796 248.953V252.81V253.361V291.685H40.3606V253.484V252.871V249.015H40.4218C41.7689 249.015 42.9935 249.872 43.4221 251.157Z" fill="#E23834"/>
<path d="M29.2169 251.157L29.7067 252.749L30.1353 251.219C30.5027 249.872 31.7273 248.953 33.0743 248.953V252.81V253.361V291.685H26.2166V253.484V252.871V249.015H26.2778C27.6249 249.015 28.8495 249.872 29.2169 251.157Z" fill="#E23834"/>
<path d="M22.9102 231.077H2.94934V309.439H22.9102V231.077Z" fill="#E23834"/>
<path d="M22.9102 245.77H2.94934V247.852H22.9102V245.77Z" fill="white"/>
<path d="M25.9105 220.486H0.010376V246.382H25.9105V220.486Z" fill="#E23834"/>
<path d="M19.2364 194.161H6.80682V207.017H19.2364V194.161Z" fill="#E23834"/>
<path d="M8.94989 231.016V238.179H16.2974V231.077C16.2974 229.057 14.7055 227.404 12.6237 227.404C11.644 227.404 10.6643 227.832 10.052 228.506C9.31726 229.118 8.94989 230.036 8.94989 231.016Z" fill="#4E1719"/>
<path d="M14.1544 198.814V201.508H16.9097V198.814C16.9097 198.079 16.2974 197.406 15.5014 197.406C15.134 197.406 14.7667 197.59 14.5218 197.834C14.3381 198.079 14.1544 198.447 14.1544 198.814Z" fill="#4E1719"/>
<path d="M9.19482 198.814V201.508H11.9502V198.814C11.9502 198.079 11.3379 197.406 10.5419 197.406C10.1745 197.406 9.80711 197.59 9.56219 197.834C9.3785 198.079 9.19482 198.447 9.19482 198.814Z" fill="#4E1719"/>
<path d="M179.842 170.959H107.285V308.643H179.842V170.959Z" fill="#E23834"/>
<path d="M160.064 98.5349H127.123V191.774H160.064V98.5349Z" fill="#E23834"/>
<path d="M176.351 246.443H109.244V248.157H176.351V246.443Z" fill="white"/>
<path d="M154.003 138.389C154.003 138.328 154.003 138.328 154.003 138.267C154.125 137.471 153.941 136.614 153.513 135.818C153.329 135.512 153.145 135.145 152.962 134.839C152.901 134.777 152.9 134.716 152.839 134.594C152.594 134.288 152.411 133.92 152.105 133.614C151.431 132.757 150.696 131.961 149.961 131.288C149.288 130.614 148.676 130.063 148.247 129.574C147.941 129.268 147.696 129.023 147.574 128.839C147.329 128.533 147.022 128.166 146.778 127.859C146.349 127.247 145.92 126.635 145.614 126.023C145.247 125.349 144.941 124.737 144.696 124.186C144.022 122.656 143.594 121.615 143.594 121.615C143.594 121.615 143.226 122.717 142.491 124.186C142.247 124.737 141.94 125.411 141.573 126.023C141.206 126.635 140.838 127.247 140.41 127.859C140.165 128.166 139.92 128.533 139.614 128.839C139.43 129.023 139.185 129.268 138.94 129.574C138.45 130.063 137.838 130.614 137.226 131.288C136.491 132.022 135.756 132.818 135.083 133.614C134.838 133.92 134.593 134.226 134.348 134.594C134.287 134.655 134.225 134.716 134.225 134.839C134.042 135.145 133.797 135.512 133.674 135.818C133.246 136.614 133.062 137.471 133.185 138.267C133.185 138.328 133.185 138.328 133.185 138.389H154.003Z" fill="#F4452E"/>
<path d="M154.921 139.491H132.266L132.083 138.451C131.899 137.471 132.083 136.43 132.634 135.328C132.817 135.022 133.001 134.655 133.246 134.226C133.307 134.165 133.307 134.104 133.368 134.043C133.613 133.675 133.858 133.308 134.103 133.002C134.838 132.084 135.695 131.227 136.307 130.553C136.736 130.125 137.165 129.696 137.532 129.39L138.083 128.9C138.328 128.655 138.573 128.41 138.695 128.227C138.94 127.982 139.185 127.676 139.43 127.308C139.797 126.819 140.165 126.268 140.532 125.594C140.838 125.043 141.144 124.431 141.451 123.819C142.002 122.594 142.369 121.676 142.43 121.431L142.553 120.758L144.267 120.452L144.573 121.37C144.573 121.431 144.941 122.472 145.614 123.819C145.859 124.37 146.165 124.982 146.533 125.594C146.9 126.206 147.267 126.757 147.635 127.308C147.88 127.615 148.125 127.921 148.37 128.227C148.492 128.41 148.798 128.655 148.982 128.9C149.166 129.084 149.349 129.268 149.533 129.451C149.9 129.818 150.268 130.186 150.696 130.614C151.309 131.227 152.166 132.084 152.901 133.063C153.207 133.492 153.452 133.798 153.696 134.104C153.758 134.165 153.758 134.226 153.819 134.288L153.88 134.349C154.125 134.777 154.37 135.083 154.492 135.451C155.044 136.553 155.227 137.593 155.044 138.573L154.921 139.491ZM134.226 137.287H152.901C152.839 136.981 152.717 136.614 152.533 136.308C152.411 136.063 152.288 135.818 152.043 135.451L151.982 135.39C151.982 135.328 151.921 135.328 151.921 135.267C151.737 134.961 151.553 134.716 151.247 134.349C150.574 133.492 149.778 132.635 149.227 132.084C148.798 131.655 148.431 131.288 148.063 130.982C147.88 130.798 147.635 130.614 147.512 130.431C147.145 130.125 146.961 129.88 146.778 129.635C146.471 129.329 146.227 128.961 145.92 128.594C145.492 128.043 145.063 127.37 144.696 126.696C144.328 126.023 144.022 125.411 143.716 124.737C143.716 124.676 143.655 124.615 143.655 124.554C143.655 124.615 143.594 124.676 143.594 124.737C143.288 125.349 142.981 126.023 142.614 126.635C142.185 127.37 141.757 127.982 141.328 128.533C141.022 128.9 140.777 129.268 140.471 129.574C140.287 129.818 140.042 130.002 139.736 130.369L139.185 130.92C138.818 131.288 138.389 131.655 138.022 132.084C137.409 132.696 136.675 133.492 136.001 134.349C135.818 134.594 135.573 134.9 135.328 135.267L135.205 135.451C134.96 135.818 134.838 136.063 134.715 136.308C134.409 136.614 134.287 136.981 134.226 137.287Z" fill="white"/>
<path d="M125.96 169.244V169.183C126.021 168.755 125.898 168.326 125.715 167.898C125.653 167.714 125.531 167.591 125.409 167.408C125.409 167.347 125.347 167.347 125.347 167.285C125.225 167.102 125.102 166.979 124.98 166.796C124.613 166.367 124.245 165.939 123.878 165.571C123.572 165.265 123.204 164.959 122.959 164.714C122.837 164.592 122.714 164.469 122.592 164.347C122.47 164.163 122.347 164.041 122.163 163.857C121.918 163.551 121.735 163.245 121.551 162.939C121.367 162.633 121.184 162.265 121.061 162.02C120.694 161.225 120.51 160.674 120.51 160.674C120.51 160.674 120.326 161.225 119.959 162.02C119.837 162.327 119.653 162.633 119.469 163C119.286 163.306 119.102 163.612 118.857 163.918C118.734 164.102 118.612 164.286 118.428 164.408C118.367 164.53 118.245 164.653 118.061 164.775C117.816 165.02 117.51 165.326 117.142 165.632C116.775 166 116.408 166.428 116.04 166.857C115.918 167.041 115.795 167.163 115.673 167.347C115.673 167.408 115.612 167.408 115.612 167.469C115.489 167.653 115.428 167.775 115.306 167.959C115.122 168.387 114.999 168.816 115.061 169.244V169.306H125.96V169.244Z" fill="#F4452E"/>
<path d="M126.878 170.346H125.96H114.326L114.142 169.367C114.02 168.755 114.142 168.142 114.51 167.469C114.571 167.285 114.693 167.102 114.877 166.857C114.877 166.857 114.938 166.796 114.938 166.734C115.061 166.551 115.183 166.367 115.367 166.183C115.795 165.694 116.224 165.204 116.53 164.898C116.775 164.653 117.02 164.408 117.204 164.224L117.449 164.041C117.571 163.918 117.694 163.796 117.755 163.735C117.877 163.612 118 163.428 118.122 163.306C118.306 163.061 118.49 162.755 118.673 162.449C118.857 162.143 118.979 161.837 119.102 161.592C119.347 161.041 119.53 160.674 119.592 160.49V160.429L121.061 157.184L121.735 160.429C121.796 160.612 121.98 161.041 122.225 161.592C122.347 161.898 122.531 162.143 122.653 162.449C122.837 162.755 123.021 163 123.204 163.245C123.327 163.367 123.449 163.551 123.572 163.673C123.633 163.735 123.755 163.857 123.878 163.979L124.123 164.224C124.306 164.408 124.551 164.653 124.796 164.837C125.286 165.326 125.653 165.755 125.96 166.122C126.082 166.306 126.266 166.489 126.388 166.673L126.449 166.796C126.572 167.04 126.694 167.224 126.817 167.408C127.123 168.081 127.245 168.693 127.123 169.306L126.878 170.346ZM116.591 168.142H124.612C124.612 168.081 124.551 168.081 124.551 168.02L124.49 167.898C124.368 167.775 124.306 167.591 124.184 167.469C123.939 167.163 123.572 166.796 123.204 166.367C122.959 166.122 122.776 165.938 122.592 165.755L122.347 165.51C122.163 165.326 122.041 165.204 121.918 165.081C121.735 164.898 121.612 164.714 121.49 164.53C121.245 164.224 121.061 163.857 120.816 163.49C120.755 163.428 120.755 163.367 120.755 163.306C120.755 163.367 120.694 163.428 120.694 163.428C120.449 163.857 120.204 164.163 120.02 164.469C119.898 164.653 119.714 164.837 119.592 165.02C119.469 165.143 119.347 165.265 119.163 165.449L118.918 165.632C118.734 165.816 118.49 166.061 118.245 166.306C118 166.551 117.571 166.979 117.265 167.408C117.142 167.53 117.02 167.714 116.959 167.836L116.898 167.898C116.653 168.02 116.591 168.081 116.591 168.142Z" fill="white"/>
<path d="M172.923 169.244V169.183C172.984 168.755 172.861 168.326 172.678 167.898C172.616 167.714 172.494 167.591 172.372 167.408C172.372 167.347 172.31 167.347 172.31 167.285C172.188 167.102 172.065 166.979 171.943 166.796C171.576 166.367 171.208 165.939 170.841 165.571C170.535 165.265 170.167 164.959 169.922 164.714C169.8 164.592 169.677 164.469 169.555 164.347C169.433 164.163 169.31 164.041 169.126 163.857C168.882 163.551 168.698 163.245 168.514 162.939C168.33 162.633 167.473 160.674 167.473 160.674C167.473 160.674 166.616 162.633 166.432 162.939C166.249 163.245 166.065 163.551 165.82 163.857C165.698 164.041 165.575 164.224 165.391 164.347C165.33 164.469 165.208 164.592 165.024 164.714C164.779 164.959 164.473 165.265 164.106 165.571C163.738 165.939 163.371 166.367 163.003 166.796C162.881 166.979 162.759 167.102 162.636 167.285C162.636 167.347 162.575 167.347 162.575 167.408C162.452 167.591 162.391 167.714 162.269 167.898C162.085 168.326 161.963 168.755 162.024 169.183V169.244H172.923Z" fill="#F4452E"/>
<path d="M173.841 170.346H161.289L161.167 169.428C161.044 168.755 161.167 168.142 161.473 167.469C161.595 167.285 161.656 167.102 161.84 166.857C161.84 166.796 161.901 166.734 161.901 166.734C162.024 166.551 162.146 166.367 162.33 166.183C162.758 165.694 163.187 165.204 163.493 164.898C163.738 164.653 163.922 164.469 164.167 164.286L164.412 164.041C164.534 163.918 164.657 163.857 164.718 163.735C164.84 163.612 164.963 163.428 165.085 163.306C165.269 163.061 165.453 162.755 165.636 162.449C165.698 162.327 166.187 161.225 166.616 160.306L167.596 157.98L168.575 160.306C169.004 161.225 169.494 162.327 169.555 162.51C169.739 162.816 169.922 163.061 170.106 163.306C170.228 163.428 170.351 163.612 170.473 163.735C170.535 163.796 170.657 163.918 170.78 164.041L171.024 164.286C171.208 164.469 171.453 164.714 171.698 164.959C172.188 165.449 172.555 165.877 172.861 166.245C172.984 166.428 173.168 166.612 173.29 166.796L173.351 166.918C173.474 167.102 173.596 167.347 173.719 167.53C174.025 168.204 174.147 168.816 174.025 169.428L173.841 170.346ZM163.554 168.142H171.576C171.576 168.081 171.514 168.081 171.514 168.02L171.453 167.898C171.331 167.775 171.269 167.591 171.147 167.469C170.902 167.163 170.535 166.796 170.167 166.367C169.922 166.122 169.739 165.939 169.555 165.755L169.31 165.51C169.126 165.326 169.004 165.204 168.881 165.081C168.759 164.898 168.575 164.714 168.453 164.53C168.208 164.224 168.024 163.857 167.779 163.49C167.779 163.428 167.718 163.367 167.718 163.306C167.657 163.367 167.657 163.428 167.657 163.428C167.412 163.857 167.167 164.163 166.983 164.469C166.861 164.653 166.677 164.837 166.555 165.02C166.432 165.143 166.31 165.265 166.126 165.449L165.881 165.694C165.698 165.877 165.453 166.061 165.269 166.306C165.024 166.551 164.595 166.979 164.289 167.408C164.167 167.53 164.044 167.653 163.983 167.836L163.922 167.959C163.616 168.02 163.616 168.081 163.554 168.142Z" fill="white"/>
<path d="M150.084 100.004V99.943C150.145 99.4532 150.023 98.9022 149.778 98.4124C149.655 98.2288 149.533 97.9839 149.41 97.8002C149.41 97.739 149.349 97.6778 149.349 97.6778C149.227 97.4941 149.043 97.2492 148.921 97.0656C148.492 96.5146 148.063 96.0248 147.574 95.5963C147.145 95.1678 146.778 94.8004 146.471 94.5555C146.288 94.3719 146.165 94.2495 146.043 94.127C145.859 93.9434 145.737 93.6985 145.553 93.5148C145.247 93.1475 145.002 92.7801 144.818 92.3516C144.573 91.9231 144.39 91.5557 144.206 91.1884C143.777 90.2701 143.532 89.5967 143.532 89.5967C143.532 89.5967 143.287 90.2701 142.859 91.1884C142.675 91.5557 142.492 91.9231 142.247 92.3516C142.002 92.7189 141.757 93.0863 141.512 93.4536C141.328 93.6372 141.206 93.8821 141.022 94.0658C140.9 94.1882 140.777 94.3107 140.593 94.4943C140.287 94.8004 139.92 95.1678 139.491 95.5351C139.063 95.9636 138.573 96.4534 138.144 97.0044C137.961 97.188 137.838 97.4329 137.716 97.6166C137.716 97.6778 137.654 97.739 137.654 97.739C137.532 97.9227 137.409 98.1676 137.287 98.3512C137.042 98.841 136.92 99.392 136.981 99.8817V99.943H150.084V100.004Z" fill="#4E1719"/>
<path d="M150.084 100.555H136.613L136.491 100.065C136.369 99.4532 136.491 98.841 136.797 98.1675C136.92 97.9839 137.042 97.739 137.165 97.4941L137.287 97.3717C137.409 97.188 137.593 96.9431 137.777 96.7595C138.144 96.2697 138.573 95.8412 139.124 95.229C139.43 94.9229 139.736 94.6168 140.042 94.3719L140.226 94.1882C140.41 94.0046 140.532 93.8821 140.655 93.7597C140.838 93.576 140.961 93.3924 141.083 93.2087C141.328 92.9026 141.573 92.5353 141.818 92.1067C142.002 91.7394 142.185 91.3721 142.369 91.0048C142.736 90.2089 142.92 89.6579 142.981 89.4743L143.043 89.1682L143.839 88.8621L144.083 89.4743C144.145 89.6579 144.328 90.2089 144.696 90.9435C144.879 91.3109 145.063 91.6782 145.247 92.0455C145.492 92.4741 145.737 92.7802 145.982 93.1475C146.104 93.3311 146.288 93.5148 146.471 93.7597C146.533 93.8821 146.716 94.0046 146.9 94.1882L147.145 94.4331C147.39 94.678 147.696 94.9229 147.941 95.229C148.492 95.78 148.982 96.2697 149.288 96.7595C149.472 96.9431 149.594 97.188 149.778 97.4329L149.839 97.5553C150.023 97.8002 150.145 98.0451 150.206 98.2288C150.513 98.9022 150.635 99.5144 150.574 100.065L150.513 100.616L150.084 100.555ZM149.533 99.8817L150.084 99.943L149.533 99.8817ZM137.593 99.4532H149.594C149.594 99.2083 149.472 98.9022 149.349 98.5961C149.288 98.4124 149.166 98.29 149.043 98.0451L148.982 97.9227C148.859 97.739 148.737 97.5554 148.553 97.3717C148.247 96.9431 147.818 96.5146 147.267 95.9636C146.961 95.6575 146.716 95.4126 146.471 95.1678L146.227 94.9229C146.043 94.7392 145.859 94.5556 145.737 94.4331C145.553 94.1882 145.369 94.0046 145.247 93.7597C145.002 93.3924 144.757 93.0251 144.451 92.5965C144.206 92.168 144.022 91.8006 143.839 91.3721C143.839 91.3721 143.777 91.1884 143.655 91.0048C143.594 91.1272 143.532 91.2497 143.471 91.3721C143.288 91.7394 143.104 92.168 142.859 92.5353C142.614 93.025 142.308 93.3924 142.063 93.6985C141.879 93.9433 141.757 94.127 141.573 94.3107C141.451 94.4331 141.267 94.6168 141.083 94.8004L140.9 94.9841C140.655 95.229 140.348 95.5351 139.981 95.8412C139.43 96.3922 139.001 96.8207 138.695 97.2492C138.573 97.4329 138.389 97.6166 138.267 97.8002L138.205 97.9227C138.083 98.1063 137.961 98.29 137.899 98.4736C137.716 98.9022 137.593 99.2083 137.593 99.4532Z" fill="white"/>
<path d="M159.636 115.432V102.392C159.697 101.902 159.575 101.351 159.391 100.861C159.33 100.678 159.207 100.433 159.146 100.249C159.146 100.188 159.085 100.127 159.085 100.127C158.962 99.9429 158.901 99.698 158.779 99.5144C158.472 98.9634 158.105 98.4736 157.799 98.0451C157.493 97.6165 157.248 97.3104 157.003 97.0043C156.88 96.8207 156.758 96.6982 156.697 96.5758C156.574 96.3921 156.452 96.1472 156.329 95.9636C156.146 95.5963 155.962 95.2289 155.778 94.8616C155.595 94.4331 155.472 94.0657 155.35 93.6984C155.044 92.7801 154.86 92.1067 154.86 92.1067C154.86 92.1067 154.676 92.7801 154.37 93.6984C154.248 94.0657 154.125 94.4331 153.941 94.8616C153.758 95.2289 153.574 95.5963 153.39 95.9636C153.268 96.1472 153.145 96.3921 153.023 96.5758C152.962 96.6982 152.839 96.8207 152.717 97.0043C152.472 97.3104 152.227 97.6778 151.921 98.0451C151.615 98.4736 151.247 98.9634 150.941 99.5144C150.819 99.698 150.696 99.9429 150.635 100.127C150.635 100.188 150.574 100.249 150.574 100.249C150.451 100.433 150.39 100.678 150.329 100.861C150.145 101.351 150.023 101.902 150.084 102.392C150.084 102.392 149.472 110.473 150.084 102.453L150.206 113.289L159.636 115.432Z" fill="#4E1719"/>
<path d="M160.064 116.105L149.594 113.718L149.533 106.555C149.288 106.494 149.227 106.432 149.227 105.943C149.227 105.881 149.227 105.759 149.288 105.453C149.288 105.147 149.349 104.718 149.349 104.228C149.41 103.433 149.472 102.637 149.472 102.453C149.41 101.902 149.533 101.351 149.717 100.739C149.778 100.555 149.9 100.31 150.023 100.065L150.084 99.943C150.206 99.6981 150.329 99.4532 150.451 99.2695C150.819 98.6573 151.186 98.1063 151.492 97.739C151.676 97.4941 151.86 97.188 152.043 97.0044L152.288 96.6983C152.411 96.5146 152.533 96.3922 152.594 96.2697C152.717 96.0861 152.839 95.9024 152.962 95.7187C153.145 95.4126 153.329 95.0453 153.513 94.6168C153.697 94.2495 153.819 93.8209 153.941 93.5148C154.186 92.7802 154.37 92.168 154.431 91.9843L154.799 88.7396L155.533 91.9231C155.533 91.9231 155.717 92.5965 156.023 93.5148C156.146 93.8821 156.268 94.2495 156.452 94.6168C156.636 95.0453 156.819 95.3514 157.003 95.7187C157.125 95.9024 157.248 96.0861 157.37 96.3309C157.432 96.4534 157.554 96.5758 157.676 96.7595L157.921 97.0656C158.105 97.3105 158.289 97.5554 158.472 97.8615C158.717 98.2288 159.146 98.7798 159.513 99.392C159.636 99.5756 159.758 99.8205 159.881 100.004L159.942 100.127C160.064 100.371 160.126 100.555 160.248 100.8C160.493 101.412 160.554 102.024 160.493 102.575C160.493 102.698 160.493 106.861 160.493 110.167C160.493 115.554 160.493 115.554 160.493 115.615L160.064 116.105ZM150.696 112.799L159.085 114.697C159.085 113.779 159.085 111.942 159.085 109.983C159.085 102.269 159.085 102.269 159.085 102.208C159.146 101.841 159.085 101.412 158.901 100.922C158.84 100.739 158.779 100.555 158.656 100.371C158.656 100.371 158.656 100.31 158.595 100.31V100.249C158.534 100.065 158.411 99.8817 158.289 99.6981C157.983 99.1471 157.615 98.5961 157.309 98.29C157.125 98.0451 156.942 97.739 156.758 97.5554L156.513 97.2493C156.391 97.0656 156.268 96.8819 156.146 96.7595C156.023 96.5146 155.901 96.3309 155.778 96.0861C155.595 95.7187 155.411 95.3514 155.227 94.9229C155.044 94.4943 154.921 94.127 154.799 93.8209C154.676 94.1882 154.554 94.5556 154.37 94.9229C154.186 95.3514 154.003 95.78 153.819 96.0861C153.697 96.3309 153.574 96.5146 153.452 96.6983C153.39 96.8207 153.268 97.0044 153.084 97.188L152.839 97.4941C152.656 97.739 152.472 97.9839 152.288 98.2288C152.043 98.5961 151.676 99.0859 151.37 99.6369C151.247 99.8205 151.125 100.004 151.064 100.188L151.002 100.31C150.941 100.494 150.819 100.678 150.758 100.861C150.574 101.351 150.513 101.78 150.574 102.147C150.574 102.147 150.574 102.147 150.574 102.269L150.696 112.799Z" fill="white"/>
<path d="M136.981 102.392V102.331C137.042 101.841 136.981 101.29 136.797 100.8C136.736 100.616 136.613 100.372 136.552 100.188C136.552 100.127 136.491 100.065 136.491 100.065C136.368 99.8817 136.307 99.6369 136.185 99.4532C135.879 98.9022 135.572 98.4125 135.266 97.9839C134.96 97.5554 134.715 97.2493 134.47 96.9432C134.348 96.7595 134.225 96.6371 134.164 96.5146C134.042 96.331 133.919 96.0861 133.797 95.9024C133.613 95.5351 133.429 95.1678 133.246 94.8004C133.062 94.3719 132.94 94.0046 132.817 93.6373C132.511 92.719 132.327 92.0455 132.327 92.0455C132.327 92.0455 132.144 92.719 131.838 93.6373C131.715 94.0046 131.593 94.3719 131.409 94.8004C131.225 95.1678 131.103 95.5351 130.858 95.9024C130.735 96.0861 130.613 96.331 130.49 96.5146C130.429 96.6371 130.307 96.7595 130.184 96.9432C130.001 97.2493 129.695 97.6166 129.388 97.9839C129.082 98.4125 128.715 98.9022 128.47 99.4532C128.347 99.6369 128.225 99.8817 128.164 100.065C128.164 100.127 128.103 100.188 128.103 100.188C127.98 100.372 127.919 100.616 127.858 100.8C127.674 101.29 127.613 101.841 127.674 102.331V102.392V115.983L136.92 113.044L136.981 102.392Z" fill="#4E1719"/>
<path d="M127.184 116.779L127.245 102.453V102.392C127.184 101.841 127.245 101.29 127.49 100.616C127.551 100.433 127.613 100.188 127.735 99.943L127.796 99.8205C127.919 99.5756 128.041 99.3308 128.164 99.1471C128.47 98.5961 128.837 98.0451 129.143 97.6166C129.327 97.3717 129.511 97.1268 129.694 96.882L129.939 96.5758C130.062 96.3922 130.184 96.2697 130.246 96.1473C130.368 95.9636 130.49 95.78 130.552 95.5963C130.735 95.2902 130.858 94.9229 131.042 94.4943C131.164 94.127 131.348 93.7597 131.47 93.3924C131.776 92.4741 131.96 91.8006 131.96 91.8006L132.756 88.4948L133.001 91.8619C133.062 92.0455 133.185 92.5965 133.429 93.3924C133.552 93.7597 133.674 94.127 133.858 94.4943C134.042 94.8617 134.164 95.229 134.348 95.5963C134.47 95.78 134.532 96.0249 134.654 96.2085C134.715 96.331 134.838 96.4534 134.96 96.6371L135.205 96.9432C135.389 97.188 135.573 97.4329 135.756 97.6778C136.062 98.1064 136.43 98.5961 136.736 99.2083C136.858 99.392 136.981 99.6369 137.042 99.8205L137.103 99.943C137.226 100.188 137.287 100.371 137.348 100.616C137.593 101.229 137.654 101.841 137.593 102.392H137.042H137.593V113.473L127.184 116.779ZM132.389 93.8821C132.266 94.1882 132.144 94.5556 132.021 94.9229C131.837 95.4127 131.654 95.78 131.47 96.0861C131.348 96.331 131.225 96.5146 131.103 96.6983C131.042 96.8207 130.919 97.0044 130.797 97.1881L130.552 97.4942C130.368 97.739 130.246 97.9227 130.062 98.2288C129.817 98.5961 129.45 99.0859 129.143 99.6369C129.021 99.8205 128.96 100.004 128.837 100.188L128.776 100.31C128.654 100.555 128.592 100.678 128.531 100.861C128.347 101.351 128.286 101.78 128.347 102.147V102.269V115.126L136.43 112.677V102.392V102.269C136.491 101.902 136.43 101.473 136.246 100.984C136.185 100.8 136.124 100.616 136.001 100.433L135.94 100.372C135.817 100.127 135.756 99.943 135.634 99.7593C135.328 99.2083 135.021 98.7186 134.715 98.3512C134.532 98.1064 134.348 97.8615 134.164 97.6166L133.919 97.3105C133.797 97.1268 133.674 96.9432 133.613 96.8207C133.491 96.5758 133.368 96.3922 133.246 96.1473C133.062 95.78 132.878 95.4127 132.695 94.9841C132.572 94.5556 132.45 94.1882 132.389 93.8821Z" fill="white"/>
<path d="M143.594 156.082C135.94 156.082 129.694 149.838 129.694 142.185C129.694 134.532 135.94 128.288 143.594 128.288C151.247 128.288 157.493 134.532 157.493 142.185C157.431 149.899 151.247 156.082 143.594 156.082Z" fill="#4E1719"/>
<path d="M143.594 129.268C150.758 129.268 156.574 135.083 156.574 142.246C156.574 149.409 150.758 155.225 143.594 155.225C136.43 155.225 130.613 149.409 130.613 142.246C130.613 135.083 136.43 129.268 143.594 129.268ZM143.594 127.431C135.45 127.431 128.776 134.043 128.776 142.246C128.776 150.389 135.389 157.062 143.594 157.062C151.798 157.062 158.411 150.45 158.411 142.246C158.35 134.104 151.737 127.431 143.594 127.431Z" fill="#FFB733"/>
<path d="M160.064 118.493L150.88 115.554H136.307L127.123 118.493V115.309L136.307 112.309H150.88L160.064 115.309V118.493Z" fill="white"/>
<path d="M133.552 112.187L129.878 113.718V115.432L133.552 113.962V112.187Z" fill="white"/>
<path d="M157.676 113.718L154.064 112.187V113.962L157.676 115.432V113.718Z" fill="white"/>
<path d="M137.838 99.1471H136.307V113.289H137.838V99.1471Z" fill="white"/>
<path d="M150.88 99.1471H149.349V113.289H150.88V99.1471Z" fill="white"/>
<path d="M149.349 99.1471H137.838V112.371H149.349V99.1471Z" fill="#4E1719"/>
<path d="M146.165 110.718H141.267V113.901H146.165V110.718Z" fill="white"/>
<path d="M139.92 10.7448L135.756 7.07162L141.267 6.03087L143.471 0.949585L146.165 5.78599L151.676 6.39819L147.88 10.4387L149.043 15.8873L144.022 13.4998L139.185 16.2547L139.92 10.7448Z" fill="#DD3D14"/>
<path d="M145.982 210.446V214.486H141.818V210.446C141.818 209.282 142.736 208.364 143.9 208.364C144.451 208.364 145.002 208.609 145.369 208.976C145.737 209.344 145.982 209.895 145.982 210.446Z" fill="#4E1719"/>
<path d="M135.634 210.446V214.486H131.47V210.446C131.47 209.282 132.389 208.364 133.552 208.364C134.103 208.364 134.654 208.609 135.022 208.976C135.389 209.344 135.634 209.895 135.634 210.446Z" fill="#4E1719"/>
<path d="M125.347 210.446V214.486H121.184V210.446C121.184 209.282 122.102 208.364 123.265 208.364C123.816 208.364 124.368 208.609 124.735 208.976C125.102 209.344 125.347 209.895 125.347 210.446Z" fill="#4E1719"/>
<path d="M165.881 210.446V214.486H161.718V210.446C161.718 209.282 162.636 208.364 163.799 208.364C164.35 208.364 164.901 208.609 165.269 208.976C165.636 209.344 165.881 209.895 165.881 210.446Z" fill="#4E1719"/>
<path d="M155.595 210.446V214.486H151.431V210.446C151.431 209.282 152.349 208.364 153.513 208.364C154.064 208.364 154.615 208.609 154.982 208.976C155.35 209.344 155.595 209.895 155.595 210.446Z" fill="#4E1719"/>
<path d="M107.346 167.53L110.53 143.042L113.652 167.53" fill="white"/>
<path d="M141.42 141.873L141.272 142.467L154.758 145.828L154.906 145.234L141.42 141.873Z" fill="#FFB733"/>
<path d="M143.226 140.593L143.838 140.41L145.798 149.409L145.186 149.531L143.226 140.593Z" fill="#FFB733"/>
<path d="M173.045 226.608H113.836V250.851H173.045V226.608Z" fill="#4E1719"/>
<path d="M118.367 232.485L117.877 234.077L117.449 232.546C117.081 231.199 115.857 230.281 114.51 230.281V234.138V234.689V273.013H121.429V234.689V234.138V230.281H121.367C119.959 230.281 118.796 231.138 118.367 232.485Z" fill="#F25F5F"/>
<path d="M131.042 232.485L130.552 234.077L130.123 232.546C129.756 231.199 128.531 230.281 127.184 230.281V234.138V234.689V273.013H134.103V234.689V234.138V230.281H133.981C132.634 230.281 131.409 231.138 131.042 232.485Z" fill="#F25F5F"/>
<path d="M143.655 232.485L143.165 234.077L142.736 232.546C142.369 231.199 141.144 230.281 139.797 230.281V234.138V234.689V273.013H146.716V234.689V234.138V230.281H146.655C145.247 230.281 144.083 231.138 143.655 232.485Z" fill="#F25F5F"/>
<path d="M168.943 232.485L168.453 234.077L168.024 232.546C167.657 231.199 166.432 230.281 165.085 230.281V234.138V234.689V273.013H172.004V234.689V234.138V230.281H171.943C170.596 230.281 169.371 231.138 168.943 232.485Z" fill="#F25F5F"/>
<path d="M156.329 232.485L155.84 234.077L155.411 232.546C155.044 231.199 153.819 230.281 152.472 230.281V234.138V234.689V273.013H159.391V234.689V234.138V230.281H159.33C157.921 230.281 156.758 231.138 156.329 232.485Z" fill="#F25F5F"/>
<path d="M179.842 212.772H107.285V214.486H179.842V212.772Z" fill="white"/>
<path d="M113.53 167.224H107.285V308.643H113.53V167.224Z" fill="#E23834"/>
<path d="M172.494 167.898L175.617 143.409L178.801 167.898" fill="white"/>
<path d="M179.719 167.53H173.474V308.643H179.719V167.53Z" fill="#E23834"/>
<path d="M173.78 167.53H171.882V308.643H173.78V167.53Z" fill="#E23834"/>
<path d="M171.882 247.913H114.265V308.582H171.882V247.913Z" fill="#F25F5F"/>
<path d="M171.882 260.279H113.591V261.993H171.882V260.279Z" fill="white"/>
<path d="M115.244 167.53H113.346V308.643H115.244V167.53Z" fill="#E23834"/>
<path d="M185.413 287.89H103.856V308.888H185.413V287.89Z" fill="white"/>
<path d="M152.411 279.992V308.949H133.919V279.992C133.919 274.911 138.022 270.748 143.165 270.748C145.675 270.748 148.063 271.789 149.717 273.441C151.37 275.094 152.411 277.482 152.411 279.992Z" fill="#4E1719"/>
<path d="M113.346 289.787H107.285V308.582H113.346V289.787Z" fill="white"/>
<path d="M115.244 300.072H105.693V308.643H115.244V300.072Z" fill="white"/>
<path d="M181.434 300.072H171.882V308.643H181.434V300.072Z" fill="white"/>
<path d="M179.719 289.787H173.474V308.582H179.719V289.787Z" fill="white"/>
<path d="M179.597 167.53H158.289V170.959H179.597V167.53Z" fill="#E23834"/>
<path d="M128.837 167.53H107.285V170.959H128.837V167.53Z" fill="#E23834"/>
<path d="M127.429 166.857C127.306 166.673 127.184 166.428 127.062 166.245C127.062 166.183 127 166.122 127 166.122C126.878 165.938 126.694 165.694 126.572 165.51C126.143 164.959 125.715 164.469 125.225 164.041C124.796 163.612 124.429 163.245 124.123 163C123.939 162.816 123.816 162.694 123.694 162.571C123.51 162.388 123.388 162.143 123.204 161.959C122.898 161.592 122.653 161.224 122.469 160.796C122.224 160.367 122.041 160 121.857 159.633C121.428 158.714 121.184 158.041 121.184 158.041C121.184 158.041 120.939 158.714 120.51 159.633C120.326 160 120.143 160.367 119.898 160.796C119.653 161.163 119.408 161.531 119.163 161.898C118.979 162.082 118.857 162.326 118.673 162.51C118.551 162.633 118.428 162.755 118.245 162.939C117.938 163.245 117.571 163.612 117.142 163.979C116.714 164.408 116.224 164.898 115.795 165.449C115.612 165.632 115.489 165.877 115.367 166.061C115.367 166.122 115.306 166.183 115.306 166.183C115.183 166.367 115.061 166.612 114.938 166.796C114.693 167.285 114.571 167.836 114.632 168.326V168.387H115.428V180.754H126.939V168.387H127.674V168.326C127.796 167.897 127.674 167.408 127.429 166.857Z" fill="#4E1719"/>
<path d="M127.551 181.366H114.938V168.999H114.265L114.142 168.51C114.02 167.897 114.142 167.285 114.448 166.612C114.571 166.428 114.693 166.183 114.816 165.938L114.877 165.816C114.999 165.632 115.183 165.387 115.367 165.204C115.734 164.714 116.163 164.285 116.714 163.673C117.081 163.367 117.387 163 117.632 162.755L117.816 162.571C118 162.388 118.122 162.265 118.245 162.143C118.428 161.959 118.551 161.775 118.673 161.592C118.918 161.286 119.163 160.918 119.408 160.49C119.592 160.122 119.775 159.755 119.959 159.388C120.326 158.592 120.51 158.041 120.571 157.857L120.633 157.551L121.428 157.245L121.673 157.857C121.735 158.041 121.918 158.592 122.286 159.327C122.469 159.694 122.653 160.061 122.837 160.429C123.082 160.796 123.327 161.163 123.572 161.531C123.694 161.714 123.878 161.898 124.061 162.143C124.123 162.265 124.306 162.388 124.49 162.571L124.735 162.816C124.98 163.061 125.286 163.306 125.531 163.612C126.082 164.163 126.572 164.653 126.878 165.143C127.062 165.326 127.184 165.571 127.368 165.816L127.429 165.938C127.613 166.183 127.735 166.428 127.796 166.612C128.103 167.285 128.225 167.897 128.164 168.448L128.103 168.999H127.429V181.366H127.551ZM116.04 180.264H126.449V167.897H127.184C127.184 167.653 127.062 167.346 126.939 167.04C126.878 166.857 126.755 166.734 126.633 166.489L126.572 166.367C126.449 166.183 126.327 166 126.143 165.816C125.837 165.387 125.408 164.959 124.857 164.408C124.551 164.102 124.306 163.857 124.061 163.612L123.816 163.367C123.633 163.183 123.449 163 123.327 162.877C123.143 162.633 122.959 162.449 122.837 162.204C122.592 161.837 122.347 161.469 122.041 161.041C121.796 160.612 121.612 160.245 121.428 159.816C121.428 159.816 121.367 159.633 121.245 159.449C121.184 159.571 121.122 159.694 121.061 159.816C120.877 160.184 120.694 160.612 120.449 160.98C120.204 161.469 119.898 161.837 119.653 162.143C119.469 162.388 119.347 162.571 119.163 162.755C119.041 162.877 118.857 163.061 118.673 163.245L118.489 163.428C118.245 163.673 117.877 163.979 117.571 164.347C117.02 164.898 116.591 165.326 116.285 165.755C116.163 165.938 115.979 166.122 115.857 166.306L115.795 166.428C115.673 166.612 115.55 166.796 115.489 166.979C115.367 167.285 115.244 167.53 115.244 167.836H116.04V180.264Z" fill="white"/>
<path d="M142.92 166.857C142.798 166.673 142.675 166.428 142.553 166.245C142.553 166.183 142.491 166.122 142.491 166.122C142.369 165.938 142.185 165.694 142.063 165.51C141.634 164.959 141.206 164.469 140.716 164.041C140.287 163.612 139.92 163.245 139.614 163C139.43 162.816 139.308 162.694 139.185 162.571C139.001 162.388 138.879 162.143 138.695 161.959C138.389 161.592 138.144 161.224 137.961 160.796C137.716 160.367 137.532 160 137.348 159.633C136.92 158.714 136.675 158.041 136.675 158.041C136.675 158.041 136.43 158.714 136.001 159.633C135.817 160 135.634 160.367 135.389 160.796C135.144 161.163 134.899 161.531 134.654 161.898C134.47 162.082 134.348 162.326 134.164 162.51C134.042 162.633 133.919 162.755 133.736 162.939C133.43 163.245 133.062 163.612 132.634 163.979C132.205 164.408 131.715 164.898 131.286 165.449C131.103 165.632 130.98 165.877 130.858 166.061C130.858 166.122 130.797 166.183 130.797 166.183C130.674 166.367 130.552 166.612 130.429 166.796C130.184 167.285 130.062 167.836 130.123 168.326V168.387H130.919V180.754H142.43V168.387H143.165V168.326C143.349 167.897 143.165 167.408 142.92 166.857Z" fill="#4E1719"/>
<path d="M143.043 181.366H130.429V168.999H129.756L129.633 168.51C129.511 167.897 129.633 167.285 129.939 166.612C130.062 166.428 130.184 166.183 130.307 165.938L130.368 165.816C130.49 165.632 130.674 165.387 130.858 165.204C131.225 164.714 131.654 164.285 132.205 163.673C132.572 163.367 132.878 163 133.123 162.755L133.307 162.571C133.491 162.388 133.613 162.265 133.736 162.143C133.919 161.959 134.042 161.775 134.164 161.592C134.409 161.286 134.654 160.918 134.899 160.49C135.083 160.122 135.266 159.755 135.45 159.388C135.817 158.592 136.001 158.041 136.062 157.857L136.124 157.551L136.92 157.245L137.165 157.857C137.226 158.041 137.409 158.592 137.777 159.327C137.96 159.694 138.144 160.061 138.328 160.429C138.573 160.796 138.818 161.163 139.063 161.531C139.185 161.714 139.369 161.898 139.552 162.143C139.614 162.265 139.797 162.388 139.981 162.571L140.226 162.816C140.471 163.061 140.777 163.306 141.022 163.612C141.573 164.163 142.063 164.653 142.369 165.143C142.553 165.326 142.675 165.571 142.859 165.816L142.92 165.938C143.104 166.183 143.226 166.428 143.287 166.612C143.594 167.285 143.716 167.897 143.655 168.448L143.594 168.999H142.92V181.366H143.043ZM131.531 180.264H141.94V167.897H142.675C142.675 167.653 142.553 167.346 142.43 167.04C142.369 166.857 142.247 166.734 142.124 166.489L142.063 166.367C141.94 166.183 141.818 166 141.634 165.816C141.328 165.387 140.9 164.959 140.348 164.408C140.042 164.102 139.797 163.857 139.552 163.612L139.308 163.367C139.124 163.183 138.94 163 138.818 162.877C138.634 162.633 138.45 162.449 138.328 162.204C138.083 161.837 137.838 161.469 137.532 161.041C137.287 160.612 137.103 160.245 136.92 159.816C136.92 159.816 136.858 159.633 136.736 159.449C136.675 159.571 136.613 159.694 136.552 159.816C136.369 160.184 136.185 160.612 135.94 160.98C135.695 161.469 135.389 161.837 135.144 162.143C134.96 162.388 134.838 162.571 134.654 162.755C134.532 162.877 134.348 163.061 134.164 163.245L133.981 163.428C133.736 163.673 133.368 163.979 133.062 164.347C132.511 164.898 132.082 165.326 131.776 165.755C131.654 165.938 131.47 166.122 131.348 166.306L131.286 166.428C131.164 166.612 131.042 166.796 130.98 166.979C130.858 167.285 130.735 167.53 130.735 167.836H131.531V180.264Z" fill="white"/>
<path d="M158.411 166.857C158.289 166.673 158.166 166.428 158.044 166.245C158.044 166.183 157.983 166.122 157.983 166.122C157.86 165.938 157.676 165.694 157.554 165.51C157.125 164.959 156.697 164.469 156.207 164.041C155.778 163.612 155.411 163.245 155.105 163C154.921 162.816 154.799 162.694 154.676 162.571C154.492 162.388 154.37 162.143 154.186 161.959C153.88 161.592 153.635 161.224 153.452 160.796C153.207 160.367 153.023 160 152.839 159.633C152.411 158.714 152.166 158.041 152.166 158.041C152.166 158.041 151.921 158.714 151.492 159.633C151.309 160 151.125 160.367 150.88 160.796C150.635 161.163 150.39 161.531 150.145 161.898C149.961 162.082 149.839 162.326 149.655 162.51C149.533 162.633 149.41 162.755 149.227 162.939C148.921 163.245 148.553 163.612 148.125 163.979C147.696 164.408 147.206 164.898 146.778 165.449C146.594 165.632 146.471 165.877 146.349 166.061C146.349 166.122 146.288 166.183 146.288 166.183C146.165 166.367 146.043 166.612 145.92 166.796C145.675 167.285 145.553 167.836 145.614 168.326V168.387H146.41V180.754H157.921V168.387H158.656V168.326C158.84 167.897 158.717 167.408 158.411 166.857Z" fill="#4E1719"/>
<path d="M158.534 181.366H145.92V168.999H145.247L145.124 168.51C145.002 167.897 145.124 167.285 145.43 166.612C145.553 166.428 145.675 166.183 145.798 165.938L145.859 165.816C145.982 165.632 146.165 165.387 146.349 165.204C146.716 164.714 147.145 164.285 147.696 163.673C148.063 163.367 148.369 163 148.614 162.755L148.798 162.571C148.982 162.388 149.104 162.265 149.227 162.143C149.41 161.959 149.533 161.775 149.655 161.592C149.9 161.286 150.145 160.918 150.39 160.49C150.574 160.122 150.757 159.755 150.941 159.388C151.309 158.592 151.492 158.041 151.553 157.857L151.615 157.551L152.411 157.245L152.656 157.857C152.717 158.041 152.9 158.592 153.268 159.327C153.452 159.694 153.635 160.061 153.819 160.429C154.064 160.796 154.309 161.163 154.554 161.531C154.676 161.714 154.86 161.898 155.044 162.143C155.105 162.265 155.288 162.388 155.472 162.571L155.717 162.816C155.962 163.061 156.268 163.306 156.513 163.612C157.064 164.163 157.554 164.653 157.86 165.143C158.044 165.326 158.166 165.571 158.35 165.816L158.411 165.938C158.595 166.183 158.717 166.428 158.779 166.612C159.085 167.285 159.207 167.897 159.146 168.448L159.085 168.999H158.411V181.366H158.534ZM147.022 180.264H157.431V167.897H158.166C158.166 167.653 158.044 167.346 157.921 167.04C157.86 166.857 157.738 166.734 157.615 166.489L157.554 166.367C157.431 166.183 157.309 166 157.125 165.816C156.819 165.387 156.391 164.959 155.84 164.408C155.533 164.102 155.288 163.857 155.044 163.612L154.799 163.367C154.615 163.183 154.431 163 154.309 162.877C154.125 162.633 153.941 162.449 153.819 162.204C153.574 161.837 153.329 161.469 153.023 161.041C152.778 160.612 152.594 160.245 152.411 159.816C152.411 159.816 152.349 159.633 152.227 159.449C152.166 159.571 152.104 159.694 152.043 159.816C151.86 160.184 151.676 160.612 151.431 160.98C151.186 161.469 150.88 161.837 150.635 162.143C150.451 162.388 150.329 162.571 150.145 162.755C150.023 162.877 149.839 163.061 149.655 163.245L149.472 163.428C149.227 163.673 148.859 163.979 148.553 164.347C148.002 164.898 147.574 165.326 147.267 165.755C147.145 165.938 146.961 166.122 146.839 166.306L146.778 166.428C146.655 166.612 146.533 166.796 146.471 166.979C146.349 167.285 146.226 167.53 146.226 167.836H147.022V180.264Z" fill="white"/>
<path d="M173.963 166.857C173.841 166.673 173.719 166.428 173.596 166.245C173.596 166.183 173.535 166.122 173.535 166.122C173.412 165.938 173.229 165.694 173.106 165.51C172.678 164.959 172.249 164.469 171.759 164.041C171.331 163.612 170.963 163.245 170.657 163C170.473 162.816 170.351 162.694 170.228 162.571C170.045 162.388 169.922 162.143 169.739 161.959C169.432 161.592 169.188 161.224 169.004 160.796C168.759 160.367 168.575 160 168.392 159.633C167.963 158.714 167.718 158.041 167.718 158.041C167.718 158.041 167.473 158.714 167.045 159.633C166.861 160 166.677 160.367 166.432 160.796C166.187 161.163 165.942 161.531 165.697 161.898C165.514 162.082 165.391 162.326 165.208 162.51C165.085 162.633 164.963 162.755 164.779 162.939C164.473 163.245 164.105 163.612 163.677 163.979C163.248 164.408 162.758 164.898 162.33 165.449C162.146 165.632 162.024 165.877 161.901 166.061C161.901 166.122 161.84 166.183 161.84 166.183C161.718 166.367 161.595 166.612 161.473 166.796C161.228 167.285 161.105 167.836 161.166 168.326V168.387H161.962V180.754H173.474V168.387H174.208V168.326C174.331 167.897 174.208 167.408 173.963 166.857Z" fill="#4E1719"/>
<path d="M174.025 181.366H161.411V168.999H160.738L160.615 168.51C160.493 167.897 160.615 167.285 160.922 166.612C161.044 166.428 161.166 166.183 161.289 165.938L161.35 165.816C161.473 165.632 161.656 165.387 161.84 165.204C162.207 164.714 162.636 164.285 163.187 163.673C163.554 163.367 163.861 163 164.105 162.755L164.289 162.571C164.473 162.388 164.595 162.265 164.718 162.143C164.901 161.959 165.024 161.775 165.146 161.592C165.391 161.286 165.636 160.918 165.881 160.49C166.065 160.122 166.249 159.755 166.432 159.388C166.8 158.592 166.983 158.041 167.045 157.857L167.106 157.551L167.902 157.245L168.147 157.857C168.208 158.041 168.392 158.592 168.759 159.327C168.943 159.694 169.126 160.061 169.31 160.429C169.555 160.796 169.8 161.163 170.045 161.531C170.167 161.714 170.351 161.898 170.535 162.143C170.596 162.265 170.78 162.388 170.963 162.571L171.208 162.816C171.453 163.061 171.759 163.306 172.004 163.612C172.555 164.163 173.045 164.653 173.351 165.143C173.535 165.326 173.657 165.571 173.841 165.816L173.902 165.938C174.086 166.183 174.208 166.428 174.27 166.612C174.576 167.285 174.698 167.897 174.637 168.448L174.576 168.999H173.902V181.366H174.025ZM162.514 180.264H172.923V167.897H173.657C173.657 167.653 173.535 167.346 173.412 167.04C173.351 166.857 173.229 166.734 173.106 166.489L173.045 166.367C172.923 166.183 172.8 166 172.616 165.816C172.31 165.387 171.882 164.959 171.331 164.408C171.024 164.102 170.78 163.857 170.535 163.612L170.29 163.367C170.106 163.183 169.922 163 169.8 162.877C169.616 162.633 169.432 162.449 169.31 162.204C169.065 161.837 168.82 161.469 168.514 161.041C168.269 160.612 168.085 160.245 167.902 159.816C167.902 159.816 167.84 159.633 167.718 159.449C167.657 159.571 167.596 159.694 167.534 159.816C167.351 160.184 167.167 160.612 166.922 160.98C166.677 161.469 166.371 161.837 166.126 162.143C165.942 162.388 165.82 162.571 165.636 162.755C165.514 162.877 165.33 163.061 165.146 163.245L164.963 163.428C164.718 163.673 164.35 163.979 164.044 164.347C163.493 164.898 163.065 165.326 162.758 165.755C162.636 165.938 162.452 166.122 162.33 166.306L162.269 166.428C162.146 166.612 162.024 166.796 161.962 166.979C161.84 167.285 161.718 167.53 161.718 167.836H162.514V180.264Z" fill="white"/>
<path d="M125.47 200.834H121.367V192.508C121.367 191.406 122.286 190.488 123.388 190.488C124.49 190.488 125.408 191.406 125.408 192.508V200.834H125.47Z" fill="#4E1719"/>
<path d="M135.511 200.834H131.409V192.508C131.409 191.406 132.327 190.488 133.429 190.488C134.532 190.488 135.45 191.406 135.45 192.508V200.834H135.511Z" fill="#4E1719"/>
<path d="M145.614 200.834H141.512V192.508C141.512 191.406 142.43 190.488 143.532 190.488C144.635 190.488 145.553 191.406 145.553 192.508V200.834H145.614Z" fill="#4E1719"/>
<path d="M155.656 200.834H151.553V192.508C151.553 191.406 152.472 190.488 153.574 190.488C154.676 190.488 155.595 191.406 155.595 192.508V200.834H155.656Z" fill="#4E1719"/>
<path d="M165.759 200.834H161.656V192.508C161.656 191.406 162.575 190.488 163.677 190.488C164.779 190.488 165.697 191.406 165.697 192.508V200.834H165.759Z" fill="#4E1719"/>
</svg>
