<svg width="243" height="184" viewBox="0 0 243 184" fill="none" xmlns="http://www.w3.org/2000/svg">
<path d="M236.022 183.205C282.979 183.205 321.045 145.103 321.045 98.1026C321.045 51.1017 282.979 13 236.022 13C189.066 13 151 51.1017 151 98.1026C151 145.103 189.066 183.205 236.022 183.205Z" fill="white"/>
<path d="M137.5 87C160.42 87 179 68.4198 179 45.5C179 22.5802 160.42 4 137.5 4C114.58 4 96 22.5802 96 45.5C96 68.4198 114.58 87 137.5 87Z" fill="white"/>
<path d="M22.5 45C34.9264 45 45 34.9264 45 22.5C45 10.0736 34.9264 0 22.5 0C10.0736 0 0 10.0736 0 22.5C0 34.9264 10.0736 45 22.5 45Z" fill="white"/>
</svg>
