<svg width="780" height="86" viewBox="0 0 780 86" fill="none" xmlns="http://www.w3.org/2000/svg">
<path d="M51.696 2.184V17.736C38.256 30.152 31.536 46.952 31.536 68.136V69H10.32C10.32 64.776 11.216 59.304 13.008 52.584C14.864 45.864 17.552 39.528 21.072 33.576C24.592 27.56 28.272 22.536 32.112 18.504H0.144V2.184H51.696ZM112.556 19.176V31.56C112.556 33.928 113.004 35.784 113.9 37.128C114.86 38.472 116.652 39.144 119.276 39.144C121.196 39.144 122.956 38.792 124.556 38.088V19.176H143.564V69H124.556V49.992C120.588 51.592 116.3 52.392 111.692 52.392C105.42 52.392 100.812 50.792 97.8675 47.592C94.9875 44.328 93.5475 39.496 93.5475 33.096V19.176H112.556ZM167.693 19.176L175.661 47.784H175.853L183.917 19.176H203.597L185.549 69.672C183.245 76.136 180.461 80.328 177.197 82.248C173.997 84.168 169.357 85.128 163.277 85.128H152.141V69.96H159.821C162.701 69.96 164.141 68.616 164.141 65.928C164.141 65.096 163.501 62.888 162.221 59.304C160.941 55.72 155.981 42.344 147.341 19.176H167.693ZM256.214 19.176V54.792H262.646V82.152H245.174V69H218.678V82.152H201.206V54.792H206.678C208.534 52.104 210.006 48.168 211.094 42.984C212.182 37.736 212.726 32.68 212.726 27.816V19.176H256.214ZM238.166 54.792V32.904H229.238C229.238 37.192 228.79 41.384 227.894 45.48C227.062 49.512 226.102 52.616 225.014 54.792H238.166ZM292.91 17.928C311.726 17.928 321.134 28.072 321.134 48.36H284.654C284.974 51.56 285.966 53.992 287.63 55.656C289.358 57.256 291.598 58.056 294.35 58.056C298.126 58.056 300.782 56.872 302.318 54.504H320.078C318.222 59.624 314.99 63.528 310.382 66.216C305.774 68.904 300.462 70.248 294.446 70.248C286.062 70.248 279.31 67.912 274.19 63.24C269.07 58.568 266.51 52.232 266.51 44.232C266.51 36.744 268.974 30.504 273.902 25.512C278.83 20.456 285.166 17.928 292.91 17.928ZM302.894 38.472C302.894 36.104 302.094 34.12 300.494 32.52C298.894 30.92 296.878 30.12 294.446 30.12C288.942 30.12 285.71 32.904 284.75 38.472H302.894ZM353.954 17.928C361.122 17.928 366.978 19.656 371.522 23.112C376.066 26.568 378.658 31.56 379.298 38.088H361.25C361.058 35.912 360.322 34.312 359.042 33.288C357.762 32.264 356.194 31.752 354.338 31.752C351.714 31.752 349.666 32.648 348.194 34.44C346.722 36.232 345.986 39.464 345.986 44.136C345.986 48.744 346.69 51.944 348.098 53.736C349.506 55.528 351.554 56.424 354.242 56.424C356.162 56.424 357.794 55.784 359.138 54.504C360.546 53.16 361.41 51.368 361.73 49.128H379.874C379.042 55.464 376.29 60.584 371.618 64.488C366.946 68.328 361.058 70.248 353.954 70.248C346.146 70.248 339.682 67.784 334.562 62.856C329.506 57.928 326.978 51.688 326.978 44.136C326.978 36.52 329.506 30.248 334.562 25.32C339.682 20.392 346.146 17.928 353.954 17.928ZM456.128 0.455996C463.232 0.455996 469.088 2.664 473.696 7.08C478.304 11.496 480.608 17.096 480.608 23.88C480.608 31.752 478.24 37.8 473.504 42.024C468.768 46.184 461.984 48.264 453.152 48.264H441.248V69H420.128V0.455996H456.128ZM450.08 31.944C453.792 31.944 456.48 31.4 458.144 30.312C459.808 29.224 460.64 27.336 460.64 24.648C460.64 22.472 460 20.84 458.72 19.752C457.44 18.6 454.944 18.024 451.232 18.024H441.248V31.944H450.08ZM512.49 17.928C520.746 17.928 527.338 20.296 532.266 25.032C537.194 29.768 539.658 36.104 539.658 44.04C539.658 52.104 537.194 58.504 532.266 63.24C527.338 67.912 520.746 70.248 512.49 70.248C504.234 70.248 497.642 67.88 492.714 63.144C487.786 58.408 485.322 52.04 485.322 44.04C485.322 36.104 487.754 29.768 492.618 25.032C497.546 20.296 504.17 17.928 512.49 17.928ZM504.33 44.04C504.33 52.296 507.05 56.424 512.49 56.424C515.178 56.424 517.194 55.464 518.538 53.544C519.946 51.624 520.65 48.456 520.65 44.04C520.65 39.624 519.946 36.488 518.538 34.632C517.194 32.712 515.146 31.752 512.394 31.752C507.018 31.752 504.33 35.848 504.33 44.04ZM572.767 17.928C579.935 17.928 585.791 19.656 590.335 23.112C594.879 26.568 597.471 31.56 598.111 38.088H580.063C579.871 35.912 579.135 34.312 577.855 33.288C576.575 32.264 575.007 31.752 573.151 31.752C570.527 31.752 568.479 32.648 567.007 34.44C565.535 36.232 564.799 39.464 564.799 44.136C564.799 48.744 565.503 51.944 566.911 53.736C568.319 55.528 570.367 56.424 573.055 56.424C574.975 56.424 576.607 55.784 577.951 54.504C579.359 53.16 580.223 51.368 580.543 49.128H598.687C597.855 55.464 595.103 60.584 590.431 64.488C585.759 68.328 579.871 70.248 572.767 70.248C564.959 70.248 558.495 67.784 553.375 62.856C548.319 57.928 545.791 51.688 545.791 44.136C545.791 36.52 548.319 30.248 553.375 25.32C558.495 20.392 564.959 17.928 572.767 17.928ZM631.454 17.928C638.622 17.928 644.478 19.656 649.022 23.112C653.566 26.568 656.158 31.56 656.798 38.088H638.75C638.558 35.912 637.822 34.312 636.542 33.288C635.262 32.264 633.694 31.752 631.838 31.752C629.214 31.752 627.166 32.648 625.694 34.44C624.222 36.232 623.486 39.464 623.486 44.136C623.486 48.744 624.19 51.944 625.598 53.736C627.006 55.528 629.054 56.424 631.742 56.424C633.662 56.424 635.294 55.784 636.638 54.504C638.046 53.16 638.91 51.368 639.23 49.128H657.374C656.542 55.464 653.79 60.584 649.118 64.488C644.446 68.328 638.558 70.248 631.454 70.248C623.646 70.248 617.182 67.784 612.062 62.856C607.006 57.928 604.478 51.688 604.478 44.136C604.478 36.52 607.006 30.248 612.062 25.32C617.182 20.392 623.646 17.928 631.454 17.928ZM683.518 19.176V45.192H683.806L698.11 19.176H717.118V69H698.878V42.312H698.59L684.286 69H665.278V19.176H683.518ZM745.768 19.176V45.192H746.056L760.36 19.176H779.368V69H761.128V42.312H760.84L746.536 69H727.528V19.176H745.768Z" fill="white"/>
</svg>
