<svg width="250" height="452" viewBox="0 0 250 452" fill="none" xmlns="http://www.w3.org/2000/svg">
<path d="M125 336.837C194.036 336.837 250 284.302 250 219.498C250 154.693 194.036 102.159 125 102.159C55.9644 102.159 0 154.693 0 219.498C0 284.302 55.9644 336.837 125 336.837Z" fill="#9EC928"/>
<path d="M121.19 210.638C173.537 210.638 215.972 163.485 215.972 105.319C215.972 47.153 173.537 0 121.19 0C68.8439 0 26.4087 47.153 26.4087 105.319C26.4087 163.485 68.8439 210.638 121.19 210.638Z" fill="#9EC928"/>
<path d="M120.055 119.765C120.055 119.765 119.506 169.242 118.871 230.237C118.011 313.12 116.997 417.269 116.997 447.445C116.997 453.018 132.096 453.018 132.096 447.445C132.096 410.744 130.871 310.131 129.972 227.964C129.45 180.376 129.039 138.977 129.039 119.765C129.037 114.192 120.055 114.192 120.055 119.765C120.055 119.765 120.055 114.192 120.055 119.765Z" fill="white"/>
<path d="M131.231 301.48C148.929 285.346 166.629 269.215 184.329 253.081C187.938 249.79 182.56 244.481 178.964 247.757C161.265 263.89 143.567 280.022 125.867 296.155C122.258 299.446 127.636 304.755 131.231 301.48Z" fill="white"/>
<path d="M71.3722 161.926C86.7115 175.908 102.051 189.89 117.39 203.871C120.986 207.149 126.364 201.838 122.754 198.547C107.415 184.565 92.0759 170.584 76.7366 156.602C73.141 153.326 67.7613 158.635 71.3722 161.926Z" fill="white"/>
<path d="M204.288 167.769C204.288 167.769 153.538 170.009 163.689 208.065C163.689 208.065 198.652 223.734 204.288 167.769Z" fill="#CDED48"/>
<path d="M159.966 47.7899C159.966 47.7899 120.782 49.518 128.619 78.9017C128.619 78.9017 155.613 91.0005 159.966 47.7899Z" fill="#CDED48"/>
<path d="M48.7422 268.35C48.7422 268.35 50.9987 318.719 89.3424 308.644C89.3424 308.644 105.131 273.944 48.7422 268.35Z" fill="#CDED48"/>
<path d="M125.966 166.831C136.377 159.46 146.787 152.089 157.198 144.72C159.189 143.31 157.281 140.015 155.266 141.44C144.855 148.811 134.445 156.182 124.035 163.551C122.045 164.961 123.953 168.256 125.966 166.831Z" fill="#221E1F"/>
<path d="M125.286 260.86C114.557 253.336 103.829 245.81 93.1016 238.285C91.0821 236.868 89.1727 240.163 91.1707 241.565C101.899 249.091 112.628 256.615 123.355 264.141C125.375 265.558 127.284 262.262 125.286 260.86Z" fill="#221E1F"/>
<path d="M118.898 228.163L128.261 238.025L118.515 243.905L118.898 228.163Z" fill="#221E1F"/>
<path d="M130.554 273.68L121.19 277.245L130.936 279.37L130.554 273.68Z" fill="#221E1F"/>
<path d="M129.598 219.249L119.853 218.68L129.789 212.042L129.598 219.249Z" fill="#221E1F"/>
<path d="M119.471 178.661C120.426 179.041 128.452 180.558 128.452 180.558L119.279 184.541L119.471 178.661Z" fill="#221E1F"/>
<path d="M122.528 137.316L129.025 135.609L129.216 142.436L122.528 137.316Z" fill="#221E1F"/>
<path d="M117.56 337.787L130.554 343.097L117.751 348.028L117.56 337.787Z" fill="#221E1F"/>
<path d="M120.809 393.167L131.701 391.84L131.892 402.081L118.898 397.15L120.809 393.167Z" fill="#221E1F"/>
<path d="M117.369 372.684L129.216 374.581L117.178 378.184L117.369 372.684Z" fill="#221E1F"/>
<path d="M117.178 427.306L129.407 429.013L116.986 432.806L117.178 427.306Z" fill="#221E1F"/>
<path d="M75.9887 119.286C75.9887 119.286 66.9523 150.595 92.5204 152.237C92.5204 152.237 109.367 134.201 75.9887 119.286Z" fill="#CDED48"/>
<path d="M158.51 235.376C157.836 245.584 157.16 255.794 156.484 266.002C156.357 267.925 159.361 267.841 159.487 265.94C160.162 255.732 160.837 245.522 161.512 235.314C161.639 233.391 158.635 233.475 158.51 235.376Z" fill="#221E1F"/>
</svg>
