<svg width="50" height="50" viewBox="0 0 50 50" fill="none" xmlns="http://www.w3.org/2000/svg">
<path d="M25 0C11.19 0 0 11.19 0 25C0 38.81 11.19 50 25 50C38.81 50 50 38.81 50 25C50 11.19 38.81 0 25 0ZM34.54 19.98C34.55 20.2 34.55 20.41 34.55 20.63C34.55 27.3 29.6 34.99 20.54 34.99C17.76 34.99 15.17 34.16 12.99 32.72C13.38 32.77 13.77 32.79 14.16 32.79C16.47 32.79 18.59 31.98 20.28 30.63C18.13 30.59 16.31 29.13 15.68 27.13C15.98 27.19 16.29 27.22 16.61 27.22C17.06 27.22 17.49 27.16 17.9 27.04C15.65 26.58 13.95 24.54 13.95 22.09C13.95 22.07 13.95 22.05 13.95 22.03C14.62 22.41 15.37 22.64 16.18 22.66C14.86 21.76 13.99 20.21 13.99 18.46C13.99 17.54 14.23 16.67 14.66 15.92C17.09 18.97 20.71 20.99 24.8 21.2C24.72 20.83 24.68 20.44 24.68 20.05C24.68 17.26 26.89 15 29.6 15C31.01 15 32.3 15.62 33.19 16.6C34.31 16.37 35.37 15.95 36.31 15.38C35.95 16.56 35.17 17.55 34.15 18.17C35.14 18.05 36.09 17.77 36.98 17.37C36.34 18.38 35.5 19.27 34.54 19.98Z" fill="white"/>
</svg>
