<svg width="50" height="50" viewBox="0 0 50 50" fill="none" xmlns="http://www.w3.org/2000/svg">
<path fill-rule="evenodd" clip-rule="evenodd" d="M25 50C38.8071 50 50 38.8071 50 25C50 11.1929 38.8071 0 25 0C11.1929 0 0 11.1929 0 25C0 38.8071 11.1929 50 25 50ZM36.7084 17.4169C37.4858 18.2379 37.7408 20.1 37.7408 20.1C37.7408 20.1 38 22.2849 38 24.4713V26.5206C38 28.7069 37.7395 30.892 37.7395 30.892C37.7395 30.892 37.4858 32.7552 36.7069 33.5736C35.8188 34.5398 34.8341 34.642 34.2751 34.6998C34.2114 34.7064 34.1533 34.7124 34.1014 34.7191C30.4634 34.9891 25 35 25 35C25 35 18.238 34.9362 16.1605 34.7313C16.0627 34.7125 15.9443 34.6978 15.8102 34.6812C15.1515 34.5992 14.115 34.4706 13.2931 33.5764C12.5142 32.7566 12.2605 30.8947 12.2605 30.8947C12.2605 30.8947 12 28.7083 12 26.522V24.474C12 22.2849 12.2605 20.1013 12.2605 20.1013C12.2605 20.1013 12.5142 18.2379 13.2931 17.4182C14.1859 16.4469 15.1752 16.3478 15.7334 16.2919C15.7937 16.2858 15.849 16.2803 15.8986 16.2742C19.5366 16 24.9944 16 24.9944 16H25.0056C25.0056 16 30.4634 16 34.1028 16.2728C34.61 16.3352 35.7191 16.3407 36.7084 17.4169ZM29.881 25.5L21.7535 20.75V30.25L29.881 25.5Z" fill="white"/>
</svg>
