<svg width="241" height="431" viewBox="0 0 241 431" fill="none" xmlns="http://www.w3.org/2000/svg">
<path d="M113.753 430.478C114.603 430.464 115.281 429.768 115.267 428.923C115.253 428.078 114.552 427.405 113.702 427.419C112.852 427.433 112.174 428.129 112.188 428.974C112.202 429.819 112.902 430.492 113.753 430.478Z" fill="black"/>
<path d="M121.092 430.477C121.942 430.463 122.62 429.766 122.606 428.921C122.592 428.076 121.891 427.403 121.041 427.417C120.19 427.431 119.512 428.128 119.526 428.972C119.54 429.817 120.241 430.491 121.092 430.477Z" fill="black"/>
<path d="M128.17 430.459C129.021 430.445 129.699 429.749 129.685 428.904C129.671 428.059 128.97 427.386 128.12 427.4C127.269 427.414 126.591 428.11 126.605 428.955C126.619 429.8 127.32 430.473 128.17 430.459Z" fill="black"/>
<path d="M120.68 205.68L0.859985 428.99L120.78 428.9L240.71 428.81L120.68 205.68Z" fill="#EA7A0A"/>
<path d="M133.13 300.33L109.48 300.35L97.6699 320.67L109.5 340.96L133.15 340.94L144.96 320.63L133.13 300.33Z" fill="white"/>
<path d="M121.292 336.393C129.946 336.22 136.822 329.123 136.651 320.54C136.479 311.958 129.324 305.14 120.67 305.313C112.016 305.487 105.139 312.584 105.311 321.167C105.482 329.749 112.637 336.567 121.292 336.393Z" fill="#61A553"/>
<path d="M121.245 334.043C128.59 333.897 134.426 327.872 134.281 320.587C134.135 313.303 128.062 307.517 120.717 307.663C113.372 307.81 107.535 313.835 107.681 321.119C107.826 328.404 113.899 334.19 121.245 334.043Z" fill="black"/>
<path d="M168.82 382.7H73.88V389.83H168.82V382.7Z" fill="black"/>
<path d="M133.71 47.21H108.78V278.27H133.71V47.21Z" fill="black"/>
<path d="M133.62 75.09L108.69 75.11L87.13 0.320023L153.62 0.27002L133.62 75.09Z" fill="#EA7A0A"/>
<path d="M114.03 21.3799H113.39V428.93H114.03V21.3799Z" fill="white"/>
<path d="M121.36 43.8401H120.72V428.92H121.36V43.8401Z" fill="white"/>
<path d="M128.41 21.3701H127.77V428.92H128.41V21.3701Z" fill="white"/>
<path d="M120.563 52.3588C123.34 52.3128 125.555 50.0417 125.509 47.2861C125.464 44.5306 123.175 42.3342 120.397 42.3802C117.62 42.4263 115.405 44.6974 115.451 47.4529C115.496 50.2084 117.785 52.4049 120.563 52.3588Z" fill="black"/>
<path d="M113.513 23.9897C116.291 23.9437 118.505 21.6725 118.46 18.917C118.414 16.1615 116.125 13.965 113.348 14.0111C110.57 14.0571 108.355 16.3283 108.401 19.0838C108.447 21.8393 110.736 24.0358 113.513 23.9897Z" fill="black"/>
<path d="M127.826 23.6723C130.604 23.6263 132.818 21.3551 132.772 18.5996C132.727 15.8441 130.438 13.6476 127.66 13.6937C124.883 13.7398 122.668 16.0109 122.714 18.7664C122.76 21.5219 125.048 23.7184 127.826 23.6723Z" fill="black"/>
<path d="M112.8 161.22C124.43 144.5 148.61 129.1 145.15 107.82C144.132 107.217 143.03 106.768 141.88 106.49C127.45 103.06 106.8 128.24 100.52 149.65C96.52 163.32 98.4 175.36 99.19 180.08C101.09 191.47 102.19 198.15 106.93 200.29C107.817 200.669 108.759 200.902 109.72 200.98C104.35 187.93 104.59 172.59 112.8 161.22Z" fill="#964732"/>
<path d="M145.15 107.82C148.61 129.1 124.43 144.5 112.8 161.22C104.59 172.59 104.35 187.93 109.72 200.98C123.2 202.29 152.18 180.38 157.36 152.14C160.46 135.27 155.47 113.83 145.15 107.82Z" fill="#7F3616"/>
<path d="M103.28 194.05C103.28 194.05 98.83 198.88 89.46 197.43L101.29 187.43L103.28 194.05Z" fill="black"/>
<path d="M102.56 183C102.56 183 98.1 187.83 88.74 186.38L100.56 176.38L102.56 183Z" fill="black"/>
<path d="M104.24 171.92C104.24 171.92 98.61 175.3 90.02 171.29L104.17 165L104.24 171.92Z" fill="black"/>
</svg>
