<svg width="396" height="409" viewBox="0 0 396 409" fill="none" xmlns="http://www.w3.org/2000/svg">
<path d="M353.58 317.39C370.58 261.39 327.51 246.87 327.51 246.87L198.18 253.5L68.85 246.87C68.85 246.87 25.85 261.39 42.78 317.39L11.67 347.94L72.2 392.63H324.2L384.73 347.94L353.58 317.39Z" fill="#561602"/>
<path fill-rule="evenodd" clip-rule="evenodd" d="M285 95.6301H198.18L112.89 95.3C112.89 95.3 97 137.54 83.34 175.76C72.6 205.84 63.29 233.43 64.28 235.93C82.19 281.17 120.85 387 120.85 387C120.85 387 142.16 408.3 168 395.18C170.433 393.936 172.377 391.909 173.518 389.425C174.659 386.942 174.931 384.147 174.29 381.49L173.29 377.36C157.808 371.391 143.68 362.097 132.746 350.015C143.68 362.096 157.811 371.386 173.3 377.34L164.932 342.443C175.784 346.844 188.725 349.4 202.62 349.4C212.424 349.4 221.753 348.128 230.208 345.833C249.508 341.769 324.798 320.558 332.08 235.92C332.59 230.05 285 95.6301 285 95.6301Z" fill="#7F3616"/>
<path d="M234.38 160.87C241.92 150.57 257.01 136.4 257.98 135.49C269.646 124.617 282.516 115.112 296.34 107.16C318.78 94.2499 326.89 95.1599 331.46 96.5399C336.263 98.1181 340.546 100.973 343.85 104.8C354.53 116.26 354.94 132.32 354.77 141.98C353.7 201.87 325.68 230.86 298.7 257.36C278.89 276.83 267.8 301 242.05 287.16C207.48 268.6 209.27 195.12 234.38 160.87Z" fill="#7F3616"/>
<path d="M173.13 390.17C173.13 390.17 178.55 392.63 179.97 401.17L167.97 393.82L173.13 390.17Z" fill="black"/>
<path d="M163.77 394C163.77 394 169.2 396.47 170.61 404.95L158.61 397.6L163.77 394Z" fill="black"/>
<path d="M153.78 395.65C153.78 395.65 158.3 399.53 157.28 408.07L147.85 397.66L153.78 395.65Z" fill="black"/>
<g opacity="0.53">
<path opacity="0.53" d="M111.934 227.212L94.9292 232.705C91.161 233.922 89.0928 237.963 90.3099 241.732L121.685 338.87C122.902 342.639 126.943 344.707 130.712 343.49L147.717 337.997C151.485 336.78 153.553 332.739 152.336 328.97L120.961 231.832C119.744 228.063 115.702 225.995 111.934 227.212Z" fill="#964732"/>
</g>
<g opacity="0.53">
<path opacity="0.53" d="M151.3 382.26C158.999 382.26 165.24 376.019 165.24 368.32C165.24 360.621 158.999 354.38 151.3 354.38C143.601 354.38 137.36 360.621 137.36 368.32C137.36 376.019 143.601 382.26 151.3 382.26Z" fill="#964732"/>
</g>
<path d="M140.85 49.2399C150.537 49.2399 158.39 41.387 158.39 31.6999C158.39 22.0128 150.537 14.1599 140.85 14.1599C131.163 14.1599 123.31 22.0128 123.31 31.6999C123.31 41.387 131.163 49.2399 140.85 49.2399Z" fill="#7F3616"/>
<path d="M256.45 35.0701H139.91C139.91 35.0701 101.26 98.7501 107.44 110.37C127.79 148.67 203.34 251.37 203.34 251.37C203.34 251.37 268.66 149.69 290.53 112.24C293.8 106.59 256.45 35.0701 256.45 35.0701Z" fill="#BA7B31"/>
<path d="M256.45 35.07C243.45 7.62939e-06 198.18 0 198.18 0C198.18 0 152.91 0 139.91 35.08C126.91 70.16 141 92.77 153.77 97C166.54 101.23 176.68 118.78 198.18 118.78C219.68 118.78 229.86 101.25 242.59 97C255.32 92.75 269.46 70.14 256.45 35.07Z" fill="#7F3616"/>
<path d="M70.58 353.74L69.58 353.46C70.2294 352.006 70.5699 350.433 70.58 348.84C70.5817 346.457 69.8534 344.131 68.4931 342.175C67.1327 340.219 65.2057 338.726 62.9715 337.898C60.7372 337.07 58.3029 336.947 55.9962 337.544C53.6896 338.142 51.6214 339.431 50.07 341.24C49.1793 339.728 47.958 338.438 46.4976 337.465C45.0373 336.492 43.3758 335.862 41.6375 335.623C39.8993 335.383 38.1293 335.54 36.4603 336.082C34.7913 336.623 33.2664 337.535 32 338.75C30.5204 337.333 28.6931 336.333 26.7028 335.848C24.7125 335.364 22.6297 335.413 20.6646 335.992C18.6996 336.57 16.9219 337.656 15.5112 339.142C14.1005 340.627 13.1066 342.458 12.63 344.45H12.29C9.78536 344.454 7.34845 345.264 5.33944 346.759C3.33042 348.255 1.85594 350.357 1.13387 352.756C0.411801 355.154 0.480437 357.721 1.32973 360.077C2.17903 362.433 3.76386 364.454 5.85 365.84C13.2 400.84 34.99 396.61 43.05 395.34C51.11 394.07 66 403 72.2 392.63C78.4 382.26 70.58 353.74 70.58 353.74Z" fill="#7F3616"/>
<path d="M58.82 355.81C62.3491 355.81 65.21 352.949 65.21 349.42C65.21 345.891 62.3491 343.03 58.82 343.03C55.2909 343.03 52.43 345.891 52.43 349.42C52.43 352.949 55.2909 355.81 58.82 355.81Z" fill="#CE4B28"/>
<path d="M325.93 353.74L326.93 353.46C326.281 352.006 325.94 350.433 325.93 348.84C325.928 346.457 326.657 344.131 328.017 342.175C329.377 340.219 331.304 338.726 333.539 337.898C335.773 337.07 338.207 336.947 340.514 337.544C342.82 338.142 344.889 339.431 346.44 341.24C347.331 339.73 348.552 338.441 350.011 337.469C351.471 336.497 353.131 335.868 354.868 335.629C356.605 335.389 358.374 335.546 360.042 336.086C361.709 336.627 363.234 337.537 364.5 338.75C365.98 337.333 367.807 336.332 369.797 335.848C371.787 335.364 373.87 335.413 375.835 335.992C377.801 336.57 379.578 337.656 380.989 339.141C382.4 340.627 383.393 342.458 383.87 344.45H384.21C386.718 344.447 389.16 345.252 391.174 346.747C393.188 348.242 394.667 350.347 395.39 352.748C396.113 355.15 396.042 357.721 395.188 360.079C394.335 362.438 392.743 364.458 390.65 365.84C383.3 400.84 361.51 396.61 353.45 395.34C345.39 394.07 330.54 402.98 324.31 392.65C318.08 382.32 325.93 353.74 325.93 353.74Z" fill="#7F3616"/>
<path d="M367.17 346.88C367.168 348.056 367.515 349.205 368.167 350.184C368.819 351.162 369.746 351.925 370.832 352.376C371.918 352.827 373.113 352.945 374.266 352.716C375.419 352.487 376.479 351.921 377.31 351.09C378.141 350.259 378.707 349.2 378.936 348.046C379.165 346.893 379.047 345.698 378.596 344.612C378.145 343.526 377.382 342.599 376.404 341.947C375.425 341.295 374.276 340.948 373.1 340.95C371.528 340.953 370.021 341.578 368.91 342.69C367.798 343.801 367.173 345.308 367.17 346.88Z" fill="#CE4B28"/>
<path d="M350.75 346.88C350.748 348.085 351.104 349.263 351.771 350.266C352.439 351.269 353.39 352.051 354.503 352.514C355.615 352.976 356.84 353.098 358.022 352.864C359.204 352.63 360.29 352.051 361.143 351.2C361.995 350.349 362.576 349.263 362.812 348.082C363.048 346.9 362.928 345.675 362.467 344.562C362.007 343.448 361.226 342.497 360.224 341.827C359.223 341.157 358.045 340.8 356.84 340.8C355.227 340.8 353.679 341.44 352.537 342.58C351.395 343.72 350.753 345.267 350.75 346.88Z" fill="#CE4B28"/>
<path d="M338.38 357.28C341.76 357.28 344.5 354.54 344.5 351.16C344.5 347.78 341.76 345.04 338.38 345.04C335 345.04 332.26 347.78 332.26 351.16C332.26 354.54 335 357.28 338.38 357.28Z" fill="#CE4B28"/>
<path d="M179.37 78.4C173.27 59.4 183.6 35.4 202.69 28.73C200.644 28.2223 198.548 27.9472 196.44 27.91C172.44 27.36 165.44 66.77 167.98 71.91C170.14 76.22 173.98 87.73 188.08 91.17C183.982 87.8649 180.951 83.4221 179.37 78.4Z" fill="#D8BF98"/>
<path d="M202.69 28.73C183.6 35.42 173.27 59.43 179.37 78.4C180.96 83.4039 183.99 87.8282 188.08 91.12C190.952 91.8052 193.897 92.141 196.85 92.12C218.24 92.12 223.8 77.44 226.35 72.35C228.7 67.66 225.53 34.41 202.69 28.73Z" fill="#E7D2AA"/>
<path d="M183.36 35.16C183.36 37.0192 182.809 38.8365 181.776 40.3824C180.743 41.9282 179.275 43.133 177.557 43.8445C175.84 44.5559 173.95 44.7421 172.126 44.3794C170.303 44.0167 168.628 43.1214 167.313 41.8068C165.999 40.4922 165.103 38.8173 164.741 36.9939C164.378 35.1704 164.564 33.2804 165.276 31.5628C165.987 29.8452 167.192 28.3771 168.738 27.3442C170.284 26.3113 172.101 25.76 173.96 25.76C176.453 25.76 178.844 26.7504 180.607 28.5132C182.37 30.2761 183.36 32.667 183.36 35.16Z" fill="#010001"/>
<path d="M169.92 36.26C169.41 34.2 169.27 30.68 170.78 28.26C169.205 28.934 167.911 30.131 167.116 31.6488C166.321 33.1665 166.075 34.912 166.418 36.5905C166.761 38.269 167.673 39.7776 169 40.8616C170.327 41.9455 171.987 42.5384 173.7 42.54C173.883 42.5502 174.067 42.5502 174.25 42.54C172.162 40.9733 170.642 38.7686 169.92 36.26Z" fill="#1653DB"/>
<path d="M181.14 35.1301C181.139 33.9002 180.833 32.6898 180.25 31.6068C179.667 30.5239 178.825 29.6021 177.799 28.9238C176.773 28.2455 175.595 27.8317 174.37 27.7194C173.146 27.607 171.912 27.7997 170.78 28.2801C169.27 30.6801 169.41 34.2001 169.92 36.2801C170.644 38.785 172.164 40.986 174.25 42.5501C176.124 42.4135 177.876 41.5722 179.155 40.1955C180.433 38.8187 181.142 37.0088 181.14 35.1301Z" fill="#6E94FF"/>
<path d="M178.71 35.2699C178.712 36.2394 178.426 37.1878 177.889 37.9949C177.352 38.802 176.587 39.4316 175.692 39.804C174.797 40.1764 173.811 40.2749 172.86 40.0869C171.909 39.899 171.035 39.4331 170.349 38.7482C169.662 38.0634 169.195 37.1903 169.005 36.2395C168.815 35.2887 168.911 34.303 169.282 33.407C169.653 32.5111 170.281 31.7452 171.087 31.2064C171.893 30.6675 172.84 30.3799 173.81 30.3799C175.108 30.3799 176.353 30.8948 177.271 31.8115C178.19 32.7283 178.707 33.9721 178.71 35.2699Z" fill="#010001"/>
<path d="M168.99 34.9299C170.382 34.9299 171.51 33.8017 171.51 32.4099C171.51 31.0181 170.382 29.8899 168.99 29.8899C167.598 29.8899 166.47 31.0181 166.47 32.4099C166.47 33.8017 167.598 34.9299 168.99 34.9299Z" fill="white"/>
<path d="M175.38 36.5599C175.971 36.5599 176.45 36.0809 176.45 35.4899C176.45 34.899 175.971 34.4199 175.38 34.4199C174.789 34.4199 174.31 34.899 174.31 35.4899C174.31 36.0809 174.789 36.5599 175.38 36.5599Z" fill="white"/>
<path d="M228.41 34.19C228.41 36.0492 227.859 37.8666 226.826 39.4124C225.793 40.9582 224.325 42.163 222.607 42.8745C220.89 43.586 219 43.7721 217.176 43.4094C215.353 43.0467 213.678 42.1515 212.363 40.8369C211.049 39.5222 210.153 37.8473 209.791 36.0239C209.428 34.2005 209.614 32.3104 210.326 30.5928C211.037 28.8752 212.242 27.4071 213.788 26.3742C215.333 25.3414 217.151 24.79 219.01 24.79C221.503 24.79 223.894 25.7804 225.657 27.5432C227.42 29.3061 228.41 31.697 228.41 34.19Z" fill="#010001"/>
<path d="M215 35.3C214.48 33.23 214.34 29.71 215.86 27.3C214.285 27.9741 212.991 29.1711 212.196 30.6888C211.401 32.2065 211.155 33.9521 211.498 35.6306C211.841 37.3091 212.753 38.8177 214.08 39.9016C215.407 40.9856 217.067 41.5784 218.78 41.58H219.33C217.242 40.0134 215.722 37.8086 215 35.3Z" fill="#1653DB"/>
<path d="M226.18 34.16C226.178 32.9314 225.872 31.7224 225.29 30.6406C224.707 29.5588 223.866 28.6379 222.842 27.9598C221.817 27.2818 220.641 26.8676 219.418 26.7542C218.194 26.6408 216.962 26.8318 215.83 27.31C214.31 29.71 214.45 33.23 214.97 35.31C215.694 37.8149 217.214 40.0159 219.3 41.58C221.172 41.4411 222.922 40.5987 224.198 39.2222C225.475 37.8457 226.183 36.0372 226.18 34.16Z" fill="#6E94FF"/>
<path d="M223.75 34.2999C223.752 35.2699 223.466 36.2186 222.928 37.026C222.391 37.8333 221.625 38.4629 220.73 38.835C219.834 39.2071 218.848 39.305 217.896 39.1162C216.945 38.9275 216.071 38.4606 215.385 37.7747C214.699 37.0889 214.232 36.2148 214.044 35.2634C213.855 34.312 213.953 33.3259 214.325 32.4301C214.697 31.5344 215.327 30.7692 216.134 30.2315C216.941 29.6939 217.89 29.4079 218.86 29.4099C220.157 29.4099 221.401 29.9251 222.318 30.8422C223.235 31.7592 223.75 33.003 223.75 34.2999Z" fill="#010001"/>
<path d="M214.03 33.9599C215.422 33.9599 216.55 32.8317 216.55 31.4399C216.55 30.0482 215.422 28.9199 214.03 28.9199C212.638 28.9199 211.51 30.0482 211.51 31.4399C211.51 32.8317 212.638 33.9599 214.03 33.9599Z" fill="white"/>
<path d="M220.42 35.6C221.011 35.6 221.49 35.1209 221.49 34.53C221.49 33.939 221.011 33.46 220.42 33.46C219.829 33.46 219.35 33.939 219.35 34.53C219.35 35.1209 219.829 35.6 220.42 35.6Z" fill="white"/>
<path d="M252.07 49.6601C261.757 49.6601 269.61 41.8071 269.61 32.1201C269.61 22.433 261.757 14.5801 252.07 14.5801C242.383 14.5801 234.53 22.433 234.53 32.1201C234.53 41.8071 242.383 49.6601 252.07 49.6601Z" fill="#7F3616"/>
<path d="M259.79 25.5599C259.522 25.2365 259.235 24.9293 258.93 24.6399C256.107 27.9118 252.43 30.3352 248.31 31.6399C250.069 34.4265 251.502 37.4061 252.58 40.5199C257.74 37.0999 261.43 31.7999 259.79 25.5599Z" fill="#C93B1F"/>
<path d="M258.93 24.64C257.887 23.6377 256.64 22.8736 255.273 22.4002C253.906 21.9268 252.453 21.7555 251.014 21.8981C249.575 22.0407 248.184 22.4938 246.936 23.2261C245.689 23.9585 244.616 24.9526 243.79 26.14C245.512 27.7931 247.029 29.6463 248.31 31.66C252.432 30.3498 256.109 27.9193 258.93 24.64Z" fill="#CE4B28"/>
<path d="M259.79 25.5601C261.43 31.8001 257.79 37.1001 252.58 40.5601C252.74 40.9901 252.89 41.4301 253.03 41.8601C254.83 41.6823 256.549 41.0195 258.002 39.9424C259.455 38.8652 260.589 37.414 261.283 35.7433C261.976 34.0727 262.204 32.2452 261.941 30.4554C261.678 28.6656 260.935 26.9807 259.79 25.5801V25.5601Z" fill="#B22B14"/>
<path d="M134.21 24.4499C133.924 24.767 133.656 25.1009 133.41 25.4499C137.052 27.7862 139.968 31.094 141.83 34.9999C144.351 32.872 147.105 31.0369 150.04 29.5299C145.92 24.8799 140.16 21.9999 134.21 24.4499Z" fill="#C93B1F"/>
<path d="M133.41 25.4299C132.561 26.602 131.977 27.9442 131.698 29.364C131.419 30.7838 131.451 32.2472 131.792 33.6534C132.133 35.0596 132.776 36.3749 133.675 37.5086C134.574 38.6423 135.709 39.5674 137 40.2199C138.389 38.282 140.011 36.5221 141.83 34.9799C139.968 31.074 137.052 27.7662 133.41 25.4299Z" fill="#CE4B28"/>
<path d="M134.21 24.4501C140.16 21.9601 145.92 24.8801 150.04 29.5101L151.27 28.8901C150.845 27.1317 149.95 25.5217 148.682 24.2315C147.414 22.9413 145.82 22.0192 144.069 21.5636C142.318 21.1079 140.477 21.1358 138.74 21.6441C137.004 22.1524 135.439 23.1222 134.21 24.4501Z" fill="#B22B14"/>
<path d="M56.03 363.93H28.07C21.5475 363.93 16.26 369.215 16.26 375.735C16.26 382.255 21.5475 387.54 28.07 387.54H56.03C62.5525 387.54 67.84 382.255 67.84 375.735C67.84 369.215 62.5525 363.93 56.03 363.93Z" fill="#CE4B28"/>
<path d="M367.96 365.39H340C333.477 365.39 328.19 370.675 328.19 377.195C328.19 383.715 333.477 389 340 389H367.96C374.482 389 379.77 383.715 379.77 377.195C379.77 370.675 374.482 365.39 367.96 365.39Z" fill="#CE4B28"/>
<path d="M367.54 370.05H354.52C351.847 370.05 349.68 372.217 349.68 374.89V374.9C349.68 377.573 351.847 379.74 354.52 379.74H367.54C370.213 379.74 372.38 377.573 372.38 374.9V374.89C372.38 372.217 370.213 370.05 367.54 370.05Z" fill="#D8725D"/>
<path d="M39.8 354.66C43.5113 354.66 46.52 351.651 46.52 347.94C46.52 344.229 43.5113 341.22 39.8 341.22C36.0886 341.22 33.08 344.229 33.08 347.94C33.08 351.651 36.0886 354.66 39.8 354.66Z" fill="#CE4B28"/>
<path d="M24.87 354.33C28.5813 354.33 31.59 351.321 31.59 347.61C31.59 343.899 28.5813 340.89 24.87 340.89C21.1586 340.89 18.15 343.899 18.15 347.61C18.15 351.321 21.1586 354.33 24.87 354.33Z" fill="#CE4B28"/>
<path d="M10.59 363.45C14.3014 363.45 17.31 360.441 17.31 356.73C17.31 353.019 14.3014 350.01 10.59 350.01C6.87867 350.01 3.87 353.019 3.87 356.73C3.87 360.441 6.87867 363.45 10.59 363.45Z" fill="#CE4B28"/>
<path d="M385.65 361.46C389.361 361.46 392.37 358.451 392.37 354.74C392.37 351.029 389.361 348.02 385.65 348.02C381.939 348.02 378.93 351.029 378.93 354.74C378.93 358.451 381.939 361.46 385.65 361.46Z" fill="#CE4B28"/>
<path d="M45.53 374.96H27.39C24.7611 374.96 22.63 377.089 22.63 379.715C22.63 382.341 24.7611 384.47 27.39 384.47H45.53C48.1589 384.47 50.29 382.341 50.29 379.715C50.29 377.089 48.1589 374.96 45.53 374.96Z" fill="#D8725D"/>
</svg>
