<svg width="104" height="63" viewBox="0 0 104 63" fill="none" xmlns="http://www.w3.org/2000/svg">
<path d="M24.4 0.510038H77.14C81.3491 0.517985 85.383 2.19562 88.3565 5.17471C91.33 8.1538 93 12.1909 93 16.4V43.4C93 44.9277 92.3931 46.3928 91.3129 47.473C90.2327 48.5532 88.7676 49.16 87.24 49.16H14.24C12.7123 49.16 11.2472 48.5532 10.167 47.473C9.08681 46.3928 8.47998 44.9277 8.47998 43.4V16.4C8.47998 14.3108 8.89196 12.2421 9.69238 10.3123C10.4928 8.38245 11.666 6.62942 13.1447 5.1535C14.6234 3.67759 16.3786 2.50776 18.3099 1.71098C20.2412 0.9142 22.3107 0.506094 24.4 0.510038Z" fill="#E23834"/>
<path d="M13.43 16.8601H90.3C93.7239 16.8601 97.0076 18.2202 99.4287 20.6413C101.85 23.0624 103.21 26.3462 103.21 29.7701V55.2501C103.21 57.2419 102.419 59.1521 101.01 60.5605C99.602 61.9689 97.6918 62.7601 95.7 62.7601H8C6.00822 62.7601 4.09803 61.9689 2.68964 60.5605C1.28124 59.1521 0.48999 57.2419 0.48999 55.2501V29.7601C0.48999 26.3361 1.85015 23.0524 4.27124 20.6313C6.69234 18.2103 9.97605 16.8501 13.4 16.8501L13.43 16.8601Z" fill="#A4B5A0"/>
<path d="M63.37 23.27H15.64C13.707 23.27 12.14 24.837 12.14 26.77V35.51C12.14 37.443 13.707 39.01 15.64 39.01H63.37C65.303 39.01 66.87 37.443 66.87 35.51V26.77C66.87 24.837 65.303 23.27 63.37 23.27Z" fill="#D6DDD4"/>
<path d="M87.65 23H77.64C75.7899 23 74.29 24.4999 74.29 26.35V34.73C74.29 36.5801 75.7899 38.08 77.64 38.08H87.65C89.5002 38.08 91 36.5801 91 34.73V26.35C91 24.4999 89.5002 23 87.65 23Z" fill="#D6DDD4"/>
</svg>
