<svg width="396" height="451" viewBox="0 0 396 451" fill="none" xmlns="http://www.w3.org/2000/svg">
<path d="M353.58 359.39C370.58 303.39 327.51 288.87 327.51 288.87L198.18 295.5L68.85 288.87C68.85 288.87 25.85 303.39 42.78 359.39L11.67 389.94L72.2 434.63H324.2L384.73 389.94L353.58 359.39Z" fill="#561602"/>
<path fill-rule="evenodd" clip-rule="evenodd" d="M285 137.63H198.18L112.89 137.3C112.89 137.3 97 179.54 83.34 217.76C72.6 247.84 63.29 275.43 64.28 277.93C82.19 323.17 120.85 429 120.85 429C120.85 429 142.16 450.3 168 437.18C170.433 435.936 172.377 433.909 173.518 431.425C174.659 428.942 174.931 426.147 174.29 423.49L173.29 419.36C157.808 413.391 143.68 404.097 132.746 392.015C143.68 404.096 157.811 413.386 173.3 419.34L164.932 384.443C175.784 388.844 188.725 391.4 202.62 391.4C212.424 391.4 221.753 390.128 230.208 387.833C249.508 383.769 324.798 362.558 332.08 277.92C332.59 272.05 285 137.63 285 137.63Z" fill="#7F3616"/>
<path d="M234.38 202.87C241.92 192.57 257.01 178.4 257.98 177.49C269.646 166.617 282.516 157.112 296.34 149.16C318.78 136.25 326.89 137.16 331.46 138.54C336.263 140.118 340.546 142.973 343.85 146.8C354.53 158.26 354.94 174.32 354.77 183.98C353.7 243.87 325.68 272.86 298.7 299.36C278.89 318.83 267.8 343 242.05 329.16C207.48 310.6 209.27 237.12 234.38 202.87Z" fill="#7F3616"/>
<path d="M173.13 432.17C173.13 432.17 178.55 434.63 179.97 443.17L167.97 435.82L173.13 432.17Z" fill="black"/>
<path d="M163.77 436C163.77 436 169.2 438.47 170.61 446.95L158.61 439.6L163.77 436Z" fill="black"/>
<path d="M153.78 437.65C153.78 437.65 158.3 441.53 157.28 450.07L147.85 439.66L153.78 437.65Z" fill="black"/>
<g opacity="0.53">
<path opacity="0.53" d="M111.934 269.212L94.9292 274.705C91.161 275.922 89.0928 279.963 90.3099 283.732L121.685 380.87C122.902 384.639 126.943 386.707 130.712 385.49L147.717 379.997C151.485 378.78 153.553 374.739 152.336 370.97L120.961 273.832C119.744 270.063 115.702 267.995 111.934 269.212Z" fill="#964732"/>
</g>
<g opacity="0.53">
<path opacity="0.53" d="M151.3 424.26C158.999 424.26 165.24 418.019 165.24 410.32C165.24 402.621 158.999 396.38 151.3 396.38C143.601 396.38 137.36 402.621 137.36 410.32C137.36 418.019 143.601 424.26 151.3 424.26Z" fill="#964732"/>
</g>
<path d="M140.85 91.2399C150.537 91.2399 158.39 83.387 158.39 73.6999C158.39 64.0128 150.537 56.1599 140.85 56.1599C131.163 56.1599 123.31 64.0128 123.31 73.6999C123.31 83.387 131.163 91.2399 140.85 91.2399Z" fill="#7F3616"/>
<path d="M256.45 77.0701H139.91C139.91 77.0701 101.26 140.75 107.44 152.37C127.79 190.67 203.34 293.37 203.34 293.37C203.34 293.37 268.66 191.69 290.53 154.24C293.8 148.59 256.45 77.0701 256.45 77.0701Z" fill="#BA7B31"/>
<path d="M256.45 77.07C243.45 42 198.18 42 198.18 42C198.18 42 152.91 42 139.91 77.08C126.91 112.16 141 134.77 153.77 139C166.54 143.23 176.68 160.78 198.18 160.78C219.68 160.78 229.86 143.25 242.59 139C255.32 134.75 269.46 112.14 256.45 77.07Z" fill="#7F3616"/>
<path d="M70.58 395.74L69.58 395.46C70.2294 394.006 70.5699 392.433 70.58 390.84C70.5817 388.457 69.8534 386.131 68.4931 384.175C67.1327 382.219 65.2057 380.726 62.9715 379.898C60.7372 379.07 58.3029 378.947 55.9962 379.544C53.6896 380.142 51.6214 381.431 50.07 383.24C49.1793 381.728 47.958 380.438 46.4976 379.465C45.0373 378.492 43.3758 377.862 41.6375 377.623C39.8993 377.383 38.1293 377.54 36.4603 378.082C34.7913 378.623 33.2664 379.535 32 380.75C30.5204 379.333 28.6931 378.333 26.7028 377.848C24.7125 377.364 22.6297 377.413 20.6646 377.992C18.6996 378.57 16.9219 379.656 15.5112 381.142C14.1005 382.627 13.1066 384.458 12.63 386.45H12.29C9.78536 386.454 7.34845 387.264 5.33944 388.759C3.33042 390.255 1.85594 392.357 1.13387 394.756C0.411801 397.154 0.480437 399.721 1.32973 402.077C2.17903 404.433 3.76386 406.454 5.85 407.84C13.2 442.84 34.99 438.61 43.05 437.34C51.11 436.07 66 445 72.2 434.63C78.4 424.26 70.58 395.74 70.58 395.74Z" fill="#7F3616"/>
<path d="M58.82 397.81C62.3491 397.81 65.21 394.949 65.21 391.42C65.21 387.891 62.3491 385.03 58.82 385.03C55.2909 385.03 52.43 387.891 52.43 391.42C52.43 394.949 55.2909 397.81 58.82 397.81Z" fill="#CE4B28"/>
<path d="M325.93 395.74L326.93 395.46C326.281 394.006 325.94 392.433 325.93 390.84C325.928 388.457 326.657 386.131 328.017 384.175C329.377 382.219 331.304 380.726 333.539 379.898C335.773 379.07 338.207 378.947 340.514 379.544C342.82 380.142 344.889 381.431 346.44 383.24C347.331 381.73 348.552 380.441 350.011 379.469C351.471 378.497 353.131 377.868 354.868 377.629C356.605 377.389 358.374 377.546 360.042 378.086C361.709 378.627 363.234 379.537 364.5 380.75C365.98 379.333 367.807 378.332 369.797 377.848C371.787 377.364 373.87 377.413 375.835 377.992C377.801 378.57 379.578 379.656 380.989 381.141C382.4 382.627 383.393 384.458 383.87 386.45H384.21C386.718 386.447 389.16 387.252 391.174 388.747C393.188 390.242 394.667 392.347 395.39 394.748C396.113 397.15 396.042 399.721 395.188 402.079C394.335 404.438 392.743 406.458 390.65 407.84C383.3 442.84 361.51 438.61 353.45 437.34C345.39 436.07 330.54 444.98 324.31 434.65C318.08 424.32 325.93 395.74 325.93 395.74Z" fill="#7F3616"/>
<path d="M367.17 388.88C367.168 390.056 367.515 391.205 368.167 392.184C368.819 393.162 369.746 393.925 370.832 394.376C371.918 394.827 373.113 394.945 374.266 394.716C375.419 394.487 376.479 393.921 377.31 393.09C378.141 392.259 378.707 391.2 378.936 390.046C379.165 388.893 379.047 387.698 378.596 386.612C378.145 385.526 377.382 384.599 376.404 383.947C375.425 383.295 374.276 382.948 373.1 382.95C371.528 382.953 370.021 383.578 368.91 384.69C367.798 385.801 367.173 387.308 367.17 388.88Z" fill="#CE4B28"/>
<path d="M350.75 388.88C350.748 390.085 351.104 391.263 351.771 392.266C352.439 393.269 353.39 394.051 354.503 394.514C355.615 394.976 356.84 395.098 358.022 394.864C359.204 394.63 360.29 394.051 361.143 393.2C361.995 392.349 362.576 391.263 362.812 390.082C363.048 388.9 362.928 387.675 362.467 386.562C362.007 385.448 361.226 384.497 360.224 383.827C359.223 383.157 358.045 382.8 356.84 382.8C355.227 382.8 353.679 383.44 352.537 384.58C351.395 385.72 350.753 387.267 350.75 388.88Z" fill="#CE4B28"/>
<path d="M338.38 399.28C341.76 399.28 344.5 396.54 344.5 393.16C344.5 389.78 341.76 387.04 338.38 387.04C335 387.04 332.26 389.78 332.26 393.16C332.26 396.54 335 399.28 338.38 399.28Z" fill="#CE4B28"/>
<path d="M179.37 120.4C173.27 101.4 183.6 77.4 202.69 70.73C200.644 70.2223 198.548 69.9472 196.44 69.91C172.44 69.36 165.44 108.77 167.98 113.91C170.14 118.22 173.98 129.73 188.08 133.17C183.982 129.865 180.951 125.422 179.37 120.4Z" fill="#D8BF98"/>
<path d="M202.69 70.73C183.6 77.42 173.27 101.43 179.37 120.4C180.96 125.404 183.99 129.828 188.08 133.12C190.952 133.805 193.897 134.141 196.85 134.12C218.24 134.12 223.8 119.44 226.35 114.35C228.7 109.66 225.53 76.41 202.69 70.73Z" fill="#E7D2AA"/>
<path d="M183.36 77.16C183.36 79.0192 182.809 80.8365 181.776 82.3824C180.743 83.9282 179.275 85.133 177.557 85.8445C175.84 86.5559 173.95 86.7421 172.126 86.3794C170.303 86.0167 168.628 85.1214 167.313 83.8068C165.999 82.4922 165.103 80.8173 164.741 78.9939C164.378 77.1704 164.564 75.2804 165.276 73.5628C165.987 71.8452 167.192 70.3771 168.738 69.3442C170.284 68.3113 172.101 67.76 173.96 67.76C176.453 67.76 178.844 68.7504 180.607 70.5132C182.37 72.2761 183.36 74.667 183.36 77.16Z" fill="#010001"/>
<path d="M169.92 78.26C169.41 76.2 169.27 72.68 170.78 70.26C169.205 70.934 167.911 72.131 167.116 73.6488C166.321 75.1665 166.075 76.912 166.418 78.5905C166.761 80.269 167.673 81.7776 169 82.8616C170.327 83.9455 171.987 84.5384 173.7 84.54C173.883 84.5502 174.067 84.5502 174.25 84.54C172.162 82.9733 170.642 80.7686 169.92 78.26Z" fill="#1653DB"/>
<path d="M181.14 77.1301C181.139 75.9002 180.833 74.6898 180.25 73.6068C179.667 72.5239 178.825 71.6021 177.799 70.9238C176.773 70.2455 175.595 69.8317 174.37 69.7194C173.146 69.607 171.912 69.7997 170.78 70.2801C169.27 72.6801 169.41 76.2001 169.92 78.2801C170.644 80.785 172.164 82.986 174.25 84.5501C176.124 84.4135 177.876 83.5722 179.155 82.1955C180.433 80.8187 181.142 79.0088 181.14 77.1301Z" fill="#6E94FF"/>
<path d="M178.71 77.2699C178.712 78.2394 178.426 79.1878 177.889 79.9949C177.352 80.802 176.587 81.4316 175.692 81.804C174.797 82.1764 173.811 82.2749 172.86 82.0869C171.909 81.899 171.035 81.4331 170.349 80.7482C169.662 80.0634 169.195 79.1903 169.005 78.2395C168.815 77.2887 168.911 76.303 169.282 75.407C169.653 74.5111 170.281 73.7452 171.087 73.2064C171.893 72.6675 172.84 72.3799 173.81 72.3799C175.108 72.3799 176.353 72.8948 177.271 73.8115C178.19 74.7283 178.707 75.9721 178.71 77.2699Z" fill="#010001"/>
<path d="M190.27 108.05C192.513 110.488 195.391 112.253 198.58 113.149C201.77 114.044 205.146 114.034 208.33 113.12C210.94 111.04 213.06 108.84 213.06 107.12C213.06 102.65 206.57 99.02 198.56 99.02C195.669 98.9908 192.798 99.51 190.1 100.55C189.506 101.717 189.211 103.013 189.241 104.321C189.27 105.63 189.624 106.911 190.27 108.05Z" fill="#443744"/>
<path d="M190.27 108.05C189.626 106.913 189.273 105.633 189.243 104.326C189.214 103.02 189.508 101.726 190.1 100.56C186.45 102.03 184.1 104.42 184.1 107.13C184.1 109.61 188.55 113.13 192.52 115.79C194.321 116.983 196.434 117.62 198.595 117.62C200.756 117.62 202.869 116.983 204.67 115.79C205.9 114.96 207.18 114.06 208.36 113.12C205.171 114.04 201.79 114.053 198.594 113.158C195.399 112.262 192.516 110.493 190.27 108.05Z" fill="#010001"/>
<path d="M168.99 76.9299C170.382 76.9299 171.51 75.8017 171.51 74.4099C171.51 73.0181 170.382 71.8899 168.99 71.8899C167.598 71.8899 166.47 73.0181 166.47 74.4099C166.47 75.8017 167.598 76.9299 168.99 76.9299Z" fill="white"/>
<path d="M175.38 78.5599C175.971 78.5599 176.45 78.0809 176.45 77.4899C176.45 76.899 175.971 76.4199 175.38 76.4199C174.789 76.4199 174.31 76.899 174.31 77.4899C174.31 78.0809 174.789 78.5599 175.38 78.5599Z" fill="white"/>
<path d="M228.41 76.19C228.41 78.0492 227.859 79.8666 226.826 81.4124C225.793 82.9582 224.325 84.163 222.607 84.8745C220.89 85.586 219 85.7721 217.176 85.4094C215.353 85.0467 213.678 84.1515 212.363 82.8369C211.049 81.5222 210.153 79.8473 209.791 78.0239C209.428 76.2005 209.614 74.3104 210.326 72.5928C211.037 70.8752 212.242 69.4071 213.788 68.3742C215.333 67.3414 217.151 66.79 219.01 66.79C221.503 66.79 223.894 67.7804 225.657 69.5432C227.42 71.3061 228.41 73.697 228.41 76.19Z" fill="#010001"/>
<path d="M215 77.3C214.48 75.23 214.34 71.71 215.86 69.3C214.285 69.9741 212.991 71.1711 212.196 72.6888C211.401 74.2065 211.155 75.9521 211.498 77.6306C211.841 79.3091 212.753 80.8177 214.08 81.9016C215.407 82.9856 217.067 83.5784 218.78 83.58H219.33C217.242 82.0134 215.722 79.8086 215 77.3Z" fill="#1653DB"/>
<path d="M226.18 76.16C226.178 74.9314 225.872 73.7224 225.29 72.6406C224.707 71.5588 223.866 70.6379 222.842 69.9598C221.817 69.2818 220.641 68.8676 219.418 68.7542C218.194 68.6408 216.962 68.8318 215.83 69.31C214.31 71.71 214.45 75.23 214.97 77.31C215.694 79.8149 217.214 82.0159 219.3 83.58C221.172 83.4411 222.922 82.5987 224.198 81.2222C225.475 79.8457 226.183 78.0372 226.18 76.16Z" fill="#6E94FF"/>
<path d="M223.75 76.2999C223.752 77.2699 223.466 78.2186 222.928 79.026C222.391 79.8333 221.625 80.4629 220.73 80.835C219.834 81.2071 218.848 81.305 217.896 81.1162C216.945 80.9275 216.071 80.4606 215.385 79.7747C214.699 79.0889 214.232 78.2148 214.044 77.2634C213.855 76.312 213.953 75.3259 214.325 74.4301C214.697 73.5344 215.327 72.7692 216.134 72.2315C216.941 71.6939 217.89 71.4079 218.86 71.4099C220.157 71.4099 221.401 71.9251 222.318 72.8422C223.235 73.7592 223.75 75.003 223.75 76.2999Z" fill="#010001"/>
<path d="M214.03 75.9599C215.422 75.9599 216.55 74.8317 216.55 73.4399C216.55 72.0482 215.422 70.9199 214.03 70.9199C212.638 70.9199 211.51 72.0482 211.51 73.4399C211.51 74.8317 212.638 75.9599 214.03 75.9599Z" fill="white"/>
<path d="M220.42 77.6C221.011 77.6 221.49 77.1209 221.49 76.53C221.49 75.939 221.011 75.46 220.42 75.46C219.829 75.46 219.35 75.939 219.35 76.53C219.35 77.1209 219.829 77.6 220.42 77.6Z" fill="white"/>
<path d="M240.31 48.9299C256.52 39.8199 276.49 40.2599 294.65 44.2799C297.208 44.9973 299.853 45.3574 302.51 45.3499C305.16 45.1899 307.9 44.0899 309.34 41.8699C311.57 38.4599 310.06 33.9399 308.44 30.1999C307.475 27.6149 306.097 25.2036 304.36 23.0599C299.88 18.0599 292.43 17.1599 285.71 17.1599C275.65 17.1599 265.49 18.3799 256.13 22.0599C246.77 25.7399 238.26 31.9999 233 40.5899C234.651 43.7974 236.536 46.879 238.64 49.8099" fill="#BA1111"/>
<path d="M252.07 91.6601C261.757 91.6601 269.61 83.8071 269.61 74.1201C269.61 64.433 261.757 56.5801 252.07 56.5801C242.383 56.5801 234.53 64.433 234.53 74.1201C234.53 83.8071 242.383 91.6601 252.07 91.6601Z" fill="#7F3616"/>
<path d="M259.79 67.5599C259.522 67.2365 259.235 66.9293 258.93 66.6399C256.107 69.9118 252.43 72.3352 248.31 73.6399C250.069 76.4265 251.502 79.4061 252.58 82.5199C257.74 79.0999 261.43 73.7999 259.79 67.5599Z" fill="#C93B1F"/>
<path d="M258.93 66.64C257.887 65.6377 256.64 64.8736 255.273 64.4002C253.906 63.9268 252.453 63.7555 251.014 63.8981C249.575 64.0407 248.184 64.4938 246.936 65.2261C245.689 65.9585 244.616 66.9526 243.79 68.14C245.512 69.7931 247.029 71.6463 248.31 73.66C252.432 72.3498 256.109 69.9193 258.93 66.64Z" fill="#CE4B28"/>
<path d="M259.79 67.5601C261.43 73.8001 257.79 79.1001 252.58 82.5601C252.74 82.9901 252.89 83.4301 253.03 83.8601C254.83 83.6823 256.549 83.0195 258.002 81.9424C259.455 80.8652 260.589 79.414 261.283 77.7433C261.976 76.0727 262.204 74.2452 261.941 72.4554C261.678 70.6656 260.935 68.9807 259.79 67.5801V67.5601Z" fill="#B22B14"/>
<path d="M134.21 66.4499C133.924 66.767 133.656 67.1009 133.41 67.4499C137.052 69.7862 139.968 73.094 141.83 76.9999C144.351 74.872 147.105 73.0369 150.04 71.5299C145.92 66.8799 140.16 63.9999 134.21 66.4499Z" fill="#C93B1F"/>
<path d="M133.41 67.4299C132.561 68.602 131.977 69.9442 131.698 71.364C131.419 72.7838 131.451 74.2472 131.792 75.6534C132.133 77.0596 132.776 78.3749 133.675 79.5086C134.574 80.6423 135.709 81.5674 137 82.2199C138.389 80.282 140.011 78.5221 141.83 76.9799C139.968 73.074 137.052 69.7662 133.41 67.4299Z" fill="#CE4B28"/>
<path d="M134.21 66.4501C140.16 63.9601 145.92 66.8801 150.04 71.5101L151.27 70.8901C150.845 69.1317 149.95 67.5217 148.682 66.2315C147.414 64.9413 145.82 64.0192 144.069 63.5636C142.318 63.1079 140.477 63.1358 138.74 63.6441C137.004 64.1524 135.439 65.1222 134.21 66.4501Z" fill="#B22B14"/>
<path d="M177.53 118.38C180.79 123.8 185.22 128.67 192 126.31C195 125.25 196.58 125.6 199.16 127.31C200.296 128.205 201.603 128.859 203 129.23C207 129.97 210.61 126.69 213.6 124.66C215.05 123.66 213.68 121.32 212.23 122.31C208.7 124.7 204.79 127.31 200.54 124.96C198.79 123.96 197.54 122.66 195.39 122.59C193.59 122.52 191.95 123.47 190.23 123.88C185.06 125.11 182.23 120.88 179.88 117C179.79 116.846 179.671 116.711 179.529 116.603C179.386 116.494 179.224 116.415 179.052 116.37C178.879 116.324 178.699 116.313 178.522 116.337C178.345 116.361 178.174 116.42 178.02 116.51C177.866 116.6 177.731 116.719 177.623 116.862C177.514 117.004 177.435 117.166 177.39 117.339C177.344 117.511 177.333 117.691 177.357 117.868C177.381 118.045 177.44 118.216 177.53 118.37V118.38Z" fill="#B19789"/>
<path d="M209.35 107.34C209.786 107.34 210.14 106.986 210.14 106.55C210.14 106.114 209.786 105.76 209.35 105.76C208.914 105.76 208.56 106.114 208.56 106.55C208.56 106.986 208.914 107.34 209.35 107.34Z" fill="#9D859E"/>
<path d="M206.47 104.61C206.906 104.61 207.26 104.256 207.26 103.82C207.26 103.384 206.906 103.03 206.47 103.03C206.034 103.03 205.68 103.384 205.68 103.82C205.68 104.256 206.034 104.61 206.47 104.61Z" fill="#9D859E"/>
<path d="M202.95 103.23C203.386 103.23 203.74 102.876 203.74 102.44C203.74 102.004 203.386 101.65 202.95 101.65C202.514 101.65 202.16 102.004 202.16 102.44C202.16 102.876 202.514 103.23 202.95 103.23Z" fill="#9D859E"/>
<path d="M203.36 109.95C203.796 109.95 204.15 109.596 204.15 109.16C204.15 108.724 203.796 108.37 203.36 108.37C202.924 108.37 202.57 108.724 202.57 109.16C202.57 109.596 202.924 109.95 203.36 109.95Z" fill="#9D859E"/>
<path d="M169.83 0.52002H222.57C226.784 0.52002 230.826 2.19413 233.806 5.17409C236.786 8.15404 238.46 12.1957 238.46 16.41V43.41C238.46 44.9377 237.853 46.4027 236.773 47.483C235.693 48.5632 234.228 49.17 232.7 49.17H159.7C158.172 49.17 156.707 48.5632 155.627 47.483C154.547 46.4027 153.94 44.9377 153.94 43.41V16.41C153.94 12.1957 155.614 8.15404 158.594 5.17409C161.574 2.19413 165.616 0.52002 169.83 0.52002Z" fill="#E23834"/>
<path d="M150.8 56.4001C140.71 72.0101 122.8 80.9301 104.9 85.8301C102.304 86.3901 99.7966 87.3054 97.4501 88.5501C96.2794 89.1843 95.2706 90.0799 94.5023 91.1674C93.734 92.2548 93.2268 93.5048 93.0201 94.8201C92.6401 98.8701 96.0801 102.17 99.2501 104.72C101.312 106.555 103.655 108.047 106.19 109.14C112.5 111.48 119.5 108.79 125.45 105.66C134.35 100.99 142.77 95.1601 149.33 87.5401C155.89 79.9201 160.5 70.4001 161.14 60.3701C158.191 58.2977 155.089 56.4523 151.86 54.8501" fill="#E23834"/>
<path d="M158.86 16.8701H235.73C239.154 16.8701 242.438 18.2303 244.859 20.6514C247.28 23.0725 248.64 26.3562 248.64 29.7801V55.2601C248.64 57.2519 247.849 59.1621 246.44 60.5705C245.032 61.9789 243.122 62.7701 241.13 62.7701H153.45C151.458 62.7701 149.548 61.9789 148.14 60.5705C146.731 59.1621 145.94 57.2519 145.94 55.2601V29.7801C145.94 26.3562 147.3 23.0725 149.721 20.6514C152.142 18.2303 155.426 16.8701 158.85 16.8701H158.86Z" fill="#A4B5A0"/>
<path d="M208.8 23.29H161.07C159.137 23.29 157.57 24.857 157.57 26.79V35.53C157.57 37.463 159.137 39.03 161.07 39.03H208.8C210.733 39.03 212.3 37.463 212.3 35.53V26.79C212.3 24.857 210.733 23.29 208.8 23.29Z" fill="#D6DDD4"/>
<path d="M233.08 23.02H223.07C221.22 23.02 219.72 24.5199 219.72 26.37V34.75C219.72 36.6002 221.22 38.1 223.07 38.1H233.08C234.93 38.1 236.43 36.6002 236.43 34.75V26.37C236.43 24.5199 234.93 23.02 233.08 23.02Z" fill="#D6DDD4"/>
<path d="M162.61 68.3301C162.35 68.0601 164.34 65.3301 167.33 62.7001C169.33 60.9101 175.25 55.7001 179.14 57.2501C179.41 57.3601 180.58 57.8501 180.82 58.8401C180.856 59.4185 180.721 59.9947 180.431 60.4965C180.141 60.9982 179.709 61.4031 179.19 61.6601C177.548 62.4489 175.82 63.0429 174.04 63.4301C165.38 64.8801 163.08 68.8201 162.61 68.3301Z" fill="#381F05"/>
<path d="M230.34 71.8801C230.72 71.8801 230.84 68.4801 230.17 64.5301C229.71 61.8701 228.38 54.0801 224.35 52.9001C223.974 52.7605 223.572 52.706 223.173 52.7406C222.773 52.7752 222.386 52.898 222.04 53.1001C221.18 53.7701 221.14 55.2801 221.56 56.3201C222.35 57.9593 223.33 59.4998 224.48 60.9101C230.33 67.4501 229.67 72.0001 230.34 71.8801Z" fill="#381F05"/>
<path d="M56.03 405.93H28.07C21.5475 405.93 16.26 411.215 16.26 417.735C16.26 424.255 21.5475 429.54 28.07 429.54H56.03C62.5525 429.54 67.84 424.255 67.84 417.735C67.84 411.215 62.5525 405.93 56.03 405.93Z" fill="#CE4B28"/>
<path d="M367.96 407.39H340C333.477 407.39 328.19 412.675 328.19 419.195C328.19 425.715 333.477 431 340 431H367.96C374.482 431 379.77 425.715 379.77 419.195C379.77 412.675 374.482 407.39 367.96 407.39Z" fill="#CE4B28"/>
<path d="M367.54 412.05H354.52C351.847 412.05 349.68 414.217 349.68 416.89V416.9C349.68 419.573 351.847 421.74 354.52 421.74H367.54C370.213 421.74 372.38 419.573 372.38 416.9V416.89C372.38 414.217 370.213 412.05 367.54 412.05Z" fill="#D8725D"/>
<path d="M39.8 396.66C43.5113 396.66 46.52 393.651 46.52 389.94C46.52 386.229 43.5113 383.22 39.8 383.22C36.0886 383.22 33.08 386.229 33.08 389.94C33.08 393.651 36.0886 396.66 39.8 396.66Z" fill="#CE4B28"/>
<path d="M24.87 396.33C28.5813 396.33 31.59 393.321 31.59 389.61C31.59 385.899 28.5813 382.89 24.87 382.89C21.1586 382.89 18.15 385.899 18.15 389.61C18.15 393.321 21.1586 396.33 24.87 396.33Z" fill="#CE4B28"/>
<path d="M10.59 405.45C14.3014 405.45 17.31 402.441 17.31 398.73C17.31 395.019 14.3014 392.01 10.59 392.01C6.87867 392.01 3.87 395.019 3.87 398.73C3.87 402.441 6.87867 405.45 10.59 405.45Z" fill="#CE4B28"/>
<path d="M385.65 403.46C389.361 403.46 392.37 400.451 392.37 396.74C392.37 393.029 389.361 390.02 385.65 390.02C381.939 390.02 378.93 393.029 378.93 396.74C378.93 400.451 381.939 403.46 385.65 403.46Z" fill="#CE4B28"/>
<path d="M45.53 416.96H27.39C24.7611 416.96 22.63 419.089 22.63 421.715C22.63 424.341 24.7611 426.47 27.39 426.47H45.53C48.1589 426.47 50.29 424.341 50.29 421.715C50.29 419.089 48.1589 416.96 45.53 416.96Z" fill="#D8725D"/>
</svg>
