<svg width="696" height="266" viewBox="0 0 696 266" fill="none" xmlns="http://www.w3.org/2000/svg">
<path d="M390.407 170.656C437.364 170.656 475.43 132.554 475.43 85.5534C475.43 38.5525 437.364 0.450806 390.407 0.450806C343.451 0.450806 305.385 38.5525 305.385 85.5534C305.385 132.554 343.451 170.656 390.407 170.656Z" fill="white"/>
<path d="M288.289 219.368C335.246 219.368 373.312 181.267 373.312 134.266C373.312 87.265 335.246 49.1633 288.289 49.1633C241.332 49.1633 203.267 87.265 203.267 134.266C203.267 181.267 241.332 219.368 288.289 219.368Z" fill="white"/>
<path d="M163.981 228.327C210.938 228.327 249.004 190.225 249.004 143.225C249.004 96.2237 210.938 58.1219 163.981 58.1219C117.025 58.1219 78.959 96.2237 78.959 143.225C78.959 190.225 117.025 228.327 163.981 228.327Z" fill="white"/>
<path d="M622.5 252C663.093 252 696 219.093 696 178.5C696 137.907 663.093 105 622.5 105C581.907 105 549 137.907 549 178.5C549 219.093 581.907 252 622.5 252Z" fill="white"/>
<path d="M68 266C105.555 266 136 235.555 136 198C136 160.445 105.555 130 68 130C30.4446 130 0 160.445 0 198C0 235.555 30.4446 266 68 266Z" fill="white"/>
<path d="M502.098 228.373C549.055 228.373 587.121 190.271 587.121 143.271C587.121 96.2697 549.055 58.168 502.098 58.168C455.142 58.168 417.076 96.2697 417.076 143.271C417.076 190.271 455.142 228.373 502.098 228.373Z" fill="white"/>
</svg>
