<svg width="696" height="348" viewBox="0 0 696 348" fill="none" xmlns="http://www.w3.org/2000/svg">
<path d="M390.407 170.205C437.364 170.205 475.43 132.103 475.43 85.1026C475.43 38.1017 437.364 0 390.407 0C343.451 0 305.385 38.1017 305.385 85.1026C305.385 132.103 343.451 170.205 390.407 170.205Z" fill="white"/>
<path d="M288.289 218.918C335.246 218.918 373.312 180.816 373.312 133.815C373.312 86.8142 335.246 48.7125 288.289 48.7125C241.332 48.7125 203.267 86.8142 203.267 133.815C203.267 180.816 241.332 218.918 288.289 218.918Z" fill="white"/>
<path d="M163.981 227.876C210.938 227.876 249.004 189.775 249.004 142.774C249.004 95.7729 210.938 57.6711 163.981 57.6711C117.025 57.6711 78.959 95.7729 78.959 142.774C78.959 189.775 117.025 227.876 163.981 227.876Z" fill="white"/>
<path d="M181.022 305.205C227.979 305.205 266.045 267.103 266.045 220.103C266.045 173.102 227.979 135 181.022 135C134.066 135 96 173.102 96 220.103C96 267.103 134.066 305.205 181.022 305.205Z" fill="white"/>
<path d="M307.022 315.205C353.979 315.205 392.045 277.103 392.045 230.103C392.045 183.102 353.979 145 307.022 145C260.066 145 222 183.102 222 230.103C222 277.103 260.066 315.205 307.022 315.205Z" fill="white"/>
<path d="M414 348C475.304 348 525 300.318 525 241.5C525 182.682 475.304 135 414 135C352.696 135 303 182.682 303 241.5C303 300.318 352.696 348 414 348Z" fill="white"/>
<path d="M529.022 315.205C575.979 315.205 614.045 277.103 614.045 230.103C614.045 183.102 575.979 145 529.022 145C482.066 145 444 183.102 444 230.103C444 277.103 482.066 315.205 529.022 315.205Z" fill="white"/>
<path d="M622.5 251.549C663.093 251.549 696 218.642 696 178.049C696 137.456 663.093 104.549 622.5 104.549C581.907 104.549 549 137.456 549 178.049C549 218.642 581.907 251.549 622.5 251.549Z" fill="white"/>
<path d="M68 265.549C105.555 265.549 136 235.105 136 197.549C136 159.994 105.555 129.549 68 129.549C30.4446 129.549 0 159.994 0 197.549C0 235.105 30.4446 265.549 68 265.549Z" fill="white"/>
<path d="M502.098 227.922C549.055 227.922 587.121 189.821 587.121 142.82C587.121 95.8189 549.055 57.7172 502.098 57.7172C455.142 57.7172 417.076 95.8189 417.076 142.82C417.076 189.821 455.142 227.922 502.098 227.922Z" fill="white"/>
</svg>
