<svg width="50" height="50" viewBox="0 0 50 50" fill="none" xmlns="http://www.w3.org/2000/svg">
<path d="M25 0C11.19 0 0 11.19 0 25C0 38.81 11.19 50 25 50C38.81 50 50 38.81 50 25C50 11.19 38.81 0 25 0ZM30.03 19.61L29.77 23.05H26.27V35H21.85V23.05H19.5V19.61H21.86V18.53V17.47V17.3C21.86 16.28 21.89 14.71 22.62 13.73C23.39 12.7 24.45 12 26.27 12C29.24 12 30.5 12.42 30.5 12.42L29.91 15.95C29.91 15.95 28.93 15.66 28.01 15.66C27.09 15.66 26.27 15.99 26.27 16.91V17.29V18.52V19.6H30.03V19.61Z" fill="white"/>
</svg>
