<svg width="996" height="107" viewBox="0 0 996 107" fill="none" xmlns="http://www.w3.org/2000/svg">
<path fill-rule="evenodd" clip-rule="evenodd" d="M535.51 0.520386C747.266 0.520386 906.53 51.2727 995.119 106.913H136.301C150.42 47.4809 323.751 0.520386 535.51 0.520386Z" fill="#7FAF33"/>
<path fill-rule="evenodd" clip-rule="evenodd" d="M126.713 57.3186C178.281 57.3186 224.096 76.7743 253.089 106.913H0.331085C29.315 76.7743 75.1391 57.3186 126.713 57.3186Z" fill="#7FAF33"/>
<path d="M761 65C766.523 65 771 60.5229 771 55C771 49.4771 766.523 45 761 45C755.477 45 751 49.4771 751 55C751 60.5229 755.477 65 761 65Z" fill="#FFDD13"/>
<path d="M429.375 44.7629C432.897 44.7629 435.751 41.9058 435.751 38.3814C435.751 34.8571 432.897 32 429.375 32C425.854 32 423 34.8571 423 38.3814C423 41.9058 425.854 44.7629 429.375 44.7629Z" fill="#FFDD13"/>
<path d="M230.375 73.7629C233.897 73.7629 236.751 70.9059 236.751 67.3815C236.751 63.8571 233.897 61 230.375 61C226.854 61 224 63.8571 224 67.3815C224 70.9059 226.854 73.7629 230.375 73.7629Z" fill="#FFDD13"/>
<path d="M513.821 13.226C515.129 13.8358 516.154 14.914 516.525 16.2926C517.082 18.3518 514.802 22.7972 514.802 22.7972C513.688 25.316 510.065 25.7225 508.518 23.7694C511.779 21.0915 514.095 17.4592 513.821 13.226Z" fill="#D00D09"/>
<path d="M508.518 23.7694C508.341 23.5396 508.182 23.2833 508.068 22.9917C508.023 22.8945 507.493 21.7809 507.449 21.6837L506.441 18.997C504.939 15.7006 507.467 12.8813 511.081 12.6957C511.178 12.6869 511.267 12.6869 511.364 12.6869C512.23 12.6869 513.07 12.8813 513.812 13.226C514.095 17.4593 511.779 21.0916 508.518 23.7694Z" fill="#E23834"/>
<path d="M514.731 17.2472C514.614 17.2472 514.519 17.081 514.519 16.876C514.519 16.671 514.614 16.5048 514.731 16.5048C514.848 16.5048 514.943 16.671 514.943 16.876C514.943 17.081 514.848 17.2472 514.731 17.2472Z" fill="#F2B814"/>
<path d="M512.08 17.2472C511.963 17.2472 511.868 17.081 511.868 16.876C511.868 16.671 511.963 16.5048 512.08 16.5048C512.197 16.5048 512.292 16.671 512.292 16.876C512.292 17.081 512.197 17.2472 512.08 17.2472Z" fill="#F2B814"/>
<path d="M509.897 17.2472C509.78 17.2472 509.685 17.081 509.685 16.876C509.685 16.671 509.78 16.5048 509.897 16.5048C510.014 16.5048 510.109 16.671 510.109 16.876C510.109 17.081 510.014 17.2472 509.897 17.2472Z" fill="#F2B814"/>
<path d="M507.679 17.2472C507.561 17.2472 507.467 17.081 507.467 16.876C507.467 16.671 507.561 16.5048 507.679 16.5048C507.796 16.5048 507.891 16.671 507.891 16.876C507.891 17.081 507.796 17.2472 507.679 17.2472Z" fill="#F2B814"/>
<path d="M514.731 20.1548C514.614 20.1548 514.519 19.9886 514.519 19.7836C514.519 19.5786 514.614 19.4124 514.731 19.4124C514.848 19.4124 514.943 19.5786 514.943 19.7836C514.943 19.9886 514.848 20.1548 514.731 20.1548Z" fill="#F2B814"/>
<path d="M512.08 20.1548C511.963 20.1548 511.868 19.9886 511.868 19.7836C511.868 19.5786 511.963 19.4124 512.08 19.4124C512.197 19.4124 512.292 19.5786 512.292 19.7836C512.292 19.9886 512.197 20.1548 512.08 20.1548Z" fill="#F2B814"/>
<path d="M509.897 20.1548C509.78 20.1548 509.685 19.9886 509.685 19.7836C509.685 19.5786 509.78 19.4124 509.897 19.4124C510.014 19.4124 510.109 19.5786 510.109 19.7836C510.109 19.9886 510.014 20.1548 509.897 20.1548Z" fill="#F2B814"/>
<path d="M507.679 20.1548C507.561 20.1548 507.467 19.9886 507.467 19.7836C507.467 19.5786 507.561 19.4124 507.679 19.4124C507.796 19.4124 507.891 19.5786 507.891 19.7836C507.891 19.9886 507.796 20.1548 507.679 20.1548Z" fill="#F2B814"/>
<path d="M514.731 22.6293C514.614 22.6293 514.519 22.4632 514.519 22.2582C514.519 22.0532 514.614 21.887 514.731 21.887C514.848 21.887 514.943 22.0532 514.943 22.2582C514.943 22.4632 514.848 22.6293 514.731 22.6293Z" fill="#F2B814"/>
<path d="M512.08 22.6293C511.963 22.6293 511.868 22.4632 511.868 22.2582C511.868 22.0532 511.963 21.887 512.08 21.887C512.197 21.887 512.292 22.0532 512.292 22.2582C512.292 22.4632 512.197 22.6293 512.08 22.6293Z" fill="#F2B814"/>
<path d="M509.897 22.6293C509.78 22.6293 509.685 22.4632 509.685 22.2582C509.685 22.0532 509.78 21.887 509.897 21.887C510.014 21.887 510.109 22.0532 510.109 22.2582C510.109 22.4632 510.014 22.6293 509.897 22.6293Z" fill="#F2B814"/>
<path d="M508.766 18.785C508.649 18.785 508.554 18.6188 508.554 18.4138C508.554 18.2088 508.649 18.0426 508.766 18.0426C508.883 18.0426 508.978 18.2088 508.978 18.4138C508.978 18.6188 508.883 18.785 508.766 18.785Z" fill="#F2B814"/>
<path d="M510.984 18.785C510.867 18.785 510.772 18.6188 510.772 18.4138C510.772 18.2088 510.867 18.0426 510.984 18.0426C511.101 18.0426 511.196 18.2088 511.196 18.4138C511.196 18.6188 511.101 18.785 510.984 18.785Z" fill="#F2B814"/>
<path d="M515.527 18.785C515.409 18.785 515.314 18.6188 515.314 18.4138C515.314 18.2088 515.409 18.0426 515.527 18.0426C515.644 18.0426 515.739 18.2088 515.739 18.4138C515.739 18.6188 515.644 18.785 515.527 18.785Z" fill="#F2B814"/>
<path d="M513.246 18.785C513.129 18.785 513.034 18.6188 513.034 18.4138C513.034 18.2088 513.129 18.0426 513.246 18.0426C513.364 18.0426 513.459 18.2088 513.459 18.4138C513.459 18.6188 513.364 18.785 513.246 18.785Z" fill="#F2B814"/>
<path d="M508.695 21.3832C508.578 21.3832 508.483 21.217 508.483 21.012C508.483 20.807 508.578 20.6409 508.695 20.6409C508.812 20.6409 508.907 20.807 508.907 21.012C508.907 21.217 508.812 21.3832 508.695 21.3832Z" fill="#F2B814"/>
<path d="M510.904 21.3832C510.787 21.3832 510.692 21.217 510.692 21.012C510.692 20.807 510.787 20.6409 510.904 20.6409C511.022 20.6409 511.117 20.807 511.117 21.012C511.117 21.217 511.022 21.3832 510.904 21.3832Z" fill="#F2B814"/>
<path d="M513.176 21.3832C513.059 21.3832 512.964 21.217 512.964 21.012C512.964 20.807 513.059 20.6409 513.176 20.6409C513.293 20.6409 513.388 20.807 513.388 21.012C513.388 21.217 513.293 21.3832 513.176 21.3832Z" fill="#F2B814"/>
<path d="M508.766 23.9992C508.649 23.9992 508.554 23.833 508.554 23.628C508.554 23.423 508.649 23.2568 508.766 23.2568C508.883 23.2568 508.978 23.423 508.978 23.628C508.978 23.833 508.883 23.9992 508.766 23.9992Z" fill="#F2B814"/>
<path d="M510.975 23.9992C510.858 23.9992 510.763 23.833 510.763 23.628C510.763 23.423 510.858 23.2568 510.975 23.2568C511.092 23.2568 511.187 23.423 511.187 23.628C511.187 23.833 511.092 23.9992 510.975 23.9992Z" fill="#F2B814"/>
<path d="M513.246 23.9992C513.129 23.9992 513.034 23.833 513.034 23.628C513.034 23.423 513.129 23.2568 513.246 23.2568C513.364 23.2568 513.459 23.423 513.459 23.628C513.459 23.833 513.364 23.9992 513.246 23.9992Z" fill="#F2B814"/>
<path d="M513.344 15.8508C513.226 15.8508 513.132 15.6846 513.132 15.4796C513.132 15.2746 513.226 15.1084 513.344 15.1084C513.461 15.1084 513.556 15.2746 513.556 15.4796C513.556 15.6846 513.461 15.8508 513.344 15.8508Z" fill="#F2B814"/>
<path d="M510.94 15.8508C510.823 15.8508 510.728 15.6846 510.728 15.4796C510.728 15.2746 510.823 15.1084 510.94 15.1084C511.057 15.1084 511.152 15.2746 511.152 15.4796C511.152 15.6846 511.057 15.8508 510.94 15.8508Z" fill="#F2B814"/>
<path d="M508.995 15.8508C508.878 15.8508 508.783 15.6846 508.783 15.4796C508.783 15.2746 508.878 15.1084 508.995 15.1084C509.113 15.1084 509.208 15.2746 509.208 15.4796C509.208 15.6846 509.113 15.8508 508.995 15.8508Z" fill="#F2B814"/>
<path d="M511.426 12.5985C511.505 12.5809 512.044 12.4925 512.371 12.7311C513.291 13.4028 512.345 16.6462 511.594 16.6639C511.426 16.6639 511.302 16.4871 511.055 16.1336C510.869 15.8597 509.72 14.207 510.418 13.2083C510.754 12.7223 511.355 12.6074 511.426 12.5985Z" fill="#3E9322"/>
<path d="M511.505 13.3763C511.488 13.2967 511.373 12.7576 511.603 12.4218C512.248 11.4761 515.518 12.3157 515.562 13.0669C515.571 13.2348 515.394 13.3674 515.049 13.6237C514.784 13.8181 513.167 15.0289 512.142 14.3572C511.656 14.0391 511.523 13.447 511.505 13.3763Z" fill="#38841C"/>
<path d="M511.735 13.6325C511.726 13.7121 511.673 14.26 511.355 14.5075C510.454 15.2145 507.59 13.4293 507.776 12.7046C507.82 12.5367 508.023 12.466 508.43 12.3245C508.739 12.2185 510.639 11.5557 511.426 12.5013C511.788 12.9609 511.744 13.5707 511.735 13.6325Z" fill="#60D32A"/>
<path d="M144.821 83.226C146.129 83.8358 147.154 84.914 147.525 86.2926C148.082 88.3518 145.802 92.7972 145.802 92.7972C144.688 95.316 141.065 95.7225 139.518 93.7694C142.779 91.0915 145.095 87.4592 144.821 83.226Z" fill="#D00D09"/>
<path d="M139.518 93.7694C139.341 93.5396 139.182 93.2833 139.068 92.9917C139.023 92.8945 138.493 91.7809 138.449 91.6837L137.441 88.997C135.939 85.7006 138.467 82.8813 142.081 82.6957C142.178 82.6869 142.267 82.6869 142.364 82.6869C143.23 82.6869 144.07 82.8813 144.812 83.226C145.095 87.4593 142.779 91.0916 139.518 93.7694Z" fill="#E23834"/>
<path d="M145.731 87.2472C145.614 87.2472 145.519 87.081 145.519 86.876C145.519 86.671 145.614 86.5048 145.731 86.5048C145.848 86.5048 145.943 86.671 145.943 86.876C145.943 87.081 145.848 87.2472 145.731 87.2472Z" fill="#F2B814"/>
<path d="M143.08 87.2472C142.963 87.2472 142.868 87.081 142.868 86.876C142.868 86.671 142.963 86.5048 143.08 86.5048C143.197 86.5048 143.292 86.671 143.292 86.876C143.292 87.081 143.197 87.2472 143.08 87.2472Z" fill="#F2B814"/>
<path d="M140.897 87.2472C140.78 87.2472 140.685 87.081 140.685 86.876C140.685 86.671 140.78 86.5048 140.897 86.5048C141.014 86.5048 141.109 86.671 141.109 86.876C141.109 87.081 141.014 87.2472 140.897 87.2472Z" fill="#F2B814"/>
<path d="M138.679 87.2472C138.561 87.2472 138.467 87.081 138.467 86.876C138.467 86.671 138.561 86.5048 138.679 86.5048C138.796 86.5048 138.891 86.671 138.891 86.876C138.891 87.081 138.796 87.2472 138.679 87.2472Z" fill="#F2B814"/>
<path d="M145.731 90.1548C145.614 90.1548 145.519 89.9886 145.519 89.7836C145.519 89.5786 145.614 89.4124 145.731 89.4124C145.848 89.4124 145.943 89.5786 145.943 89.7836C145.943 89.9886 145.848 90.1548 145.731 90.1548Z" fill="#F2B814"/>
<path d="M143.08 90.1548C142.963 90.1548 142.868 89.9886 142.868 89.7836C142.868 89.5786 142.963 89.4124 143.08 89.4124C143.197 89.4124 143.292 89.5786 143.292 89.7836C143.292 89.9886 143.197 90.1548 143.08 90.1548Z" fill="#F2B814"/>
<path d="M140.897 90.1548C140.78 90.1548 140.685 89.9886 140.685 89.7836C140.685 89.5786 140.78 89.4124 140.897 89.4124C141.014 89.4124 141.109 89.5786 141.109 89.7836C141.109 89.9886 141.014 90.1548 140.897 90.1548Z" fill="#F2B814"/>
<path d="M138.679 90.1548C138.561 90.1548 138.467 89.9886 138.467 89.7836C138.467 89.5786 138.561 89.4124 138.679 89.4124C138.796 89.4124 138.891 89.5786 138.891 89.7836C138.891 89.9886 138.796 90.1548 138.679 90.1548Z" fill="#F2B814"/>
<path d="M145.731 92.6293C145.614 92.6293 145.519 92.4632 145.519 92.2582C145.519 92.0532 145.614 91.887 145.731 91.887C145.848 91.887 145.943 92.0532 145.943 92.2582C145.943 92.4632 145.848 92.6293 145.731 92.6293Z" fill="#F2B814"/>
<path d="M143.08 92.6293C142.963 92.6293 142.868 92.4632 142.868 92.2582C142.868 92.0532 142.963 91.887 143.08 91.887C143.197 91.887 143.292 92.0532 143.292 92.2582C143.292 92.4632 143.197 92.6293 143.08 92.6293Z" fill="#F2B814"/>
<path d="M140.897 92.6293C140.78 92.6293 140.685 92.4632 140.685 92.2582C140.685 92.0532 140.78 91.887 140.897 91.887C141.014 91.887 141.109 92.0532 141.109 92.2582C141.109 92.4632 141.014 92.6293 140.897 92.6293Z" fill="#F2B814"/>
<path d="M139.766 88.785C139.649 88.785 139.554 88.6188 139.554 88.4138C139.554 88.2088 139.649 88.0426 139.766 88.0426C139.883 88.0426 139.978 88.2088 139.978 88.4138C139.978 88.6188 139.883 88.785 139.766 88.785Z" fill="#F2B814"/>
<path d="M141.984 88.785C141.867 88.785 141.772 88.6188 141.772 88.4138C141.772 88.2088 141.867 88.0426 141.984 88.0426C142.101 88.0426 142.196 88.2088 142.196 88.4138C142.196 88.6188 142.101 88.785 141.984 88.785Z" fill="#F2B814"/>
<path d="M146.527 88.785C146.409 88.785 146.314 88.6188 146.314 88.4138C146.314 88.2088 146.409 88.0426 146.527 88.0426C146.644 88.0426 146.739 88.2088 146.739 88.4138C146.739 88.6188 146.644 88.785 146.527 88.785Z" fill="#F2B814"/>
<path d="M144.246 88.785C144.129 88.785 144.034 88.6188 144.034 88.4138C144.034 88.2088 144.129 88.0426 144.246 88.0426C144.364 88.0426 144.459 88.2088 144.459 88.4138C144.459 88.6188 144.364 88.785 144.246 88.785Z" fill="#F2B814"/>
<path d="M139.695 91.3832C139.578 91.3832 139.483 91.217 139.483 91.012C139.483 90.807 139.578 90.6409 139.695 90.6409C139.812 90.6409 139.907 90.807 139.907 91.012C139.907 91.217 139.812 91.3832 139.695 91.3832Z" fill="#F2B814"/>
<path d="M141.904 91.3832C141.787 91.3832 141.692 91.217 141.692 91.012C141.692 90.807 141.787 90.6409 141.904 90.6409C142.022 90.6409 142.117 90.807 142.117 91.012C142.117 91.217 142.022 91.3832 141.904 91.3832Z" fill="#F2B814"/>
<path d="M144.176 91.3832C144.059 91.3832 143.964 91.217 143.964 91.012C143.964 90.807 144.059 90.6409 144.176 90.6409C144.293 90.6409 144.388 90.807 144.388 91.012C144.388 91.217 144.293 91.3832 144.176 91.3832Z" fill="#F2B814"/>
<path d="M139.766 93.9992C139.649 93.9992 139.554 93.833 139.554 93.628C139.554 93.423 139.649 93.2568 139.766 93.2568C139.883 93.2568 139.978 93.423 139.978 93.628C139.978 93.833 139.883 93.9992 139.766 93.9992Z" fill="#F2B814"/>
<path d="M141.975 93.9992C141.858 93.9992 141.763 93.833 141.763 93.628C141.763 93.423 141.858 93.2568 141.975 93.2568C142.092 93.2568 142.187 93.423 142.187 93.628C142.187 93.833 142.092 93.9992 141.975 93.9992Z" fill="#F2B814"/>
<path d="M144.246 93.9992C144.129 93.9992 144.034 93.833 144.034 93.628C144.034 93.423 144.129 93.2568 144.246 93.2568C144.364 93.2568 144.459 93.423 144.459 93.628C144.459 93.833 144.364 93.9992 144.246 93.9992Z" fill="#F2B814"/>
<path d="M144.344 85.8508C144.226 85.8508 144.132 85.6846 144.132 85.4796C144.132 85.2746 144.226 85.1084 144.344 85.1084C144.461 85.1084 144.556 85.2746 144.556 85.4796C144.556 85.6846 144.461 85.8508 144.344 85.8508Z" fill="#F2B814"/>
<path d="M141.94 85.8508C141.823 85.8508 141.728 85.6846 141.728 85.4796C141.728 85.2746 141.823 85.1084 141.94 85.1084C142.057 85.1084 142.152 85.2746 142.152 85.4796C142.152 85.6846 142.057 85.8508 141.94 85.8508Z" fill="#F2B814"/>
<path d="M139.995 85.8508C139.878 85.8508 139.783 85.6846 139.783 85.4796C139.783 85.2746 139.878 85.1084 139.995 85.1084C140.113 85.1084 140.208 85.2746 140.208 85.4796C140.208 85.6846 140.113 85.8508 139.995 85.8508Z" fill="#F2B814"/>
<path d="M142.426 82.5985C142.505 82.5809 143.044 82.4925 143.371 82.7311C144.291 83.4028 143.345 86.6462 142.594 86.6639C142.426 86.6639 142.302 86.4871 142.055 86.1336C141.869 85.8597 140.72 84.207 141.418 83.2083C141.754 82.7223 142.355 82.6074 142.426 82.5985Z" fill="#3E9322"/>
<path d="M142.505 83.3762C142.488 83.2967 142.373 82.7576 142.603 82.4218C143.248 81.4761 146.518 82.3157 146.562 83.0669C146.571 83.2348 146.394 83.3674 146.049 83.6237C145.784 83.8181 144.167 85.0289 143.142 84.3572C142.656 84.0391 142.523 83.4469 142.505 83.3762Z" fill="#38841C"/>
<path d="M142.735 83.6325C142.726 83.7121 142.673 84.26 142.355 84.5075C141.454 85.2145 138.59 83.4293 138.776 82.7046C138.82 82.5367 139.023 82.466 139.43 82.3245C139.739 82.2185 141.639 81.5557 142.426 82.5013C142.788 82.9609 142.744 83.5707 142.735 83.6325Z" fill="#60D32A"/>
<path d="M809.821 72.226C811.129 72.8358 812.154 73.914 812.525 75.2926C813.082 77.3518 810.802 81.7972 810.802 81.7972C809.688 84.316 806.065 84.7225 804.518 82.7694C807.779 80.0915 810.095 76.4592 809.821 72.226Z" fill="#D00D09"/>
<path d="M804.518 82.7694C804.342 82.5396 804.182 82.2833 804.068 81.9917C804.023 81.8945 803.493 80.7809 803.449 80.6837L802.441 77.997C800.939 74.7006 803.467 71.8813 807.081 71.6957C807.178 71.6869 807.267 71.6869 807.364 71.6869C808.23 71.6869 809.07 71.8813 809.812 72.226C810.095 76.4593 807.779 80.0916 804.518 82.7694Z" fill="#E23834"/>
<path d="M810.731 76.2472C810.614 76.2472 810.519 76.081 810.519 75.876C810.519 75.671 810.614 75.5048 810.731 75.5048C810.848 75.5048 810.943 75.671 810.943 75.876C810.943 76.081 810.848 76.2472 810.731 76.2472Z" fill="#F2B814"/>
<path d="M808.08 76.2472C807.963 76.2472 807.868 76.081 807.868 75.876C807.868 75.671 807.963 75.5048 808.08 75.5048C808.197 75.5048 808.292 75.671 808.292 75.876C808.292 76.081 808.197 76.2472 808.08 76.2472Z" fill="#F2B814"/>
<path d="M805.897 76.2472C805.78 76.2472 805.685 76.081 805.685 75.876C805.685 75.671 805.78 75.5048 805.897 75.5048C806.014 75.5048 806.109 75.671 806.109 75.876C806.109 76.081 806.014 76.2472 805.897 76.2472Z" fill="#F2B814"/>
<path d="M803.679 76.2472C803.561 76.2472 803.467 76.081 803.467 75.876C803.467 75.671 803.561 75.5048 803.679 75.5048C803.796 75.5048 803.891 75.671 803.891 75.876C803.891 76.081 803.796 76.2472 803.679 76.2472Z" fill="#F2B814"/>
<path d="M810.731 79.1548C810.614 79.1548 810.519 78.9886 810.519 78.7836C810.519 78.5786 810.614 78.4124 810.731 78.4124C810.848 78.4124 810.943 78.5786 810.943 78.7836C810.943 78.9886 810.848 79.1548 810.731 79.1548Z" fill="#F2B814"/>
<path d="M808.08 79.1548C807.963 79.1548 807.868 78.9886 807.868 78.7836C807.868 78.5786 807.963 78.4124 808.08 78.4124C808.197 78.4124 808.292 78.5786 808.292 78.7836C808.292 78.9886 808.197 79.1548 808.08 79.1548Z" fill="#F2B814"/>
<path d="M805.897 79.1548C805.78 79.1548 805.685 78.9886 805.685 78.7836C805.685 78.5786 805.78 78.4124 805.897 78.4124C806.014 78.4124 806.109 78.5786 806.109 78.7836C806.109 78.9886 806.014 79.1548 805.897 79.1548Z" fill="#F2B814"/>
<path d="M803.679 79.1548C803.561 79.1548 803.467 78.9886 803.467 78.7836C803.467 78.5786 803.561 78.4124 803.679 78.4124C803.796 78.4124 803.891 78.5786 803.891 78.7836C803.891 78.9886 803.796 79.1548 803.679 79.1548Z" fill="#F2B814"/>
<path d="M810.731 81.6293C810.614 81.6293 810.519 81.4632 810.519 81.2582C810.519 81.0532 810.614 80.887 810.731 80.887C810.848 80.887 810.943 81.0532 810.943 81.2582C810.943 81.4632 810.848 81.6293 810.731 81.6293Z" fill="#F2B814"/>
<path d="M808.08 81.6293C807.963 81.6293 807.868 81.4632 807.868 81.2582C807.868 81.0532 807.963 80.887 808.08 80.887C808.197 80.887 808.292 81.0532 808.292 81.2582C808.292 81.4632 808.197 81.6293 808.08 81.6293Z" fill="#F2B814"/>
<path d="M805.897 81.6293C805.78 81.6293 805.685 81.4632 805.685 81.2582C805.685 81.0532 805.78 80.887 805.897 80.887C806.014 80.887 806.109 81.0532 806.109 81.2582C806.109 81.4632 806.014 81.6293 805.897 81.6293Z" fill="#F2B814"/>
<path d="M804.766 77.785C804.649 77.785 804.554 77.6188 804.554 77.4138C804.554 77.2088 804.649 77.0426 804.766 77.0426C804.883 77.0426 804.978 77.2088 804.978 77.4138C804.978 77.6188 804.883 77.785 804.766 77.785Z" fill="#F2B814"/>
<path d="M806.984 77.785C806.867 77.785 806.772 77.6188 806.772 77.4138C806.772 77.2088 806.867 77.0426 806.984 77.0426C807.101 77.0426 807.196 77.2088 807.196 77.4138C807.196 77.6188 807.101 77.785 806.984 77.785Z" fill="#F2B814"/>
<path d="M811.527 77.785C811.409 77.785 811.314 77.6188 811.314 77.4138C811.314 77.2088 811.409 77.0426 811.527 77.0426C811.644 77.0426 811.739 77.2088 811.739 77.4138C811.739 77.6188 811.644 77.785 811.527 77.785Z" fill="#F2B814"/>
<path d="M809.246 77.785C809.129 77.785 809.034 77.6188 809.034 77.4138C809.034 77.2088 809.129 77.0426 809.246 77.0426C809.364 77.0426 809.458 77.2088 809.458 77.4138C809.458 77.6188 809.364 77.785 809.246 77.785Z" fill="#F2B814"/>
<path d="M804.695 80.3832C804.578 80.3832 804.483 80.217 804.483 80.012C804.483 79.807 804.578 79.6409 804.695 79.6409C804.812 79.6409 804.907 79.807 804.907 80.012C804.907 80.217 804.812 80.3832 804.695 80.3832Z" fill="#F2B814"/>
<path d="M806.904 80.3832C806.787 80.3832 806.692 80.217 806.692 80.012C806.692 79.807 806.787 79.6409 806.904 79.6409C807.022 79.6409 807.117 79.807 807.117 80.012C807.117 80.217 807.022 80.3832 806.904 80.3832Z" fill="#F2B814"/>
<path d="M809.176 80.3832C809.059 80.3832 808.964 80.217 808.964 80.012C808.964 79.807 809.059 79.6409 809.176 79.6409C809.293 79.6409 809.388 79.807 809.388 80.012C809.388 80.217 809.293 80.3832 809.176 80.3832Z" fill="#F2B814"/>
<path d="M804.766 82.9992C804.649 82.9992 804.554 82.833 804.554 82.628C804.554 82.423 804.649 82.2568 804.766 82.2568C804.883 82.2568 804.978 82.423 804.978 82.628C804.978 82.833 804.883 82.9992 804.766 82.9992Z" fill="#F2B814"/>
<path d="M806.975 82.9992C806.858 82.9992 806.763 82.833 806.763 82.628C806.763 82.423 806.858 82.2568 806.975 82.2568C807.092 82.2568 807.187 82.423 807.187 82.628C807.187 82.833 807.092 82.9992 806.975 82.9992Z" fill="#F2B814"/>
<path d="M809.246 82.9992C809.129 82.9992 809.034 82.833 809.034 82.628C809.034 82.423 809.129 82.2568 809.246 82.2568C809.364 82.2568 809.458 82.423 809.458 82.628C809.458 82.833 809.364 82.9992 809.246 82.9992Z" fill="#F2B814"/>
<path d="M809.344 74.8508C809.227 74.8508 809.132 74.6846 809.132 74.4796C809.132 74.2746 809.227 74.1084 809.344 74.1084C809.461 74.1084 809.556 74.2746 809.556 74.4796C809.556 74.6846 809.461 74.8508 809.344 74.8508Z" fill="#F2B814"/>
<path d="M806.94 74.8508C806.823 74.8508 806.728 74.6846 806.728 74.4796C806.728 74.2746 806.823 74.1084 806.94 74.1084C807.057 74.1084 807.152 74.2746 807.152 74.4796C807.152 74.6846 807.057 74.8508 806.94 74.8508Z" fill="#F2B814"/>
<path d="M804.996 74.8508C804.878 74.8508 804.783 74.6846 804.783 74.4796C804.783 74.2746 804.878 74.1084 804.996 74.1084C805.113 74.1084 805.208 74.2746 805.208 74.4796C805.208 74.6846 805.113 74.8508 804.996 74.8508Z" fill="#F2B814"/>
<path d="M807.426 71.5985C807.505 71.5809 808.045 71.4925 808.372 71.7311C809.291 72.4028 808.345 75.6462 807.594 75.6639C807.426 75.6639 807.302 75.4871 807.055 75.1336C806.869 74.8597 805.72 73.207 806.418 72.2083C806.754 71.7223 807.355 71.6074 807.426 71.5985Z" fill="#3E9322"/>
<path d="M807.505 72.3762C807.488 72.2967 807.373 71.7576 807.603 71.4218C808.248 70.4761 811.518 71.3157 811.562 72.0669C811.571 72.2348 811.394 72.3674 811.049 72.6237C810.784 72.8181 809.167 74.0289 808.142 73.3572C807.656 73.0391 807.523 72.4469 807.505 72.3762Z" fill="#38841C"/>
<path d="M807.735 72.6325C807.726 72.7121 807.673 73.26 807.355 73.5075C806.454 74.2145 803.59 72.4293 803.776 71.7046C803.82 71.5367 804.023 71.466 804.43 71.3245C804.739 71.2185 806.639 70.5557 807.426 71.5013C807.788 71.9609 807.744 72.5707 807.735 72.6325Z" fill="#60D32A"/>
<path d="M361.209 29.8483C359.237 30.7676 357.692 32.3932 357.132 34.4717C356.293 37.5761 359.73 44.278 359.73 44.278C361.409 48.0753 366.872 48.6882 369.203 45.7436C364.287 41.7065 360.796 36.2304 361.209 29.8483Z" fill="#D00D09"/>
<path d="M369.203 45.7437C369.47 45.3973 369.71 45.0109 369.883 44.5712C369.95 44.4246 370.749 42.7458 370.816 42.5993L372.335 38.5488C374.6 33.579 370.789 29.3287 365.34 29.0489C365.193 29.0356 365.06 29.0356 364.913 29.0356C363.607 29.0356 362.342 29.3287 361.222 29.8483C360.796 36.2305 364.287 41.7066 369.203 45.7437Z" fill="#E23834"/>
<path d="M359.837 35.9107C360.013 35.9107 360.157 35.6601 360.157 35.3511C360.157 35.042 360.013 34.7915 359.837 34.7915C359.66 34.7915 359.517 35.042 359.517 35.3511C359.517 35.6601 359.66 35.9107 359.837 35.9107Z" fill="#F2B814"/>
<path d="M363.834 35.9107C364.011 35.9107 364.154 35.6601 364.154 35.3511C364.154 35.042 364.011 34.7915 363.834 34.7915C363.657 34.7915 363.514 35.042 363.514 35.3511C363.514 35.6601 363.657 35.9107 363.834 35.9107Z" fill="#F2B814"/>
<path d="M367.125 35.9107C367.301 35.9107 367.445 35.6601 367.445 35.3511C367.445 35.042 367.301 34.7915 367.125 34.7915C366.948 34.7915 366.805 35.042 366.805 35.3511C366.805 35.6601 366.948 35.9107 367.125 35.9107Z" fill="#F2B814"/>
<path d="M370.469 35.9107C370.646 35.9107 370.789 35.6601 370.789 35.3511C370.789 35.042 370.646 34.7915 370.469 34.7915C370.293 34.7915 370.149 35.042 370.149 35.3511C370.149 35.6601 370.293 35.9107 370.469 35.9107Z" fill="#F2B814"/>
<path d="M359.837 40.2942C360.013 40.2942 360.157 40.0437 360.157 39.7346C360.157 39.4256 360.013 39.175 359.837 39.175C359.66 39.175 359.517 39.4256 359.517 39.7346C359.517 40.0437 359.66 40.2942 359.837 40.2942Z" fill="#F2B814"/>
<path d="M363.834 40.2942C364.011 40.2942 364.154 40.0437 364.154 39.7346C364.154 39.4256 364.011 39.175 363.834 39.175C363.657 39.175 363.514 39.4256 363.514 39.7346C363.514 40.0437 363.657 40.2942 363.834 40.2942Z" fill="#F2B814"/>
<path d="M367.125 40.2942C367.301 40.2942 367.445 40.0437 367.445 39.7346C367.445 39.4256 367.301 39.175 367.125 39.175C366.948 39.175 366.805 39.4256 366.805 39.7346C366.805 40.0437 366.948 40.2942 367.125 40.2942Z" fill="#F2B814"/>
<path d="M370.469 40.2942C370.646 40.2942 370.789 40.0437 370.789 39.7346C370.789 39.4256 370.646 39.175 370.469 39.175C370.293 39.175 370.149 39.4256 370.149 39.7346C370.149 40.0437 370.293 40.2942 370.469 40.2942Z" fill="#F2B814"/>
<path d="M359.837 44.0249C360.013 44.0249 360.157 43.7744 360.157 43.4653C360.157 43.1562 360.013 42.9057 359.837 42.9057C359.66 42.9057 359.517 43.1562 359.517 43.4653C359.517 43.7744 359.66 44.0249 359.837 44.0249Z" fill="#F2B814"/>
<path d="M363.834 44.0249C364.011 44.0249 364.154 43.7744 364.154 43.4653C364.154 43.1562 364.011 42.9057 363.834 42.9057C363.657 42.9057 363.514 43.1562 363.514 43.4653C363.514 43.7744 363.657 44.0249 363.834 44.0249Z" fill="#F2B814"/>
<path d="M367.125 44.0249C367.301 44.0249 367.445 43.7744 367.445 43.4653C367.445 43.1562 367.301 42.9057 367.125 42.9057C366.948 42.9057 366.805 43.1562 366.805 43.4653C366.805 43.7744 366.948 44.0249 367.125 44.0249Z" fill="#F2B814"/>
<path d="M368.83 38.229C369.007 38.229 369.15 37.9785 369.15 37.6694C369.15 37.3604 369.007 37.1098 368.83 37.1098C368.654 37.1098 368.511 37.3604 368.511 37.6694C368.511 37.9785 368.654 38.229 368.83 38.229Z" fill="#F2B814"/>
<path d="M365.486 38.229C365.663 38.229 365.806 37.9785 365.806 37.6694C365.806 37.3604 365.663 37.1098 365.486 37.1098C365.309 37.1098 365.166 37.3604 365.166 37.6694C365.166 37.9785 365.309 38.229 365.486 38.229Z" fill="#F2B814"/>
<path d="M358.638 38.229C358.814 38.229 358.957 37.9785 358.957 37.6694C358.957 37.3604 358.814 37.1098 358.638 37.1098C358.461 37.1098 358.318 37.3604 358.318 37.6694C358.318 37.9785 358.461 38.229 358.638 38.229Z" fill="#F2B814"/>
<path d="M362.075 38.229C362.252 38.229 362.395 37.9785 362.395 37.6694C362.395 37.3604 362.252 37.1098 362.075 37.1098C361.899 37.1098 361.755 37.3604 361.755 37.6694C361.755 37.9785 361.899 38.229 362.075 38.229Z" fill="#F2B814"/>
<path d="M368.937 42.1462C369.114 42.1462 369.257 41.8957 369.257 41.5866C369.257 41.2776 369.114 41.027 368.937 41.027C368.76 41.027 368.617 41.2776 368.617 41.5866C368.617 41.8957 368.76 42.1462 368.937 42.1462Z" fill="#F2B814"/>
<path d="M365.606 42.1462C365.783 42.1462 365.926 41.8957 365.926 41.5866C365.926 41.2776 365.783 41.027 365.606 41.027C365.429 41.027 365.286 41.2776 365.286 41.5866C365.286 41.8957 365.429 42.1462 365.606 42.1462Z" fill="#F2B814"/>
<path d="M362.182 42.1462C362.358 42.1462 362.502 41.8957 362.502 41.5866C362.502 41.2776 362.358 41.027 362.182 41.027C362.005 41.027 361.862 41.2776 361.862 41.5866C361.862 41.8957 362.005 42.1462 362.182 42.1462Z" fill="#F2B814"/>
<path d="M368.83 46.0901C369.007 46.0901 369.15 45.8395 369.15 45.5305C369.15 45.2214 369.007 44.9709 368.83 44.9709C368.654 44.9709 368.511 45.2214 368.511 45.5305C368.511 45.8395 368.654 46.0901 368.83 46.0901Z" fill="#F2B814"/>
<path d="M365.499 46.0901C365.676 46.0901 365.819 45.8395 365.819 45.5305C365.819 45.2214 365.676 44.9709 365.499 44.9709C365.323 44.9709 365.18 45.2214 365.18 45.5305C365.18 45.8395 365.323 46.0901 365.499 46.0901Z" fill="#F2B814"/>
<path d="M362.075 46.0901C362.252 46.0901 362.395 45.8395 362.395 45.5305C362.395 45.2214 362.252 44.9709 362.075 44.9709C361.899 44.9709 361.755 45.2214 361.755 45.5305C361.755 45.8395 361.899 46.0901 362.075 46.0901Z" fill="#F2B814"/>
<path d="M361.929 33.8055C362.105 33.8055 362.248 33.5549 362.248 33.2459C362.248 32.9368 362.105 32.6863 361.929 32.6863C361.752 32.6863 361.609 32.9368 361.609 33.2459C361.609 33.5549 361.752 33.8055 361.929 33.8055Z" fill="#F2B814"/>
<path d="M365.553 33.8055C365.729 33.8055 365.872 33.5549 365.872 33.2459C365.872 32.9368 365.729 32.6863 365.553 32.6863C365.376 32.6863 365.233 32.9368 365.233 33.2459C365.233 33.5549 365.376 33.8055 365.553 33.8055Z" fill="#F2B814"/>
<path d="M368.484 33.8055C368.661 33.8055 368.804 33.5549 368.804 33.2459C368.804 32.9368 368.661 32.6863 368.484 32.6863C368.307 32.6863 368.164 32.9368 368.164 33.2459C368.164 33.5549 368.307 33.8055 368.484 33.8055Z" fill="#F2B814"/>
<path d="M364.82 28.9023C364.7 28.8757 363.887 28.7424 363.394 29.1022C362.009 30.1148 363.434 35.0046 364.567 35.0313C364.82 35.0313 365.006 34.7648 365.379 34.2319C365.659 33.8188 367.391 31.3273 366.339 29.8217C365.832 29.0889 364.926 28.9157 364.82 28.9023Z" fill="#3E9322"/>
<path d="M364.7 30.0748C364.727 29.9549 364.9 29.1422 364.553 28.6358C363.581 27.2102 358.651 28.476 358.584 29.6085C358.571 29.8616 358.837 30.0615 359.357 30.4479C359.757 30.741 362.195 32.5664 363.741 31.5538C364.473 31.0741 364.673 30.1814 364.7 30.0748Z" fill="#38841C"/>
<path d="M364.354 30.4612C364.367 30.5811 364.447 31.4072 364.927 31.7803C366.286 32.8462 370.602 30.1548 370.323 29.0622C370.256 28.8091 369.95 28.7025 369.337 28.4893C368.87 28.3294 366.006 27.3301 364.82 28.7558C364.274 29.4486 364.34 30.368 364.354 30.4612Z" fill="#60D32A"/>
</svg>
