<svg xmlns="http://www.w3.org/2000/svg" viewBox="0 0 244.66 41.97"><defs><style>.cls-1{fill:#fff;}</style></defs><title>codeРесурс 2</title><g id="Слой_2" data-name="Слой 2"><g id="header"><path class="cls-1" d="M103.64,6.55H81l-8,14.68H73V6.55H68.32v21.2h5.23l8-14.71h.09V27.75h4.64V10.51h6.36V27.75h4.67V10.51h6.36ZM33.88,27.89h5V6.6h-5Zm6.17-21L43.3,28l2.53-.4-3.25-21Zm21.39,8.32a31.69,31.69,0,0,1-4.2.48c-2.37,0-3.3-.92-3.3-3.48V6.55H49.3v5.63c0,5.45,2.83,7.41,7.59,7.41A29.52,29.52,0,0,0,61.44,19v8.75h4.63V6.55H61.44ZM129.39,4.91A5.2,5.2,0,0,0,134.75,0h-2.88a2.42,2.42,0,0,1-2.48,2,2.43,2.43,0,0,1-2.49-2H124A5.2,5.2,0,0,0,129.39,4.91ZM0,27.89H17L18.69,6.6H0ZM21.23,6.6,19.6,27.89H25L24,6.6Zm8.93,21.29H32.6V6.6H29.07Zm164-21.34H185v21.2h4.61V20.13h4.75c4.26,0,7.53-2.15,7.53-6.76S198.74,6.55,194.16,6.55Zm-.39,9.92h-4.13V10.36h4.16c2,0,3.6.81,3.6,3.07S195.85,16.47,193.77,16.47ZM173.79,6c-6.33,0-10.5,4.41-10.5,11.14s4.2,11.08,10.47,11.08,10.41-4.46,10.41-11.08S180,6,173.79,6Zm0,18.38c-3.6,0-5.8-2.77-5.8-7.33s2.23-7.24,5.74-7.24,5.74,2.77,5.74,7.24S177.3,24.42,173.79,24.42ZM106.89,6.51,98.83,27.75h4.75L105.31,23h7.88l1.66,4.73h4.88L111.67,6.51Zm-.45,13.11,2.82-7.89,2.8,7.89ZM242.31,23.8V6.55H227.24V9.76c0,6.26-.89,10.7-3.39,14h-1.61v9.41h4.49V27.75h13.44v5.46h4.49V23.8Zm-4.63,0H229c1.87-3.43,2.83-7.3,2.83-13.11v-.36h5.83ZM212.93,6c-6.33,0-10.49,4.41-10.49,11.14s4.19,11.08,10.47,11.08,10.4-4.46,10.4-11.08S219.12,6,212.93,6Zm0,18.38c-3.59,0-5.79-2.77-5.79-7.33s2.23-7.24,5.74-7.24,5.73,2.77,5.73,7.24S216.44,24.42,212.93,24.42ZM164.37,6.55H152.16V27.89h4.67V10.53h7.54ZM124.83,21.23h-.09V6.55H120.1v21.2h5.23l8-14.71h.08V27.75H138V6.55h-5.24Zm15.8.32h8.93V17.77h-8.93Z"/><path class="cls-1" d="M2.85,42A2.39,2.39,0,0,1,.38,39.27c0-1.72,1-2.81,2.5-2.81a2,2,0,0,1,2.2,1.84H4.19a1.26,1.26,0,0,0-1.3-1.13c-1,0-1.61.79-1.61,2s.58,2,1.55,2a1.38,1.38,0,0,0,1.41-1.33h.87A2.16,2.16,0,0,1,2.85,42Z"/><path class="cls-1" d="M8.21,42c-1.52,0-2.44-1-2.44-2.7s1-2.81,2.41-2.81c1.71,0,2.36,1.36,2.36,2.85v.13H6.63v.06a1.57,1.57,0,0,0,1.62,1.77,1.32,1.32,0,0,0,1.4-1.11h.84A2.12,2.12,0,0,1,8.21,42Zm-.05-4.81a1.58,1.58,0,0,0-1.53,1.58h3C9.57,37.76,9,37.16,8.16,37.16Z"/><path class="cls-1" d="M13.55,37.36V41.8H12.7V37.36H10.84v-.75h4.57v.75Z"/><path class="cls-1" d="M18.81,41.8H16.06V36.61h.86v2h1.85a1.61,1.61,0,1,1,0,3.21Zm-1.89-2.47V41H18.5c.7,0,1.07-.31,1.07-.86s-.36-.85-1.07-.85Z"/><path class="cls-1" d="M27.66,41.8l-1.89-2.56L25,40V41.8H24.1V36.61H25v2.47l2.37-2.47h1.15l-2.09,2,2.36,3.15Z"/><path class="cls-1" d="M29.32,41.8V36.61h.86v2.06h2.59V36.61h.85V41.8h-.85V39.43H30.18V41.8Z"/><path class="cls-1" d="M34.91,41.8V36.61h.85v4.23h0l2.34-4.23h1.09V41.8h-.85V37.57h0L36,41.8Z"/><path class="cls-1" d="M40.91,41.8H39.85l2.28-3.06-2-2.13H41.2L43.31,39h0V36.61h.86V39h0l2.11-2.38h1.06l-2,2.13,2.28,3.06H46.61l-1.78-2.51-.64.65V41.8h-.86V39.94l-.64-.65Z"/><path class="cls-1" d="M48.32,41.8V36.61h.85v2.06h2.6V36.61h.85V41.8h-.85V39.43h-2.6V41.8Z"/><path class="cls-1" d="M56.38,41.8h-2.5V36.61h.85v2h1.61a1.61,1.61,0,1,1,0,3.21Zm-1.65-2.47V41h1.34c.7,0,1.07-.31,1.07-.86s-.36-.85-1.07-.85Zm5-2.72V41.8h-.86V36.61Z"/><path class="cls-1" d="M63.44,39l2,2.8h-1.1L62.9,39.67,61.46,41.8h-1l2-2.74-1.8-2.45h1.09l1.25,1.78,1.29-1.78h1Z"/><path class="cls-1" d="M73.75,41.8V37.71h0L72.18,41.8H71.4l-1.54-4.09h0V41.8H69V36.61H70.2l1.58,4.2h0l1.58-4.2H74.6V41.8Z"/><path class="cls-1" d="M80.46,41.78a1.65,1.65,0,0,1-.58.1.69.69,0,0,1-.75-.76,2.33,2.33,0,0,1-1.88.82,1.45,1.45,0,0,1-1.66-1.47c0-.92.61-1.47,1.84-1.62s1.66-.12,1.66-.82-.42-.86-1.18-.86-1.21.29-1.29,1.06h-.83c0-1.11.83-1.76,2.17-1.76a2.42,2.42,0,0,1,1.63.5,1.79,1.79,0,0,1,.35,1.35c0,.77,0,1.54,0,2.31,0,.38.09.52.35.52a.82.82,0,0,0,.21,0Zm-2.52-2.36c-.62.08-1.47.15-1.47,1,0,.53.39.87,1,.87s1.58-.56,1.58-1.22V39.1A2.34,2.34,0,0,1,77.94,39.42Z"/><path class="cls-1" d="M82.14,37.36V41.8h-.85V36.61h3.56v.75Z"/><path class="cls-1" d="M90.08,41.78a1.65,1.65,0,0,1-.58.1.69.69,0,0,1-.75-.76,2.34,2.34,0,0,1-1.89.82,1.45,1.45,0,0,1-1.65-1.47c0-.92.61-1.47,1.84-1.62s1.66-.12,1.66-.82-.42-.86-1.18-.86-1.21.29-1.29,1.06h-.83c0-1.11.83-1.76,2.17-1.76a2.42,2.42,0,0,1,1.63.5,1.79,1.79,0,0,1,.35,1.35c0,.77,0,1.54,0,2.31,0,.38.09.52.35.52a.82.82,0,0,0,.21,0Zm-2.52-2.36c-.62.08-1.47.15-1.47,1,0,.53.39.87,1,.87.8,0,1.58-.56,1.58-1.22V39.1A2.34,2.34,0,0,1,87.56,39.42Z"/><path class="cls-1" d="M92.79,36.46c1.06,0,1.95.43,1.95,1.4A1.1,1.1,0,0,1,93.9,39v0a1.24,1.24,0,0,1,1,1.29c0,1.13-1.06,1.7-2.16,1.7-1.35,0-2.19-.65-2.25-1.78h.87c0,.74.61,1.09,1.38,1.09s1.27-.46,1.27-1-.31-.84-1.1-.84H92.2v-.7h.58c.6,0,1.09-.23,1.09-.84,0-.38-.39-.75-1.09-.75s-1.25.25-1.32,1h-.87C90.67,36.83,91.74,36.46,92.79,36.46Z"/><path class="cls-1" d="M95.91,41.8V36.61h.86v4.23h0l2.33-4.23h1.09V41.8h-.85V37.57h0L97,41.8Z"/><path class="cls-1" d="M101.5,41.8V36.61h.85v2.06H105V36.61h.85V41.8H105V39.43h-2.6V41.8Z"/><path class="cls-1" d="M111.84,39.17c0,1.76-.91,2.79-2.49,2.79a2.43,2.43,0,0,1-2.53-2.74,2.46,2.46,0,0,1,2.54-2.76C110.93,36.46,111.84,37.45,111.84,39.17Zm-4.14,0c0,1.28.61,2,1.66,2s1.61-.77,1.61-2.05-.62-2-1.63-2S107.7,38,107.7,39.2Z"/><path class="cls-1" d="M112.84,36.61h2.4c.9,0,1.78.2,1.78,1.26a1.14,1.14,0,0,1-.76,1.11h0a1.21,1.21,0,0,1,1,1.28,1.49,1.49,0,0,1-1.58,1.53h-2.82Zm3.3,1.4c0-.43-.24-.67-1-.67h-1.48V38.7h1.48C115.88,38.7,116.14,38.45,116.14,38Zm-2.47,3.05h1.83a.81.81,0,0,0,.86-.86c0-.47-.31-.77-1-.77h-1.68Z"/></g></g></svg>