<svg width="50" height="50" viewBox="0 0 50 50" fill="none" xmlns="http://www.w3.org/2000/svg">
<path d="M24.96 20.21C26.8 20.23 28.32 18.72 28.34 16.86C28.36 14.97 26.87 13.45 25 13.45C23.14 13.44 21.66 14.93 21.66 16.81C21.66 18.68 23.12 20.19 24.96 20.21Z" fill="white"/>
<path d="M25 0C11.19 0 0 11.19 0 25C0 38.81 11.19 50 25 50C38.81 50 50 38.81 50 25C50 11.19 38.81 0 25 0ZM25.03 10C28.73 10.01 31.74 13.1 31.73 16.86C31.72 20.58 28.69 23.64 24.99 23.64C21.3 23.64 18.29 20.6 18.26 16.85C18.23 13.1 21.3 9.99 25.03 10ZM32.42 26.49C31.6 27.1 30.76 27.74 29.84 28.13C28.76 28.59 27.57 28.79 26.41 29.11C26.46 29.16 26.55 29.29 26.66 29.39C28.13 30.89 29.58 32.42 31.1 33.87C32.34 35.04 31.7 36.52 30.52 36.91C30.49 36.93 30.46 36.97 30.43 37C30.22 37 30.01 37 29.81 37C29.39 36.68 28.92 36.41 28.55 36.04C27.37 34.89 26.22 33.7 25.03 32.5C24.89 32.64 24.75 32.76 24.63 32.88C23.62 33.9 22.63 34.93 21.61 35.93C21.2 36.33 20.72 36.65 20.27 37.01C20.06 37.01 19.86 37.01 19.65 37.01C19.37 36.83 19.05 36.68 18.81 36.46C18.05 35.74 18.04 34.83 18.77 34.09C20.29 32.54 21.83 30.99 23.36 29.44C23.47 29.33 23.57 29.21 23.69 29.09C22.7 28.87 21.77 28.69 20.85 28.43C19.64 28.1 18.6 27.42 17.66 26.6C17.18 26.19 16.87 25.68 17.07 24.98C17.28 24.28 17.66 23.71 18.42 23.68C18.86 23.66 19.4 23.79 19.74 24.05C21.21 25.16 22.88 25.67 24.68 25.73C26.58 25.79 28.39 25.39 29.97 24.22C30.44 23.87 30.95 23.57 31.56 23.65C32.29 23.74 32.69 24.23 32.92 24.91C33.13 25.56 32.93 26.13 32.42 26.49Z" fill="white"/>
</svg>
