<svg width="75" height="91" viewBox="0 0 75 91" fill="none" xmlns="http://www.w3.org/2000/svg">
<path d="M20.2538 9.40161C11.1918 13.6258 4.08922 21.0947 1.51758 30.6451C-2.33988 44.9094 13.4573 75.7033 13.4573 75.7033C21.1723 93.1511 46.2764 95.9672 56.9915 82.4375C34.3978 63.8877 18.3557 38.7262 20.2538 9.40161Z" fill="#8C0039"/>
<path d="M56.9915 82.4376C58.2161 80.8459 59.3183 79.0705 60.1142 77.0502C60.4204 76.3768 64.0942 68.663 64.4003 67.9896L71.3805 49.3786C81.7895 26.5434 64.2779 7.01409 39.235 5.72846C38.5614 5.66724 37.9492 5.66724 37.2756 5.66724C31.2751 5.66724 25.4583 7.01409 20.315 9.40168C18.3557 38.7262 34.3978 63.8878 56.9915 82.4376Z" fill="#AF003F"/>
<path d="M13.9472 37.2569C14.7588 37.2569 15.4167 36.1057 15.4167 34.6856C15.4167 33.2656 14.7588 32.1144 13.9472 32.1144C13.1356 32.1144 12.4777 33.2656 12.4777 34.6856C12.4777 36.1057 13.1356 37.2569 13.9472 37.2569Z" fill="#F2B814"/>
<path d="M32.316 37.2569C33.1276 37.2569 33.7855 36.1057 33.7855 34.6856C33.7855 33.2656 33.1276 32.1144 32.316 32.1144C31.5044 32.1144 30.8465 33.2656 30.8465 34.6856C30.8465 36.1057 31.5044 37.2569 32.316 37.2569Z" fill="#F2B814"/>
<path d="M47.4397 37.2569C48.2513 37.2569 48.9092 36.1057 48.9092 34.6856C48.9092 33.2656 48.2513 32.1144 47.4397 32.1144C46.6281 32.1144 45.9702 33.2656 45.9702 34.6856C45.9702 36.1057 46.6281 37.2569 47.4397 37.2569Z" fill="#F2B814"/>
<path d="M62.8083 37.2569C63.6199 37.2569 64.2778 36.1057 64.2778 34.6856C64.2778 33.2656 63.6199 32.1144 62.8083 32.1144C61.9968 32.1144 61.3388 33.2656 61.3388 34.6856C61.3388 36.1057 61.9968 37.2569 62.8083 37.2569Z" fill="#F2B814"/>
<path d="M13.9472 57.3984C14.7588 57.3984 15.4167 56.2472 15.4167 54.8271C15.4167 53.407 14.7588 52.2559 13.9472 52.2559C13.1356 52.2559 12.4777 53.407 12.4777 54.8271C12.4777 56.2472 13.1356 57.3984 13.9472 57.3984Z" fill="#F2B814"/>
<path d="M32.316 57.3984C33.1276 57.3984 33.7855 56.2472 33.7855 54.8271C33.7855 53.407 33.1276 52.2559 32.316 52.2559C31.5044 52.2559 30.8465 53.407 30.8465 54.8271C30.8465 56.2472 31.5044 57.3984 32.316 57.3984Z" fill="#F2B814"/>
<path d="M47.4397 57.3984C48.2513 57.3984 48.9092 56.2472 48.9092 54.8271C48.9092 53.407 48.2513 52.2559 47.4397 52.2559C46.6281 52.2559 45.9702 53.407 45.9702 54.8271C45.9702 56.2472 46.6281 57.3984 47.4397 57.3984Z" fill="#F2B814"/>
<path d="M62.8083 57.3984C63.6199 57.3984 64.2778 56.2472 64.2778 54.8271C64.2778 53.407 63.6199 52.2559 62.8083 52.2559C61.9968 52.2559 61.3388 53.407 61.3388 54.8271C61.3388 56.2472 61.9968 57.3984 62.8083 57.3984Z" fill="#F2B814"/>
<path d="M13.9472 74.5401C14.7588 74.5401 15.4167 73.3889 15.4167 71.9688C15.4167 70.5488 14.7588 69.3976 13.9472 69.3976C13.1356 69.3976 12.4777 70.5488 12.4777 71.9688C12.4777 73.3889 13.1356 74.5401 13.9472 74.5401Z" fill="#F2B814"/>
<path d="M32.316 74.5401C33.1276 74.5401 33.7855 73.3889 33.7855 71.9688C33.7855 70.5488 33.1276 69.3976 32.316 69.3976C31.5044 69.3976 30.8465 70.5488 30.8465 71.9688C30.8465 73.3889 31.5044 74.5401 32.316 74.5401Z" fill="#F2B814"/>
<path d="M47.4397 74.5401C48.2513 74.5401 48.9092 73.3889 48.9092 71.9688C48.9092 70.5488 48.2513 69.3976 47.4397 69.3976C46.6281 69.3976 45.9702 70.5488 45.9702 71.9688C45.9702 73.3889 46.6281 74.5401 47.4397 74.5401Z" fill="#F2B814"/>
<path d="M55.2771 47.9092C56.0887 47.9092 56.7466 46.758 56.7466 45.338C56.7466 43.9179 56.0887 42.7667 55.2771 42.7667C54.4655 42.7667 53.8076 43.9179 53.8076 45.338C53.8076 46.758 54.4655 47.9092 55.2771 47.9092Z" fill="#F2B814"/>
<path d="M39.9085 47.9092C40.7201 47.9092 41.378 46.758 41.378 45.338C41.378 43.9179 40.7201 42.7667 39.9085 42.7667C39.0969 42.7667 38.439 43.9179 38.439 45.338C38.439 46.758 39.0969 47.9092 39.9085 47.9092Z" fill="#F2B814"/>
<path d="M8.43651 47.9092C9.2481 47.9092 9.90601 46.758 9.90601 45.338C9.90601 43.9179 9.2481 42.7667 8.43651 42.7667C7.62493 42.7667 6.96701 43.9179 6.96701 45.338C6.96701 46.758 7.62493 47.9092 8.43651 47.9092Z" fill="#F2B814"/>
<path d="M24.2337 47.9092C25.0453 47.9092 25.7032 46.758 25.7032 45.338C25.7032 43.9179 25.0453 42.7667 24.2337 42.7667C23.4221 42.7667 22.7642 43.9179 22.7642 45.338C22.7642 46.758 23.4221 47.9092 24.2337 47.9092Z" fill="#F2B814"/>
<path d="M55.7669 65.908C56.5785 65.908 57.2364 64.7568 57.2364 63.3368C57.2364 61.9167 56.5785 60.7655 55.7669 60.7655C54.9554 60.7655 54.2974 61.9167 54.2974 63.3368C54.2974 64.7568 54.9554 65.908 55.7669 65.908Z" fill="#F2B814"/>
<path d="M40.4596 65.908C41.2712 65.908 41.9291 64.7568 41.9291 63.3368C41.9291 61.9167 41.2712 60.7655 40.4596 60.7655C39.648 60.7655 38.9901 61.9167 38.9901 63.3368C38.9901 64.7568 39.648 65.908 40.4596 65.908Z" fill="#F2B814"/>
<path d="M24.7236 65.908C25.5352 65.908 26.1931 64.7568 26.1931 63.3368C26.1931 61.9167 25.5352 60.7655 24.7236 60.7655C23.912 60.7655 23.2541 61.9167 23.2541 63.3368C23.2541 64.7568 23.912 65.908 24.7236 65.908Z" fill="#F2B814"/>
<path d="M55.2771 84.0292C56.0887 84.0292 56.7466 82.878 56.7466 81.458C56.7466 80.0379 56.0887 78.8867 55.2771 78.8867C54.4655 78.8867 53.8076 80.0379 53.8076 81.458C53.8076 82.878 54.4655 84.0292 55.2771 84.0292Z" fill="#F2B814"/>
<path d="M39.9697 84.0292C40.7813 84.0292 41.4393 82.878 41.4393 81.458C41.4393 80.0379 40.7813 78.8867 39.9697 78.8867C39.1582 78.8867 38.5002 80.0379 38.5002 81.458C38.5002 82.878 39.1582 84.0292 39.9697 84.0292Z" fill="#F2B814"/>
<path d="M24.2337 84.0292C25.0453 84.0292 25.7032 82.878 25.7032 81.458C25.7032 80.0379 25.0453 78.8867 24.2337 78.8867C23.4221 78.8867 22.7642 80.0379 22.7642 81.458C22.7642 82.878 23.4221 84.0292 24.2337 84.0292Z" fill="#F2B814"/>
<path d="M23.5602 27.584C24.3718 27.584 25.0297 26.4329 25.0297 25.0128C25.0297 23.5927 24.3718 22.4415 23.5602 22.4415C22.7486 22.4415 22.0907 23.5927 22.0907 25.0128C22.0907 26.4329 22.7486 27.584 23.5602 27.584Z" fill="#F2B814"/>
<path d="M40.2147 27.584C41.0262 27.584 41.6842 26.4329 41.6842 25.0128C41.6842 23.5927 41.0262 22.4415 40.2147 22.4415C39.4031 22.4415 38.7451 23.5927 38.7451 25.0128C38.7451 26.4329 39.4031 27.584 40.2147 27.584Z" fill="#F2B814"/>
<path d="M53.6851 27.584C54.4967 27.584 55.1546 26.4329 55.1546 25.0128C55.1546 23.5927 54.4967 22.4415 53.6851 22.4415C52.8736 22.4415 52.2156 23.5927 52.2156 25.0128C52.2156 26.4329 52.8736 27.584 53.6851 27.584Z" fill="#F2B814"/>
<path d="M36.847 5.05495C36.296 4.93251 32.561 4.32031 30.2955 5.97326C23.9276 10.626 30.4792 33.0939 35.6837 33.2163C36.847 33.2163 37.7042 31.9919 39.4187 29.5431C40.7045 27.6453 48.6643 16.1971 43.8272 9.27916C41.5005 5.91203 37.3369 5.11617 36.847 5.05495Z" fill="#3E9322"/>
<path d="M36.296 10.4424C36.4184 9.89143 37.2144 6.15699 35.6224 3.83061C31.1527 -2.71997 8.49776 3.09597 8.19161 8.2997C8.13038 9.46289 9.35496 10.3812 11.7429 12.1566C13.5798 13.5034 24.7848 21.8906 31.8874 17.2379C35.2551 15.0339 36.1735 10.9322 36.296 10.4424Z" fill="#38841C"/>
<path d="M34.704 12.2178C34.7652 12.7687 35.1326 16.5644 37.3368 18.2786C43.5823 23.1762 63.4206 10.8097 62.1348 5.78962C61.8287 4.62644 60.4204 4.13667 57.6038 3.15715C55.4608 2.4225 42.2964 -2.16903 36.847 4.38155C34.3366 7.56501 34.6427 11.7892 34.704 12.2178Z" fill="#60D32A"/>
</svg>
