<svg width="50" height="50" viewBox="0 0 50 50" fill="none" xmlns="http://www.w3.org/2000/svg">
<path d="M21.97 26.34V31.32C24.53 31.32 27.7 31.75 27.76 28.83C27.82 25.8 24.51 26.34 21.97 26.34Z" fill="white"/>
<path d="M26.52 20.62C26.52 18.27 24.03 18.66 21.98 18.66V20.25V22.85C24.32 22.85 26.52 23.16 26.52 20.62Z" fill="white"/>
<path d="M25 0C11.19 0 0 11.19 0 25C0 38.81 11.19 50 25 50C38.81 50 50 38.81 50 25C50 11.19 38.81 0 25 0ZM25.67 35H17L17.04 15H26.12C29.11 15 31.66 16.47 31.66 19.42C31.66 21.89 30.76 22.86 28.92 23.94C29.08 24.07 30.13 24.38 30.48 24.56C31.05 24.84 31.38 25.12 31.76 25.5C32.81 26.57 33 27.54 33 29.2C33 33.06 29.27 35 25.67 35Z" fill="white"/>
</svg>
